<?xml version="1.0" encoding="utf-8"?>
<!-- Generator: Adobe Illustrator 21.0.0, SVG Export Plug-In . SVG Version: 6.00 Build 0)  -->
<svg version="1.1" id="图层_1" xmlns="http://www.w3.org/2000/svg" xmlns:xlink="http://www.w3.org/1999/xlink" x="0px" y="0px"
	 viewBox="0 0 30.9 30.9" style="enable-background:new 0 0 30.9 30.9;" xml:space="preserve">
<style type="text/css">
	.st0{fill:none;stroke:#999999;stroke-width:0.5;stroke-miterlimit:10;}
	.st1{fill:#999999;}
	.st2{fill:#FFFFFF;}
</style>
<circle class="st0" cx="15.4" cy="15.3" r="15"/>
<path class="st1" d="M24.6,24.1h-1.2c0-2.2-1-4.3-2.6-5.7c-0.2-0.2-0.4-0.4-0.7-0.5c-0.5-0.3-1.1-0.1-2.1,0.4
	c-0.8,0.4-1.6,0.8-2.5,0.8c-0.9,0-1.8-0.4-2.5-0.8c-1-0.5-1.6-0.7-2.1-0.4c-0.2,0.1-0.4,0.3-0.6,0.5c-1.7,1.5-2.7,3.6-2.7,5.8H6.3
	c0-1.3,0.3-2.6,0.8-3.7c0.5-1.1,1.3-2.1,2.3-2.9c0.2-0.2,0.5-0.4,0.7-0.5c0.5-0.4,1.1-0.5,1.8-0.3c0.5,0.1,1.1,0.4,1.6,0.6
	c0.7,0.3,1.4,0.6,2,0.6c0.7,0,1.3-0.3,2-0.6c0.5-0.2,1-0.5,1.6-0.6c0.7-0.1,1.3,0,1.8,0.3c0.3,0.2,0.5,0.4,0.8,0.6
	c1,0.8,1.7,1.8,2.2,2.9C24.3,21.6,24.6,22.8,24.6,24.1z"/>
<path class="st1" d="M15.4,16.3c-1.5,0-2.9-0.6-4-1.6c-1.1-1-1.7-2.4-1.7-3.9c0-1.5,0.6-2.8,1.7-3.9c1.1-1,2.5-1.6,4-1.6
	c1.5,0,2.9,0.6,4,1.6c1.1,1,1.7,2.4,1.7,3.9c0,1.5-0.6,2.8-1.7,3.9C18.4,15.7,17,16.3,15.4,16.3z"/>
<ellipse class="st2" cx="15.4" cy="10.8" rx="4.6" ry="4.4"/>
</svg>
