<?xml version="1.0" encoding="UTF-8"?>
<svg width="16px" height="16px" viewBox="0 0 16 16" version="1.1" xmlns="http://www.w3.org/2000/svg" xmlns:xlink="http://www.w3.org/1999/xlink">
    <!-- Generator: Sketch 48 (47235) - http://www.bohemiancoding.com/sketch -->
    <title>iPhone 8</title>
    <desc>Created with Sketch.</desc>
    <defs></defs>
    <g id="Page-1" stroke="none" stroke-width="1" fill="none" fill-rule="evenodd" opacity="0.41966712">
        <g id="iPhone-8" fill="#000000" fill-rule="nonzero">
            <g id="编辑-(1)" transform="translate(1.000000, 1.000000)">
                <path d="M12.1679716,14 L2.12339408,14 C1.60343906,14 1.06222721,13.7775302 0.652598819,13.3792145 C0.242986987,12.9808987 0,12.4684401 0,11.9628446 L0,1.81054523 C0,1.28867811 0.253110062,0.806152813 0.698061537,0.468428617 C1.08827219,0.172237259 1.5996781,0 2.12341065,0 L7.57479525,0 C7.8482343,0 8.06989821,0.217427171 8.06989821,0.483314711 C8.06989821,0.749202252 7.8482343,0.966629422 7.57479525,0.966629422 L2.12339408,0.966629422 C1.58617516,0.966629422 0.994082841,1.29819943 0.994082841,1.81054524 L0.994082841,11.9628607 C0.994082841,12.4907532 1.58052544,13.0333867 2.12339408,13.0333867 L12.1679716,13.0333867 C12.6948521,13.0333867 13.0059171,12.4852434 13.0059171,11.9628607 L13.0059172,6.72622637 C13.0059172,6.46033885 13.2295195,6.24479659 13.5029586,6.24479659 C13.7763976,6.24479659 14,6.46033885 14,6.72622637 L14,11.9628607 C14,12.4721294 13.8378485,12.9555891 13.5332615,13.3350395 C13.1859456,13.7677028 12.7046769,14 12.1679716,14 Z" id="Shape"></path>
                <path d="M7.55728428,7 C7.41466721,7 7.27203541,6.94558538 7.16322124,6.83675616 C6.94559292,6.61912715 6.94559292,6.26630078 7.16322124,6.04867177 L13.0486674,0.163221759 C13.2662957,-0.0544072529 13.6191504,-0.0544072529 13.8367788,0.163221759 C14.0544071,0.38085077 14.0544071,0.733677135 13.8367788,0.951306147 L7.95133261,6.83675616 C7.84251843,6.9455854 7.69988664,7 7.55728428,7 Z" id="Shape"></path>
            </g>
        </g>
    </g>
</svg>