<?xml version="1.0" encoding="UTF-8"?>
<svg width="11px" height="11px" viewBox="0 0 11 11" version="1.1" xmlns="http://www.w3.org/2000/svg" xmlns:xlink="http://www.w3.org/1999/xlink">
    <!-- Generator: Sketch 48 (47235) - http://www.bohemiancoding.com/sketch -->
    <title>btn_cancle</title>
    <desc>Created with Sketch.</desc>
    <defs></defs>
    <g id="Symbols" stroke="none" stroke-width="1" fill="none" fill-rule="evenodd">
        <g id="btn_cancle" fill="#4768F3">
            <g>
                <path d="M5.5,0 C2.4625,0 0,2.4625 0,5.5 C0,8.5375 2.4625,11 5.5,11 C8.5375,11 11,8.5375 11,5.5 C11,2.4625 8.5375,0 5.5,0 L5.5,0 Z M5.5,10 C3.015,10 1,7.985 1,5.5 C1,3.015 3.015,1 5.5,1 C7.985,1 10,3.015 10,5.5 C10,7.985 7.985,10 5.5,10 L5.5,10 Z M7.268,3.7325 C7.0725,3.537 6.7555,3.537 6.5605,3.7325 L5.5,4.793 L4.4395,3.7325 C4.244,3.537 3.9275,3.537 3.732,3.7325 C3.537,3.9275 3.537,4.2445 3.732,4.4395 L4.793,5.5 L3.732,6.5605 C3.537,6.7555 3.537,7.0725 3.732,7.2675 C3.9275,7.463 4.244,7.463 4.4395,7.2675 L5.5,6.207 L6.5605,7.2675 C6.7555,7.463 7.0725,7.463 7.268,7.2675 C7.463,7.0725 7.463,6.7555 7.268,6.5605 L6.207,5.5 L7.268,4.4395 C7.463,4.244 7.463,3.9275 7.268,3.7325 L7.268,3.7325 Z"></path>
            </g>
        </g>
    </g>
</svg>