<?xml version="1.0" encoding="utf-8"?>
<!-- Generator: Adobe Illustrator 21.0.0, SVG Export Plug-In . SVG Version: 6.00 Build 0)  -->
<svg version="1.1" id="图层_1" xmlns="http://www.w3.org/2000/svg" xmlns:xlink="http://www.w3.org/1999/xlink" x="0px" y="0px"
	 viewBox="0 0 47.6 38.8" style="enable-background:new 0 0 47.6 38.8;" xml:space="preserve">
<style type="text/css">
	.st0{fill:none;stroke:#7DCDB4;stroke-width:2;stroke-miterlimit:10;}
	.st1{fill:#7DCDB4;}
</style>
<path class="st0" d="M37.9,1.5H9.7c-1,0-1.9,0.6-2.3,1.5L2,14.9c-0.1,0.3-0.2,0.6-0.2,1v16.2v3.4c0,0.8,0.7,1.5,1.5,1.5h4.3
	c0.8,0,1.5-0.7,1.5-1.5v-3.4h29.4v3.4c0,0.8,0.7,1.5,1.5,1.5h4.3c0.8,0,1.5-0.7,1.5-1.5v-3.4V15.9c0-0.4-0.1-0.7-0.2-1l-5.5-12
	C39.8,2,38.9,1.5,37.9,1.5z"/>
<polygon class="st1" points="9.7,4.1 37.8,4.1 41.8,12.9 5.7,12.9 "/>
<circle class="st1" cx="12.8" cy="21.8" r="3.8"/>
<path class="st1" d="M34.8,25.5c-2.1,0-3.8-1.7-3.8-3.8s1.7-3.8,3.8-3.8s3.8,1.7,3.8,3.8S36.8,25.5,34.8,25.5z"/>
</svg>
