<?xml version="1.0" encoding="utf-8"?>
<!-- Generator: Adobe Illustrator 21.0.0, SVG Export Plug-In . SVG Version: 6.00 Build 0)  -->
<svg version="1.1" id="图层_1" xmlns="http://www.w3.org/2000/svg" xmlns:xlink="http://www.w3.org/1999/xlink" x="0px" y="0px"
	 viewBox="0 0 30.5 27" style="enable-background:new 0 0 30.5 27;" xml:space="preserve">
<style type="text/css">
	.st0{fill:#FF5444;}
</style>
<path class="st0" d="M2,10.9c0,0,0.1-0.4,0.4-0.7S3,9.9,3,9.9S2.6,9.8,2.3,9.5C2.1,9.3,2,8.9,2,8.9S1.9,9.3,1.6,9.6
	C1.4,9.8,0.9,9.9,0.9,9.9s0.4,0.1,0.7,0.3C1.9,10.5,2,10.9,2,10.9z M29.8,19.6c-0.3-0.3-0.3-0.7-0.3-0.7s-0.1,0.4-0.4,0.7
	c-0.3,0.3-0.7,0.3-0.7,0.3s0.4,0.1,0.7,0.3s0.4,0.7,0.4,0.7s0.1-0.4,0.4-0.7c0.3-0.3,0.7-0.3,0.7-0.3S30.1,19.9,29.8,19.6z M6.2,2
	c0.4-0.4,1.1-0.5,1.1-0.5S6.6,1.4,6.2,1S5.6,0,5.6,0S5.5,0.6,5.1,1S4,1.5,4,1.5S4.7,1.7,5.1,2c0.4,0.4,0.5,1,0.5,1S5.8,2.4,6.2,2z
	 M20.9,24.9c0,0-0.1,0.4-0.4,0.7c-0.3,0.3-0.7,0.3-0.7,0.3s0.4,0.1,0.7,0.3s0.4,0.7,0.4,0.7s0.1-0.4,0.4-0.7C21.5,26,22,26,22,26
	s-0.4-0.1-0.7-0.4C21,25.4,20.9,24.9,20.9,24.9z M29.8,9.2c0,0-0.7-0.1-1.2-0.6c-0.4-0.4-0.6-1.1-0.6-1.1S28,8.2,27.5,8.6
	s-1.1,0.6-1.1,0.6s0.7,0.1,1.2,0.6s0.6,1.2,0.6,1.2s0.2-0.7,0.6-1.2C29.1,9.3,29.8,9.2,29.8,9.2z M1.9,20.8c0,0-0.2,0.8-0.6,1.3
	C0.8,22.6,0,22.8,0,22.8s0.8,0.2,1.3,0.6s0.6,1.3,0.6,1.3s0.2-0.8,0.7-1.3c0.5-0.5,1.2-0.6,1.2-0.6S3,22.6,2.5,22.1
	C2.1,21.6,1.9,20.8,1.9,20.8z M22.5,5.2h-2.4V4.6c0-0.2-0.2-0.4-0.4-0.4s-0.4,0.2-0.4,0.4v0.7h-9V4.6c0-0.2-0.2-0.4-0.4-0.4
	S9.6,4.4,9.6,4.6v0.7H7.3c-1.1,0-2,0.9-2,2v14.4c0,1.1,0.9,2,2,2h15.2c1.1,0,2-0.9,2-2V7.2C24.5,6.1,23.6,5.2,22.5,5.2z M23.6,21.6
	c0,0.6-0.5,1.2-1.2,1.2H7.3c-0.6,0-1.2-0.5-1.2-1.2V9.3h17.5L23.6,21.6z M23.7,8.5H6.2V7.2C6.2,6.6,6.7,6,7.3,6h2.4v1.8
	C9.7,8,9.8,8.2,10,8.2s0.4-0.2,0.4-0.4V6h9v1.8c0,0.2,0.2,0.4,0.4,0.4s0.4-0.2,0.4-0.4V6h2.4c0.6,0,1.2,0.5,1.2,1.2L23.7,8.5
	L23.7,8.5z M11.7,17.2c-0.2-0.2-0.4-0.2-0.6,0s-0.2,0.4,0,0.6l2.6,2.6c0.1,0.1,0.2,0.1,0.3,0.1s0.2,0,0.3-0.1l5.5-5.4
	c0.2-0.2,0.2-0.4,0-0.6s-0.4-0.2-0.6,0L14,19.5L11.7,17.2z M7.6,12.2h7.6c0.2,0,0.4-0.2,0.4-0.4s-0.2-0.4-0.4-0.4H7.6
	c-0.2,0-0.4,0.2-0.4,0.4S7.4,12.2,7.6,12.2z M7.6,14.9h9.2c0.2,0,0.4-0.2,0.4-0.4s-0.2-0.4-0.4-0.4H7.6c-0.2,0-0.4,0.2-0.4,0.4
	S7.4,14.9,7.6,14.9z"/>
</svg>
