<?xml version="1.0" encoding="utf-8"?>
<!-- Generator: Adobe Illustrator 21.0.0, SVG Export Plug-In . SVG Version: 6.00 Build 0)  -->
<svg version="1.1" id="图层_1" xmlns="http://www.w3.org/2000/svg" xmlns:xlink="http://www.w3.org/1999/xlink" x="0px" y="0px"
	 viewBox="0 0 25.8 28.3" style="enable-background:new 0 0 25.8 28.3;" xml:space="preserve">
<style type="text/css">
	.st0{fill:#FF5444;}
</style>
<path class="st0" d="M23.8,28.1h-14H6.6H2.1c-1.1,0-1.9-0.9-1.9-1.9l0-11.5h1.3v10.8c0,0.7,0.6,1.3,1.3,1.3h2
	c-0.1-0.2-0.1-0.4-0.1-0.6V2c0-1.1,0.9-1.9,1.9-1.9h17.2c1.1,0,1.9,0.9,1.9,1.9v24.2C25.7,27.2,24.8,28.1,23.8,28.1z M24.4,2.6
	c0-0.7-0.6-1.3-1.3-1.3l-15.9,0C6.5,1.4,6,1.9,6,2.6v22.9c0,0.7,0.6,1.3,1.3,1.3h2.5l0,0h13.4c0.7,0,1.3-0.6,1.3-1.3V2.6z
	 M21.9,17.3h-14c-0.4,0-0.6-0.3-0.6-0.6S7.5,16,7.9,16h14c0.4,0,0.6,0.3,0.6,0.6C22.5,17,22.2,17.3,21.9,17.3z M21.9,9.6h-5.7
	c-0.4,0-0.6-0.3-0.6-0.6s0.3-0.6,0.6-0.6h5.7c0.4,0,0.6,0.3,0.6,0.6S22.2,9.6,21.9,9.6z M21.9,4.6h-5.7c-0.4,0-0.6-0.3-0.6-0.6
	s0.3-0.6,0.6-0.6h5.7c0.4,0,0.6,0.3,0.6,0.6S22.2,4.6,21.9,4.6z M13.6,10.3H7.9c-0.4,0-0.6-0.3-0.6-0.6V3.9c0-0.4,0.3-0.6,0.6-0.6
	h5.7c0.4,0,0.6,0.3,0.6,0.6v5.7C14.2,10,13.9,10.3,13.6,10.3z M13,5.2c0-0.4-0.3-0.6-0.6-0.6H9.1c-0.4,0-0.6,0.3-0.6,0.6v3.2
	C8.5,8.7,8.8,9,9.1,9h3.2C12.7,9,13,8.7,13,8.4V5.2z M7.9,21.7h7.6c0.4,0,0.6,0.3,0.6,0.6S15.9,23,15.5,23l-7.6,0
	c-0.4,0-0.6-0.3-0.6-0.6C7.2,22,7.5,21.7,7.9,21.7z"/>
</svg>
