<?xml version="1.0" encoding="UTF-8"?>
<svg width="16px" height="16px" viewBox="0 0 16 16" version="1.1" xmlns="http://www.w3.org/2000/svg" xmlns:xlink="http://www.w3.org/1999/xlink">
    <!-- Generator: Sketch 48 (47235) - http://www.bohemiancoding.com/sketch -->
    <title>iPhone 8</title>
    <desc>Created with Sketch.</desc>
    <defs></defs>
    <g id="Page-1" stroke="none" stroke-width="1" fill="none" fill-rule="evenodd" opacity="0.46">
        <g id="iPhone-8" fill="#000000" fill-rule="nonzero">
            <g id="垃圾箱-copy-3">
                <path d="M15.5982009,2.78629657 L14.0185907,2.78629657 L14.0185907,15.5974994 C14.0185907,15.819955 13.8386807,16 13.6163918,16 L2.3836082,16 C2.16131934,16 1.9818091,15.819955 1.9818091,15.5974994 L1.9818091,2.78629657 L0.4017991,2.78629657 C0.179510245,2.78629657 0,2.60625156 0,2.38419605 C0,2.16214054 0.179510245,1.98209552 0.4017991,1.98209552 L2.3836082,1.98209552 L4.62488756,1.98209552 L4.62488756,0.402100525 C4.62488756,0.180045011 4.8047976,0 5.02708646,0 L10.9729135,0 C11.1952024,0 11.3751124,0.180045011 11.3751124,0.402100525 L11.3751124,1.98209552 L13.6163918,1.98209552 L15.5982009,1.98209552 C15.8204898,1.98209552 16,2.16214054 16,2.38419605 C16,2.60625156 15.8204898,2.78629657 15.5982009,2.78629657 Z M10.5707146,0.80420105 L5.42928536,0.80420105 L5.42928536,1.98209552 L10.5707146,1.98209552 L10.5707146,0.80420105 Z M13.2141929,2.78629657 L10.9729135,2.78629657 L5.02708646,2.78629657 L2.7858071,2.78629657 L2.7858071,15.1953988 L13.2141929,15.1953988 L13.2141929,2.78629657 Z M5.02708646,4.62475619 C5.24937531,4.62475619 5.42928536,4.8048012 5.42928536,5.02685671 L5.42928536,12.6243561 C5.42928536,12.8464116 5.24937531,13.0264566 5.02708646,13.0264566 C4.8047976,13.0264566 4.62488756,12.8464116 4.62488756,12.6243561 L4.62488756,5.02685671 C4.62488756,4.8048012 4.8047976,4.62475619 5.02708646,4.62475619 Z M8,4.62475619 C8.22228886,4.62475619 8.4021989,4.8048012 8.4021989,5.02685671 L8.4021989,12.6243561 C8.4021989,12.8464116 8.22228886,13.0264566 8,13.0264566 C7.77771114,13.0264566 7.5978011,12.8464116 7.5978011,12.6243561 L7.5978011,5.02685671 C7.5978011,4.8048012 7.77771114,4.62475619 8,4.62475619 Z M10.9729135,4.29427357 C11.1952024,4.29427357 11.3751124,4.47431858 11.3751124,4.69637409 L11.3751124,12.2942736 C11.3751124,12.5163291 11.1952024,12.6963741 10.9729135,12.6963741 C10.7506247,12.6963741 10.5707146,12.5163291 10.5707146,12.2942736 L10.5707146,4.69637409 C10.5707146,4.47431858 10.7506247,4.29427357 10.9729135,4.29427357 Z" id="Shape"></path>
            </g>
        </g>
    </g>
</svg>