<?xml version="1.0" encoding="utf-8"?>
<!-- Generator: Adobe Illustrator 21.0.0, SVG Export Plug-In . SVG Version: 6.00 Build 0)  -->
<svg version="1.1" id="图层_1" xmlns="http://www.w3.org/2000/svg" xmlns:xlink="http://www.w3.org/1999/xlink" x="0px" y="0px"
	 viewBox="0 0 29.8 33.3" style="enable-background:new 0 0 29.8 33.3;" xml:space="preserve">
<style type="text/css">
	.st0{fill:none;stroke:#FF9700;stroke-miterlimit:10;}
	.st1{fill:#FF9700;}
</style>
<path class="st0" d="M27.5,7.9H24c-1.6-4.2-5.1-7.2-9-7.2s-7.5,3-9.1,7.2H2.3c-0.9,0-1.6,0.7-1.6,1.6V31c0,0.9,0.7,1.6,1.6,1.6h25.2
	c0.9,0,1.6-0.5,1.6-1.4V9.7C29.2,8.8,28.5,7.9,27.5,7.9L27.5,7.9z"/>
<path class="st1" d="M9.3,5.3c1.6-1.9,3.5-3,5.6-3s4,0.9,5.6,2.8c0.7,0.9,1.1,1.9,1.6,2.8H7.7C8.2,6.9,8.6,6,9.3,5.3L9.3,5.3z"/>
<path class="st1" d="M23.8,14.2c-0.9,0-1.9-0.7-1.9-1.9c0-0.7,0.2-1.4,0.9-1.6c0-0.2-0.2-0.7-0.2-0.9H7c-0.2,0.3-0.2,0.7-0.2,0.9
	c0.7,0.2,1.2,0.9,1.2,1.6c0,0.9-0.7,1.9-1.9,1.9c-0.9,0-1.9-0.7-1.9-1.9c0-0.7,0.5-1.4,0.9-1.6c0-0.2,0.2-0.7,0.2-0.9H7l15.6,0v0
	h1.7c0,0.3,0.2,0.7,0.2,0.9c0.8,0.1,1.1,0.7,1.2,1.6C25.7,13.2,25,14.2,23.8,14.2L23.8,14.2z"/>
</svg>
