<?xml version="1.0" encoding="utf-8"?>
<!-- Generator: Adobe Illustrator 21.0.0, SVG Export Plug-In . SVG Version: 6.00 Build 0)  -->
<svg version="1.1" id="图层_1" xmlns="http://www.w3.org/2000/svg" xmlns:xlink="http://www.w3.org/1999/xlink" x="0px" y="0px"
	 viewBox="0 0 38.9 38.9" style="enable-background:new 0 0 38.9 38.9;" xml:space="preserve">
<style type="text/css">
	.st0{fill:#FF5444;}
</style>
<path class="st0" d="M19.5,9.8c-0.8,0-1.4,0.6-1.4,1.4v11c0,0.8,0.6,1.4,1.4,1.4c0.8,0,1.4-0.6,1.4-1.4v-11
	C20.8,10.4,20.2,9.8,19.5,9.8z M19.5,0.2C8.8,0.2,0.2,8.8,0.2,19.4c0,10.6,8.6,19.2,19.2,19.2S38.7,30,38.7,19.4
	C38.7,8.8,30.1,0.2,19.5,0.2z M19.5,35.9C10.4,35.9,3,28.5,3,19.4C3,10.3,10.4,3,19.5,3s16.5,7.4,16.5,16.5
	C35.9,28.5,28.6,35.9,19.5,35.9z M19.5,26.3c-0.8,0-1.4,0.6-1.4,1.4c0,0.8,0.6,1.4,1.4,1.4c0.8,0,1.4-0.6,1.4-1.4
	C20.8,26.9,20.2,26.3,19.5,26.3z"/>
</svg>
