<?xml version="1.0" encoding="utf-8"?>
<!-- Generator: Adobe Illustrator 21.0.0, SVG Export Plug-In . SVG Version: 6.00 Build 0)  -->
<svg version="1.1" id="图层_1" xmlns="http://www.w3.org/2000/svg" xmlns:xlink="http://www.w3.org/1999/xlink" x="0px" y="0px"
	 viewBox="0 0 45 40.4" style="enable-background:new 0 0 45 40.4;" xml:space="preserve">
<style type="text/css">
	.st0{fill:none;stroke:#FFFFFF;stroke-width:2;stroke-miterlimit:10;}
	.st1{fill:#FFFFFF;}
</style>
<title>资源 2</title>
<path class="st0" d="M39,22.6c0-0.8,0.2-1.7-1.5-3c-6-4.5-8.5-7.2-13.4-11.5c-0.8-0.8-2.2-0.8-3,0c-4.9,4.2-9,7-13.5,11.5
	C6,21.1,6,21.8,6,22.6c0,3.8,0,2.1,0,13.5c0,1.5,0,3,3,3h7.4c0-0.2,12.2,0,12.2,0H36c1.6-0.2,2.8-1.4,3-3C39,24.7,39,26.4,39,22.6z"
	/>
<path class="st1" d="M24.4,25.6c0.7,0,1.5,0,2.2,0c0.2,0,0.3,0.1,0.3,0.3c0,0.4,0,0.8,0,1.2h-3.7v2h3.7v1.5h-3.7c0,0.1,0,0.2,0,0.3
	c0,0.8,0,1.5,0,2.3c0,0.2-0.1,0.3-0.3,0.3c-0.5,0-0.9,0-1.4,0c-0.2,0-0.3-0.1-0.3-0.3c0-0.8,0-1.5,0-2.3v-0.3h-3.9v-1.5h3.8v-2h-3.9
	c0-0.5,0-0.9,0-1.4c0,0,0.2-0.1,0.3-0.1h3l-4-6.5h0.3c0.5,0,1,0,1.5,0c0.2,0,0.4,0.1,0.5,0.3c1.1,1.9,2.1,3.9,3.2,5.8l0,0
	c1.1-2,2.2-3.9,3.3-5.9c0.1-0.2,0.3-0.3,0.5-0.2c0.5,0,1,0,1.5,0h0.3l-4,6.5H24.4z"/>
<path class="st1" d="M44.9,18.7c0-0.2-0.1-0.4-0.1-0.5l-0.2-0.5c-0.2-0.4-0.1-0.3-0.2-0.4S44.1,17,44.1,17l-0.4-0.3
	c-6.2-5.2-11.6-10-17.8-15.3c-1.9-1.7-4.8-1.7-6.6,0l-8.8,7.4l-9.9,8.4l-0.1,0.1c-0.7,1-0.6,2.4,0.2,3.3c0.9,1,1.9,0.6,2.8,0.2
	c0.2-0.1,0.4-0.2,0.6-0.3c0.1-0.1,0.3-0.2,0.4-0.3c1.8-1.5,3.7-3.1,5.5-4.6l11.1-9.4c0.8-0.8,2-0.8,2.9-0.2c0.1,0.1,0.3,0.2,0.4,0.3
	c5.4,4.5,10.2,8.9,15.6,13.4l0.3,0.2c0.9,0.8,3.5,1.7,4.2,0.7C44.8,20,45,19.3,44.9,18.7z"/>
</svg>
