<?xml version="1.0" encoding="utf-8"?>
<!-- Generator: Adobe Illustrator 21.0.0, SVG Export Plug-In . SVG Version: 6.00 Build 0)  -->
<svg version="1.1" id="图层_1" xmlns="http://www.w3.org/2000/svg" xmlns:xlink="http://www.w3.org/1999/xlink" x="0px" y="0px"
	 viewBox="0 0 47 45.8" style="enable-background:new 0 0 47 45.8;" xml:space="preserve">
<style type="text/css">
	.st0{fill:none;stroke:#FF973A;stroke-width:2;stroke-miterlimit:10;}
	.st1{fill:#FF973A;}
</style>
<path class="st0" d="M34.4,18.3V2.7c0-0.7-0.6-1.3-1.3-1.3H14.6c-0.7,0-1.3,0.6-1.3,1.3v8.5H2.6c-0.7,0-1.3,0.6-1.3,1.3v30.4
	c0,0.7,0.6,1.3,1.3,1.3h10.6h1.1h6.4v-6.9h6.1v6.9h7.4h0.2H44c0.7,0,1.3-0.6,1.3-1.3V19.6c0-0.7-0.6-1.3-1.3-1.3H34.4z"/>
<rect x="4.3" y="27.2" class="st1" width="7.9" height="5"/>
<rect x="4.3" y="17.9" class="st1" width="7.9" height="5"/>
<rect x="18.4" y="27.2" class="st1" width="10.8" height="5"/>
<rect x="18.4" y="17.9" class="st1" width="10.8" height="5"/>
<rect x="18.4" y="8.7" class="st1" width="10.8" height="5"/>
<polygon class="st1" points="42,32.2 35.3,32.2 35.3,23.6 42.1,23.6 42.1,32.2 "/>
</svg>
