<?xml version="1.0" encoding="UTF-8"?>
<svg width="24px" height="24px" viewBox="0 0 24 24" version="1.1" xmlns="http://www.w3.org/2000/svg" xmlns:xlink="http://www.w3.org/1999/xlink">
    <!-- Generator: Sketch 46.2 (44496) - http://www.bohemiancoding.com/sketch -->
    <title>ic_home</title>
    <desc>Created with Sketch.</desc>
    <defs></defs>
    <g id="Symbols" stroke="none" stroke-width="1" fill="none" fill-rule="evenodd">
        <g id="ic_home" fill-rule="nonzero" fill="#8C8C8C">
            <g transform="translate(1.000000, 2.000000)" id="Shape">
                <path d="M21.7899049,5.8452578 C21.7727219,5.76365077 21.7581732,5.71724568 21.7401643,5.67226845 L19.8825291,1.62775961 C19.5619648,0.620463662 18.6359581,0.00331935292 17.5560854,0 L4.50228711,0 C3.40518241,0 2.55396995,0.612803616 2.24587137,1.57720331 L0.247691375,5.72282475 C0.236138975,5.76079896 0.22679304,5.7994675 0.219704634,5.8386191 C-0.309728846,7.52070548 0.135473504,9.3709069 1.36337243,10.5915495 L1.36960528,17.8711458 C1.36832186,19.0451916 2.27812063,19.9981681 3.40200488,20 L18.3273707,19.9902973 C19.4510966,19.9840403 20.3584137,19.0297209 20.3567149,17.8558257 L20.3567149,10.8341176 C21.397234,9.96254245 22.0019008,8.64398918 21.9999888,7.25074843 C22.0010241,6.77380762 21.930128,6.29941693 21.7899049,5.8452578 Z M3.6010883,18.2513661 C3.36105996,18.2513707 3.16607227,18.0489847 3.16462711,17.7983447 L3.15841584,11.6594797 C3.60649759,11.804416 4.07338692,11.875946 4.54245411,11.8715217 C5.79979579,11.8695599 6.99170916,11.2860679 7.79739867,10.2780885 C8.59384035,11.2831301 9.7783115,11.8645068 11.0275797,11.8635658 C12.276848,11.8626249 13.4605147,11.2794644 14.255567,10.273224 C15.0624065,11.2832542 16.2584574,11.8650891 17.5180368,11.8602959 C17.8897193,11.8602282 18.260178,11.8158273 18.6222096,11.7279568 L18.6237624,17.7857469 C18.6210405,18.0369847 18.4263508,18.2397865 18.1857484,18.2420113 L3.6010883,18.2513661 Z M17.4364756,10.0440152 C16.4923708,10.0459254 15.6162534,9.52982666 15.1273869,8.68378922 C15.0772152,8.55746635 15.0067028,8.44110867 14.918925,8.33979094 C14.730531,8.11999373 14.4583493,7.99969232 14.1765856,8.01168491 C13.8929824,8.00311679 13.6202305,8.12611791 13.4312597,8.34779963 C13.3480926,8.44852654 13.279872,8.56179168 13.2288904,8.68378922 C12.7503624,9.52861797 11.8818059,10.0462948 10.9440037,10.0456269 C10.0062016,10.0449589 9.13831794,9.52604532 8.66088716,8.68053569 C8.61338748,8.569205 8.55143852,8.46527837 8.4767956,8.37170057 C8.11171851,7.914079 7.29794064,7.93810507 6.97849818,8.33816418 C6.88692435,8.44537958 6.81336821,8.56808317 6.76095715,8.70105796 C6.26880816,9.53857682 5.39826481,10.0500397 4.45939455,10.0532753 C4.01787362,10.0677611 3.57983139,9.96714275 3.18461127,9.76045754 C2.2954151,9.26593255 1.74040369,8.2966624 1.74258064,7.24209982 C1.74334332,6.92465779 1.79370549,6.60948696 1.89166971,6.30908739 C1.89937511,6.28558472 1.90548295,6.26154029 1.90994746,6.23713431 L3.8342478,2.24467214 C3.87378986,2.12153853 3.99241602,1.74863388 4.59175888,1.74863388 L17.3528519,1.74863388 C17.5977499,1.76452612 18.0218414,1.81120177 18.1711694,2.2767069 L19.9750516,6.20259683 C19.9811442,6.23613322 19.9902234,6.26979475 19.997869,6.29707435 C20.0960709,6.59629334 20.1469548,6.9103054 20.148511,7.22670812 C20.1501735,8.27022474 19.608329,9.23160358 18.7352708,9.73417902 C18.3335547,9.94763845 17.8872998,10.0542909 17.4364756,10.0440152 Z"></path>
            </g>
        </g>
    </g>
</svg>