<?xml version="1.0" encoding="UTF-8"?>
<svg width="24px" height="24px" viewBox="0 0 24 24" version="1.1" xmlns="http://www.w3.org/2000/svg" xmlns:xlink="http://www.w3.org/1999/xlink">
    <!-- Generator: Sketch 46.2 (44496) - http://www.bohemiancoding.com/sketch -->
    <title>ic_home copy</title>
    <desc>Created with Sketch.</desc>
    <defs></defs>
    <g id="Symbols" stroke="none" stroke-width="1" fill="none" fill-rule="evenodd">
        <g id="ic_home-copy" fill-rule="nonzero" fill="#4768F3">
            <g id="ic_home" transform="translate(1.000000, 2.000000)">
                <path d="M21.7899049,5.8452578 C21.7727219,5.76365077 21.7581732,5.71724568 21.7401643,5.67226845 L19.8825291,1.62775961 C19.5619648,0.620463662 18.6359581,0.00331935292 17.5560854,0 L4.50228711,0 C3.40518241,0 2.55396995,0.612803616 2.24587137,1.57720331 L0.247691375,5.72282475 C0.236138975,5.76079896 0.22679304,5.7994675 0.219704634,5.8386191 C-0.309728846,7.52070548 0.135473504,9.3709069 1.36337243,10.5915495 L1.36960528,17.8711458 C1.36832186,19.0451916 2.27812063,19.9981681 3.40200488,20 L18.3273707,19.9902973 C19.4510966,19.9840403 20.3584137,19.0297209 20.3567149,17.8558257 L20.3567149,10.8341176 C21.397234,9.96254245 22.0019008,8.64398918 21.9999888,7.25074843 C22.0010241,6.77380762 21.930128,6.29941693 21.7899049,5.8452578 Z M3.6010883,18.2513661 C3.36105996,18.2513707 3.16607227,18.0489847 3.16462711,17.7983447 L3.15841584,11.6594797 C3.60649759,11.804416 4.07338692,11.875946 4.54245411,11.8715217 C5.79979579,11.8695599 6.99170916,11.2860679 7.79739867,10.2780885 C8.59384035,11.2831301 9.7783115,11.8645068 11.0275797,11.8635658 C12.276848,11.8626249 13.4605147,11.2794644 14.255567,10.273224 C15.0624065,11.2832542 16.2584574,11.8650891 17.5180368,11.8602959 C17.8897193,11.8602282 18.260178,11.8158273 18.6222096,11.7279568 L18.6237624,17.7857469 C18.6210405,18.0369847 18.4263508,18.2397865 18.1857484,18.2420113 L3.6010883,18.2513661 Z" id="Shape"></path>
            </g>
        </g>
    </g>
</svg>