<?xml version="1.0" encoding="UTF-8"?>
<svg width="24px" height="24px" viewBox="0 0 24 24" version="1.1" xmlns="http://www.w3.org/2000/svg" xmlns:xlink="http://www.w3.org/1999/xlink">
    <!-- Generator: Sketch 46.2 (44496) - http://www.bohemiancoding.com/sketch -->
    <title>ic_meg copy</title>
    <desc>Created with Sketch.</desc>
    <defs></defs>
    <g id="Symbols" stroke="none" stroke-width="1" fill="none" fill-rule="evenodd">
        <g id="ic_meg-copy" fill-rule="nonzero" fill="#4768F3">
            <g id="ic_meg" transform="translate(2.000000, 2.000000)">
                <path d="M4.75708675,9.72677596 L16.2429133,9.72677596 L16.2429133,9.72677596 C16.7559647,9.72677596 17.171875,10.1426863 17.171875,10.6557377 C17.171875,11.1687891 16.7559647,11.5846995 16.2429133,11.5846995 L4.75708675,11.5846995 C4.24403534,11.5846995 3.828125,11.1687891 3.828125,10.6557377 C3.828125,10.1426863 4.24403534,9.72677596 4.75708675,9.72677596 Z M3.77271175,5.24590164 L16.8991633,5.24590164 L16.8991633,5.24590164 C17.4122147,5.24590164 17.828125,5.66181198 17.828125,6.17486339 L17.828125,6.17486339 C17.828125,6.68791479 17.4122147,7.10382514 16.8991633,7.10382514 L3.77271175,7.10382514 C3.25966034,7.10382514 2.84375,6.68791479 2.84375,6.17486339 C2.84375,5.66181198 3.25966034,5.24590164 3.77271175,5.24590164 L3.77271175,5.24590164 Z M19.5865385,0 L1.41346154,0 C0.612499993,0 0,0.613207539 0,1.41509434 L0,15.3773585 C0,16.1792453 0.612499993,16.7924528 1.41346154,16.7924528 L6.96634615,16.7924528 L9.46346155,19.5283019 C9.74615385,19.8113207 10.1230769,20 10.5,20 C10.8769231,20 11.2538461,19.8113208 11.5365385,19.5283019 L14.0336538,16.7924528 L19.5865385,16.7924528 C20.3875,16.7924528 21,16.1792453 21,15.3773585 L21,1.41509434 C21,0.660377365 20.3875,0 19.5865385,0 Z" id="Shape"></path>
            </g>
        </g>
    </g>
</svg>