<?xml version="1.0" encoding="UTF-8"?>
<svg width="24px" height="24px" viewBox="0 0 24 24" version="1.1" xmlns="http://www.w3.org/2000/svg" xmlns:xlink="http://www.w3.org/1999/xlink">
    <!-- Generator: Sketch 46.2 (44496) - http://www.bohemiancoding.com/sketch -->
    <title>ic_profile</title>
    <desc>Created with Sketch.</desc>
    <defs></defs>
    <g id="Symbols" stroke="none" stroke-width="1" fill="none" fill-rule="evenodd">
        <g id="ic_profile" fill-rule="nonzero" fill="#8C8C8C">
            <g id="profile">
                <g transform="translate(3.000000, 2.000000)">
                    <path d="M9,9 C11.209139,9 13,7.209139 13,5 C13,2.790861 11.209139,1 9,1 C6.790861,1 5,2.790861 5,5 C5,7.209139 6.790861,9 9,9 Z M9,11 C5.6862915,11 3,8.3137085 3,5 C3,1.6862915 5.6862915,-1 9,-1 C12.3137085,-1 15,1.6862915 15,5 C15,8.3137085 12.3137085,11 9,11 Z" id="Oval-6"></path>
                    <path d="M9,11 C4.92038235,11 1.55399184,14.0536884 1.06189375,18 L16.9381062,18 C16.4460082,14.0536884 13.0796177,11 9,11 Z M18,20 L0,20 C-0.55228475,20 -1,19.5522847 -1,19 C-1,13.4771525 3.4771525,9 9,9 C14.5228475,9 19,13.4771525 19,19 C19,19.5522847 18.5522847,20 18,20 Z" id="Oval"></path>
                </g>
            </g>
        </g>
    </g>
</svg>