<?xml version="1.0" encoding="UTF-8"?>
<svg width="24px" height="22px" viewBox="0 0 24 22" version="1.1" xmlns="http://www.w3.org/2000/svg" xmlns:xlink="http://www.w3.org/1999/xlink">
    <!-- Generator: Sketch 46.2 (44496) - http://www.bohemiancoding.com/sketch -->
    <title>icon_partner plus</title>
    <desc>Created with Sketch.</desc>
    <defs></defs>
    <g id="Symbols" stroke="none" stroke-width="1" fill="none" fill-rule="evenodd">
        <g id="icon_partner-plus">
            <g>
                <g id="icon_partner" fill-rule="nonzero">
                    <path d="M9.83727098,11.4490794 C6.85511693,11.4490794 4.39922537,8.76717461 4.39922537,5.72768255 C4.39922537,2.68819049 6.85511693,0.00628571778 10.0126918,0.00628571778 C13.1702666,0.00628571778 15.6261582,2.50939683 15.6261582,5.72768255 C15.6261582,8.94596826 12.9948458,11.4490794 9.83727098,11.4490794 L9.83727098,11.4490794 Z M9.83727098,1.43663493 C7.55680026,1.43663493 5.62717117,3.40336509 5.62717115,5.72768255 C5.62717113,8.052 7.55680023,10.0187302 9.83727098,10.0187302 C12.1177417,10.0187302 14.0473708,8.052 14.0473708,5.72768255 C14.0473708,3.40336509 12.2931625,1.43663493 9.83727098,1.43663493 L9.83727098,1.43663493 Z" id="Shape" fill="#4768F3"></path>
                    <path d="M18.7837331,21.4615238 C18.7837331,15.5613333 14.7490541,10.9126984 9.83727098,10.9126984 C4.92548787,10.9126984 0.890808875,15.5613333 0.890808875,21.4615238 L18.7837331,21.4615238 Z" id="Shape" fill="#C8D2FB"></path>
                    <path d="M18.7837331,21.9979048 L0.0137047623,21.9979048 L0.0137047623,21.2827302 C0.0137047623,15.203746 4.39922537,10.1975238 9.66185014,10.1975238 C14.9244749,10.1975238 19.3099955,15.203746 19.3099955,21.2827302 L19.3099955,21.9979048 L18.7837331,21.9979048 Z M1.41707135,20.7463492 L18.0820498,20.7463492 C17.9066289,15.5613333 14.2227916,11.627873 9.66185014,11.627873 C5.27632951,11.627873 1.59249218,15.5613333 1.41707135,20.7463492 Z" id="Shape" fill="#4768F3"></path>
                    <path d="M15.1262629,11.2702857 C14.7754212,11.2702857 14.6000004,10.9126984 14.6000004,10.5551111 C14.6000004,10.1975238 14.7754212,9.8399365 15.1262629,9.8399365 C16.8804711,9.8399365 18.4879262,8.29042956 18.4745483,6.32385254 C18.4668011,5.18498651 17.6430739,4.15189281 16.003367,3.22457144 C15.6554192,3.01516476 15.5308024,2.74827067 15.6295166,2.42388916 C15.7775879,1.93731689 16.0262931,1.92132568 16.5908813,2.05419922 C17.1554696,2.18707275 19.7987576,3.63626984 19.7088623,6.44285715 C19.618967,9.24944446 17.7575752,11.2702857 15.1262629,11.2702857 Z" id="Shape" fill="#4768F3"></path>
                    <path d="M22.4675704,19.6735873 L20.888783,19.6735873 C20.5379413,19.6735873 20.1870997,19.316 20.1870997,18.9584127 C20.1870997,18.6008254 20.5379413,18.2432381 20.888783,18.2432381 L21.7658871,18.2432381 C21.4150454,14.3097778 18.6083122,11.2702857 15.2753166,11.2702857 C14.9244749,11.2702857 14.5736333,10.9126984 14.5736333,10.5551111 C14.5736333,10.1975238 14.7490541,10.0187302 15.0998957,10.0187302 C19.4854164,10.0187302 22.9938329,14.1309841 22.9938329,19.1372063 L22.9938329,19.6735873 L22.4675704,19.6735873 Z" id="Shape" fill="#4768F3"></path>
                </g>
                <path d="M23.5,2 L22,2 L22,0.5 C22,0.224 21.776,-4.26325641e-13 21.5,-4.26325641e-13 C21.224,-4.26325641e-13 21,0.224 21,0.5 L21,2 L19.5,2 C19.224,2 19,2.224 19,2.5 C19,2.776 19.224,3 19.5,3 L21,3 L21,4.5 C21,4.776 21.224,5 21.5,5 C21.776,5 22,4.776 22,4.5 L22,3 L23.5,3 C23.776,3 24,2.776 24,2.5 C24,2.224 23.776,2 23.5,2 L23.5,2 Z" id="circle-plus" fill="#5372F3"></path>
            </g>
        </g>
    </g>
</svg>