<?xml version="1.0" encoding="UTF-8"?>
<svg width="15px" height="15px" viewBox="0 0 15 15" version="1.1" xmlns="http://www.w3.org/2000/svg" xmlns:xlink="http://www.w3.org/1999/xlink">
    <!-- Generator: Sketch 46.2 (44496) - http://www.bohemiancoding.com/sketch -->
    <title>icon_record_s</title>
    <desc>Created with Sketch.</desc>
    <defs></defs>
    <g id="Symbols" stroke="none" stroke-width="1" fill="none" fill-rule="evenodd">
        <g id="icon_record_s" fill-rule="nonzero" fill="#10A7F5">
            <g id="交易记录">
                <path d="M12.4882019,0 L2.4981396,0 C1.39449011,0 0.5,0.8394 0.5,1.875 L0.5,15 L1.43263468,15 L3.4972094,13.5939 L5.49503113,15 L7.49317073,13.5939 L9.49131033,15 L11.4891321,13.5939 L13.5537068,15 L14.4863415,15 L14.4863415,1.875 C14.4863415,0.8394 13.5918514,0 12.4882019,0 Z M10.9897561,9.375 L3.99658537,9.375 C3.72161326,9.37566376 3.49808589,9.16591213 3.4972094,8.9064 C3.4972094,8.6475 3.72099086,8.4375 3.99658537,8.4375 L10.9897561,8.4375 C11.2656685,8.4375 11.4894499,8.6475 11.4894499,8.9064 C11.4883984,9.16596051 11.2647801,9.37566405 10.9897561,9.375 L10.9897561,9.375 Z M10.9897561,6.552 L3.99658537,6.552 C3.72143795,6.55249768 3.4979108,6.34247769 3.4972094,6.0828 C3.4972094,5.8242 3.72099086,5.6145 3.99658537,5.6145 L10.9897561,5.6145 C11.2656685,5.6145 11.4894499,5.8242 11.4894499,6.0828 C11.4894499,6.342 11.2656685,6.552 10.9897561,6.552 Z M10.9897561,3.75 L3.99658537,3.75 C3.72099086,3.75 3.4972094,3.54 3.4972094,3.2811 C3.4972094,3.0225 3.72099086,2.8125 3.99658537,2.8125 L10.9897561,2.8125 C11.2656685,2.8125 11.4894499,3.0225 11.4894499,3.2811 C11.4885734,3.54077781 11.2649038,3.75066376 10.9897561,3.75 Z" id="Shape"></path>
            </g>
        </g>
    </g>
</svg>