<?xml version="1.0" encoding="UTF-8"?>
<svg width="25px" height="22px" viewBox="0 0 25 22" version="1.1" xmlns="http://www.w3.org/2000/svg" xmlns:xlink="http://www.w3.org/1999/xlink">
    <!-- Generator: Sketch 48 (47235) - http://www.bohemiancoding.com/sketch -->
    <title>icon_mes</title>
    <desc>Created with Sketch.</desc>
    <defs></defs>
    <g id="首页" stroke="none" stroke-width="1" fill="none" fill-rule="evenodd" transform="translate(-292.000000, -336.000000)">
        <g id="icon_mes" transform="translate(286.000000, 329.000000)">
            <g id="邮箱">
                <path d="M9.11791384,7.81807871 L28.2743764,7.81807871 C28.2743764,7.81807871 29.0483749,7.81807871 29.6288738,8.61666075 C30.2093726,9.41524279 29.8223734,9.81453383 29.8223734,9.81453386 L18.2123961,17.8003545 L6.98941799,10.4134704 C6.98941799,10.4134704 6.60241876,10.0141794 6.79591836,9.21559732 C6.98941799,8.8163063 7.37641722,8.41701525 7.76341648,8.0177242 L8.34391534,7.61843318 L9.11791384,7.81807871 Z" id="Shape" fill="#C6DAFF" fill-rule="nonzero"></path>
                <path d="M17.4871946,17.5488087 L7.45669976,10.7949173 C7.27295215,10.6051714 6.2208461,9.74004845 6.57493781,8.50484256 C6.84264116,7.57099198 7.47127351,7.06937779 8.46083486,7 L28.2201786,7 C28.4039262,7 29.3226642,7 30.0576546,7.94872931 C30.792645,8.89745862 30.4251498,9.65644209 30.2414022,10.0359338 L19.4806932,17.5488087 C19.1266913,17.8132092 18.7888154,17.9454094 18.4670652,17.9454094 C18.1453151,17.9454094 17.8186916,17.8132092 17.4871946,17.5488087 Z M8.37543775,9.65644212 L18.4815558,16.2975474 L27.9715967,9.57565188 C27.9715967,9.57565188 28.305343,9.28552913 28.0733594,8.8714734 C27.8413758,8.45741767 27.0562232,8.51796692 27.0562233,8.5179669 L9.29417576,8.32822106 C8.69974001,8.28714265 8.32696812,8.43144208 8.17586009,8.76111934 C8.02475207,9.0907966 8.09127795,9.38923753 8.37543775,9.65644212 Z" id="Shape" fill="#5592FF" fill-rule="nonzero"></path>
                <path d="M28.0808768,28.9805034 L8.92441421,28.9805034 C7.37641722,28.9805034 6.02191987,27.5829847 6.02191987,25.9858206 L6.02191987,10.0141794 C6.02191987,8.41701522 7.37641722,7.01949661 8.92441421,7.01949664 L28.0808768,7.01949664 C29.6288738,7.01949664 30.9833711,8.41701525 30.9833711,10.0141794 L30.9833711,25.9858206 C30.9833711,27.5829848 29.6288738,28.9805034 28.0808768,28.9805034 Z M8.92441421,8.61666075 C8.15041571,8.61666075 7.56991685,9.21559729 7.56991685,10.0141794 L7.56991685,25.9858206 C7.56991685,26.7844027 8.15041571,27.3833393 8.92441421,27.3833393 L28.0808768,27.3833393 C28.8548753,27.3833393 29.4353742,26.7844027 29.4353742,25.9858206 L29.4353742,10.0141794 C29.4353742,9.21559729 28.8548753,8.61666075 28.0808768,8.61666075 L8.92441421,8.61666075 Z" id="Shape" fill="#5592FF" fill-rule="nonzero"></path>
                <path d="M30.015873,27.5829847 C29.8223734,27.5829847 29.6288738,27.5829847 29.4353742,27.3833393 L20.9213908,16.4028359 C20.7278911,16.2031903 20.7278911,15.6042538 21.1148904,15.4046083 C21.5018896,15.2049628 21.8888889,15.2049628 22.0823885,15.6042538 L30.5963719,26.3851117 C30.7898715,26.7844027 30.7898715,27.1836937 30.4028722,27.3833393 C30.4028722,27.3833393 30.2093726,27.5829848 30.015873,27.5829847 Z" id="Shape" fill="#5592FF" fill-rule="nonzero"></path>
                <path d="M7.37641722,27.5829847 C7.18291759,27.5829847 6.98941799,27.5829847 6.98941799,27.3833393 C6.60241876,27.1836937 6.60241876,26.5847572 6.79591836,26.3851117 L14.7294029,15.6042538 C14.9229025,15.2049628 15.5034014,15.2049628 15.696901,15.4046083 C16.0839002,15.6042538 16.0839002,16.2031904 15.8904006,16.4028359 L7.95691611,27.1836937 C7.76341648,27.3833393 7.56991688,27.5829847 7.37641722,27.5829847 Z" id="Shape" fill="#5592FF" fill-rule="nonzero"></path>
                <rect id="Rectangle-2" x="0" y="0" width="36" height="36"></rect>
            </g>
        </g>
    </g>
</svg>