<?xml version="1.0" encoding="UTF-8"?>
<svg width="15px" height="15px" viewBox="0 0 15 15" version="1.1" xmlns="http://www.w3.org/2000/svg" xmlns:xlink="http://www.w3.org/1999/xlink">
    <!-- Generator: Sketch 46.2 (44496) - http://www.bohemiancoding.com/sketch -->
    <title>icon_gift</title>
    <desc>Created with Sketch.</desc>
    <defs></defs>
    <g id="Symbols" stroke="none" stroke-width="1" fill="none" fill-rule="evenodd">
        <g id="icon_gift" fill-rule="nonzero" fill="#FF6868">
            <g id="礼物">
                <path d="M6.94718425,3.80682 L6.94718425,6.8034685 L0.5,6.8034685 L0.5,4.39699962 C0.5,4.01727165 0.812562474,3.71531927 1.20909697,3.71531927 L4.1481173,3.71531927 C3.35971345,3.55519301 2.76724427,3.23036546 2.74391869,2.63103576 C2.72059314,1.92190519 3.550983,0.778146221 4.75924691,1.03892327 C6.00949683,1.30885039 6.88187268,2.24215772 7.54898367,3.042789 C8.22542485,2.22843261 9.17710763,1.1807494 10.4833389,1.01147305 C11.574975,0.878797015 12.4753415,1.92648023 12.3587137,2.6218857 C12.2607464,3.23036548 11.658947,3.55976806 10.8892036,3.71989431 L13.790903,3.71989431 C14.1827724,3.71989431 14.5,4.02184669 14.5,4.40157467 L14.5,6.80804355 L8.04815058,6.80804355 L8.04815058,6.80804355 L8.03415527,3.77021971 L6.94718425,3.80682 Z M4.89453514,1.66570318 C4.29273575,1.4369514 3.93818726,1.68400334 3.68627123,2.08660649 C3.54631788,2.31535827 3.40169944,2.61731065 3.62095967,2.84148742 C4.19943351,3.41794193 5.79023657,3.37219158 6.85854713,3.26696577 C6.35004995,2.663061 5.73425522,1.9859557 4.89453514,1.66570318 L4.89453514,1.66570318 Z M11.4816727,2.83691237 C11.8968677,2.32450834 11.0851382,1.25852499 10.2127624,1.65197807 C9.3777074,2.03170605 8.77590801,2.64933589 8.25808062,3.25324063 C8.70593132,3.28984092 9.15844717,3.29899098 9.60629788,3.28069085 C10.1521159,3.26239072 11.1644451,3.22579043 11.4816727,2.83691237 L11.4816727,2.83691237 Z M6.99383536,14 L1.73625458,14 C1.3817061,14 1.0971343,13.7254978 1.0971343,13.3777951 L1.09713427,7.28842232 L6.99383536,7.28842232 L6.99383536,14 L6.99383536,14 Z M13.8982006,13.3777951 C13.8982006,13.7254978 13.6136288,14 13.2590803,14 L8.00149947,14 L8.00149947,7.28842232 L13.8982006,7.28842232 L13.8982006,13.3777951 L13.8982006,13.3777951 Z" id="Shape"></path>
            </g>
        </g>
    </g>
</svg>