<?xml version="1.0" encoding="UTF-8"?>
<svg width="19px" height="22px" viewBox="0 0 19 22" version="1.1" xmlns="http://www.w3.org/2000/svg" xmlns:xlink="http://www.w3.org/1999/xlink">
    <!-- Generator: Sketch 46.2 (44496) - http://www.bohemiancoding.com/sketch -->
    <title>icon_costlist</title>
    <desc>Created with Sketch.</desc>
    <defs></defs>
    <g id="Page-1" stroke="none" stroke-width="1" fill="none" fill-rule="evenodd">
        <g id="【首页】1" transform="translate(-110.000000, -240.000000)">
            <g id="Group-Copy" transform="translate(80.000000, 218.000000)">
                <g id="Group-2" transform="translate(22.000000, 22.000000)">
                    <g id="icon_costlist" transform="translate(8.000000, 0.000000)">
                        <g>
                            <path d="M16.5492249,21.9952688 L2.6034339,21.9952688 C1.79263209,21.9952688 0.981830299,21.4761905 0.981830299,20.2650077 L0.981830299,1.57818741 L0.981830299,1.40516129 C1.30615101,0.540030712 1.79263211,0.0209523742 2.6034339,0.0209523742 L12.0087348,0.0209523742 C12.1708952,0.0209523742 12.3330555,0.0209523742 12.4952159,0.193978495 L17.8465078,5.38476189 C18.0086681,5.55778802 18.0086681,5.73081411 18.0086681,5.90384026 L18.0086681,20.4380338 C18.0086681,21.3031644 17.3600267,21.9952688 16.5492249,21.9952688 Z M2.27911319,1.75121351 L2.27911319,20.2650077 C2.27911319,20.6110599 2.44127355,20.6110599 2.6034339,20.6110599 L16.5492249,20.6110599 C16.7113852,20.6110599 16.7113852,20.6110599 16.7113852,20.4380338 L16.7113852,6.24989247 L11.8465744,1.40516129 L2.6034339,1.40516129 C2.6034339,1.40516129 2.44127353,1.40516129 2.27911319,1.75121351 Z" id="Shape" fill="#4768F3" fill-rule="nonzero"></path>
                            <polygon id="Shape" fill="#4768F3" fill-rule="nonzero" points="17.6843474 6.07686635 11.8465744 6.07686635 11.8465744 0.713056832"></polygon>
                            <path d="M18.0086681,16.4584332 L0.981830299,16.4584332 C0.495349222,16.4584332 0.00886814469,16.112381 0.00886814469,15.4202765 L0.00886814469,9.53738864 C0.00886814469,9.01831031 0.333188855,8.49923197 0.981830299,8.49923194 L18.0086681,8.49923194 C18.4951492,8.49923194 18.9816303,8.84528416 18.9816303,9.53738864 L18.9816303,15.4202765 C18.8194699,15.9393548 18.4951492,16.4584332 18.0086681,16.4584332 Z" id="Shape" fill="#C8D2FB" fill-rule="nonzero"></path>
                            <rect id="Rectangle-14" fill="#4768F3" x="5.7" y="12" width="7.6" height="1.39999998"></rect>
                        </g>
                    </g>
                </g>
            </g>
        </g>
    </g>
</svg>