<?xml version="1.0" encoding="UTF-8"?>
<svg width="26px" height="28px" viewBox="0 0 26 28" version="1.1" xmlns="http://www.w3.org/2000/svg" xmlns:xlink="http://www.w3.org/1999/xlink">
    <!-- Generator: Sketch 48 (47235) - http://www.bohemiancoding.com/sketch -->
    <title>icon_list</title>
    <desc>Created with Sketch.</desc>
    <defs></defs>
    <g id="首页" stroke="none" stroke-width="1" fill="none" fill-rule="evenodd" transform="translate(-175.000000, -332.000000)">
        <g id="Group-4" transform="translate(137.000000, 310.000000)">
            <g id="icon_list" transform="translate(33.000000, 19.000000)">
                <g>
                    <g>
                        <polygon id="Shape" fill="#FEE8A9" fill-rule="nonzero" points="17.5966854 18.9008264 7.44832616 11.4051948 17.817302 4.15135772 27.9656613 11.4051948"></polygon>
                        <path d="M17.5966854,19.8680047 C17.3760689,19.8680047 17.3760689,19.8680047 17.1554524,19.6262101 L7.00709313,12.1305785 C6.78647662,12.1305785 6.78647662,11.6469894 6.78647662,11.4051948 C6.78647662,11.1634002 7.00709313,10.9216057 7.22770965,10.6798111 L17.376069,3.18417947 C17.5966855,2.94238489 18.0379185,2.94238489 18.258535,3.18417947 L28.6275108,10.4380165 C28.8481273,10.6798111 29.0687438,10.9216057 29.0687438,11.1634002 C29.0687438,11.4051948 28.8481273,11.6469894 28.6275108,11.8887839 L18.0379185,19.6262101 C18.0379185,19.6262101 17.817302,19.8680047 17.5966854,19.8680047 Z M8.99264171,11.4051948 L17.5966854,17.6918536 L26.4213457,11.4051948 L17.5966854,5.118536 L8.99264171,11.4051948 Z" id="Shape" fill="#FCB900" fill-rule="nonzero"></path>
                        <path d="M17.5966854,25.6710744 L5.46277759,16.7246753 C5.02154459,16.4828808 4.80092807,15.7574971 5.24216107,15.5157025 C5.46277759,15.0321134 5.90401059,15.0321134 6.34524362,15.2739079 L17.817302,23.7367178 L29.7305933,15.2739079 C30.1718263,15.0321133 30.6130593,15.0321133 30.8336758,15.5157025 C31.0542923,15.9992916 31.0542923,16.4828808 30.6130593,16.7246753 L17.5966854,25.6710744 Z" id="Shape" fill="#FCB900" fill-rule="nonzero"></path>
                        <path d="M17.5966854,30.9905549 L5.46277759,22.0441558 C5.02154459,21.8023613 4.80092807,21.3187721 5.24216107,20.835183 C5.46277759,20.3515939 5.90401059,20.3515939 6.34524362,20.5933884 L17.817302,29.0561983 L29.7305933,20.5933884 C30.1718263,20.3515939 30.6130593,20.3515939 30.8336758,20.835183 C31.0542923,21.3187721 31.0542923,21.8023613 30.6130593,22.0441558 L17.5966854,30.9905549 Z" id="Shape" fill="#FCB900" fill-rule="nonzero"></path>
                        <rect id="Rectangle-2" x="0" y="0" width="36" height="36"></rect>
                    </g>
                </g>
            </g>
        </g>
    </g>
</svg>