<?xml version="1.0" encoding="UTF-8"?>
<svg width="9px" height="11px" viewBox="0 0 9 11" version="1.1" xmlns="http://www.w3.org/2000/svg" xmlns:xlink="http://www.w3.org/1999/xlink">
    <!-- Generator: Sketch 46.2 (44496) - http://www.bohemiancoding.com/sketch -->
    <title>icon_lock</title>
    <desc>Created with Sketch.</desc>
    <defs></defs>
    <g id="Symbols" stroke="none" stroke-width="1" fill="none" fill-rule="evenodd">
        <g id="icon_lock" fill="#8C8C8C">
            <g id="licon_lock">
                <path d="M4.5,8 C4.77614237,8 5,7.77614237 5,7.5 C5,7.22385763 4.77614237,7 4.5,7 C4.22385763,7 4,7.22385763 4,7.5 C4,7.77614237 4.22385763,8 4.5,8 Z M7.5,3 C7.5,1.343 6.157,0 4.5,0 C2.843,0 1.5,1.343 1.5,3 L1.5,5 C0.6715,5 0,5.6715 0,6.5 L0,9.5 C0,10.3285 0.6715,11 1.5,11 L7.5,11 C8.3285,11 9,10.3285 9,9.5 L9,6.5 C9,5.6715 8.3285,5 7.5,5 L7.5,3 Z M4.5,1 C5.6045,1 6.5,1.8955 6.5,3 L6.5,5 L2.5,5 L2.5,3 C2.5,1.8955 3.3955,1 4.5,1 Z M7.5,10 L1.5,10 C1.224,10 1,9.7765 1,9.5 L1,6.5 C1,6.224 1.224,6 1.5,6 L7.5,6 C7.7765,6 8,6.224 8,6.5 L8,9.5 C8,9.7765 7.7765,10 7.5,10 Z" id="lock"></path>
            </g>
        </g>
    </g>
</svg>