<?xml version="1.0" encoding="UTF-8"?>
<svg width="10px" height="7px" viewBox="0 0 10 7" version="1.1" xmlns="http://www.w3.org/2000/svg" xmlns:xlink="http://www.w3.org/1999/xlink">
    <!-- Generator: Sketch 46.2 (44496) - http://www.bohemiancoding.com/sketch -->
    <title>icon_list_more</title>
    <desc>Created with Sketch.</desc>
    <defs></defs>
    <g id="Page-1" stroke="none" stroke-width="1" fill="none" fill-rule="evenodd">
        <g id="【订单管理】已发货" transform="translate(-295.000000, -129.000000)" fill="#AEAEAE">
            <g id="Group-3" transform="translate(0.000000, 115.000000)">
                <g id="icon_list_more" transform="translate(295.000000, 14.000000)">
                    <g id="icon_list">
                        <path d="M0.5,1 L9.5,1 C9.776,1 10,0.776 10,0.5 C10,0.224 9.776,0 9.5,0 L0.5,0 C0.224,0 0,0.224 0,0.5 C0,0.776 0.224,1 0.5,1 L0.5,1 Z M0.5,3 L7.5,3 C7.776,3 8,2.776 8,2.5 C8,2.224 7.776,2 7.5,2 L0.5,2 C0.224,2 0,2.224 0,2.5 C0,2.776 0.224,3 0.5,3 L0.5,3 Z M9.5,4 L0.5,4 C0.224,4 0,4.224 0,4.5 C0,4.776 0.224,5 0.5,5 L9.5,5 C9.776,5 10,4.776 10,4.5 C10,4.224 9.776,4 9.5,4 L9.5,4 Z M7.5,6 L0.5,6 C0.224,6 0,6.224 0,6.5 C0,6.776 0.224,7 0.5,7 L7.5,7 C7.776,7 8,6.776 8,6.5 C8,6.224 7.776,6 7.5,6 L7.5,6 Z"></path>
                    </g>
                </g>
            </g>
        </g>
    </g>
</svg>