<?xml version="1.0" encoding="UTF-8"?>
<svg width="8px" height="12px" viewBox="0 0 8 12" version="1.1" xmlns="http://www.w3.org/2000/svg" xmlns:xlink="http://www.w3.org/1999/xlink">
    <!-- Generator: Sketch 46.2 (44496) - http://www.bohemiancoding.com/sketch -->
    <title>icon_mobile</title>
    <desc>Created with Sketch.</desc>
    <defs></defs>
    <g id="Symbols" stroke="none" stroke-width="1" fill="none" fill-rule="evenodd">
        <g id="icon_mobile" fill="#8C8C8C">
            <g>
                <path d="M1,7.5 L7,7.5 L7,8.5 L1,8.5 L1,7.5 Z M4,10.4347826 C3.72385763,10.4347826 3.5,10.201192 3.5,9.91304348 C3.5,9.62489491 3.72385763,9.39130435 4,9.39130435 C4.27614237,9.39130435 4.5,9.62489491 4.5,9.91304348 C4.5,10.201192 4.27614237,10.4347826 4,10.4347826 Z M1.5,0 C0.6715,0 0,0.700695652 0,1.56521739 L0,10.4347826 C0,11.2993043 0.6715,12 1.5,12 L6.5,12 C7.3285,12 8,11.2993043 8,10.4347826 L8,1.56521739 C8,0.700695652 7.3285,0 6.5,0 L1.5,0 Z M6.5,10.9565217 L1.5,10.9565217 C1.224,10.9565217 1,10.7233043 1,10.4347826 L1,1.56521739 C1,1.27721739 1.224,1.04347826 1.5,1.04347826 L6.5,1.04347826 C6.7765,1.04347826 7,1.27721739 7,1.56521739 L7,10.4347826 C7,10.7233043 6.7765,10.9565217 6.5,10.9565217 Z"></path>
            </g>
        </g>
    </g>
</svg>