<?xml version="1.0" encoding="UTF-8"?>
<svg width="15px" height="15px" viewBox="0 0 15 15" version="1.1" xmlns="http://www.w3.org/2000/svg" xmlns:xlink="http://www.w3.org/1999/xlink">
    <!-- Generator: Sketch 46.2 (44496) - http://www.bohemiancoding.com/sketch -->
    <title>icon_bankcard</title>
    <desc>Created with Sketch.</desc>
    <defs></defs>
    <g id="Symbols" stroke="none" stroke-width="1" fill="none" fill-rule="evenodd">
        <g id="icon_bankcard">
            <g>
                <g>
                    <rect id="Rectangle-4" x="0" y="0" width="15" height="15"></rect>
                    <path d="M13.6359984,1.00062923 L1.36265344,1.00062923 C0.621413438,1.00062923 0.0146334375,1.61253513 0.0146334375,2.36044547 L0.0146334375,3.87967113 L14.9856234,3.87967113 L14.9856234,2.36044547 C14.9856384,1.61253513 14.3781984,1.00062923 13.6359984,1.00062923 Z M0.0146484375,11.6380528 C0.0146484375,12.3859327 0.621428438,12.9982036 1.36266844,12.9982036 L13.6360134,12.9982036 C14.3781984,12.9982036 14.9856534,12.3859327 14.9856534,11.6380528 L14.9856534,5.91938788 L0.0146484375,5.91938788 L0.0146484375,11.6380528 Z M12.2608884,9.62794582 L13.3706184,9.62794582 L13.3706184,10.9077228 L12.2608884,10.9077228 L12.2608884,9.62794582 Z M10.8339234,9.62794582 L11.9429934,9.62794582 L11.9429934,10.9077228 L10.8339234,10.9077228 L10.8339234,9.62794582 Z M9.46622344,9.62794582 L10.5762984,9.62794582 L10.5762984,10.9077228 L9.46622344,10.9077228 L9.46622344,9.62794582 Z" id="Shape" fill="#FE673B" fill-rule="nonzero"></path>
                </g>
            </g>
        </g>
    </g>
</svg>