<?xml version="1.0" encoding="UTF-8"?>
<svg width="32px" height="29px" viewBox="0 0 32 29" version="1.1" xmlns="http://www.w3.org/2000/svg" xmlns:xlink="http://www.w3.org/1999/xlink">
    <!-- Generator: Sketch 48 (47235) - http://www.bohemiancoding.com/sketch -->
    <title>icon_nopay</title>
    <desc>Created with Sketch.</desc>
    <defs></defs>
    <g id="首页" stroke="none" stroke-width="1" fill="none" fill-rule="evenodd" transform="translate(-173.000000, -437.000000)">
        <g id="Group-8" transform="translate(137.000000, 415.000000)">
            <g id="icon_no-pay" transform="translate(33.000000, 19.000000)">
                <g>
                    <path d="M7.96152061,30.8073317 C5.60590252,30.8073317 3.95696986,28.9384833 3.95696986,26.836029 L3.95696986,19.3606356 L28.9265216,19.3606356 C29.633207,19.3606356 30.1043307,19.8278477 30.1043307,20.5286658 L30.1043307,27.069635 C30.1043307,29.1720893 28.455398,30.8073316 26.5709035,30.8073317 L7.96152061,30.8073317 Z" id="Shape" fill="#FEC9B9" fill-rule="nonzero"></path>
                    <path d="M24.9804521,31.9835019 L9.34708995,31.9835019 C6.62824434,31.9835019 4.36253968,29.6371049 4.36253968,26.8214286 L4.36253968,9.22345133 C4.36253968,6.40777495 6.62824434,4.06137799 9.34708995,4.06137799 L19.0524089,4.06137799 C19.7179362,4.06137799 20.0506999,4.33985776 20.0506999,4.89681729 C20.0506999,5.45377683 19.7179362,5.72278969 19.0524089,5.70385587 L9.34708995,5.70385587 C7.53452621,5.70385587 5.94853294,7.34633375 5.94853294,9.22345133 L5.94853294,26.5867889 C5.94853294,28.4639065 7.53452621,30.1063843 9.34708995,30.1063843 L24.9804521,30.1063843 C26.7930159,30.1063843 28.3790091,28.4639065 28.3790091,26.5867889 L28.3790091,18.1397598 C28.5079011,17.6640682 28.8040636,17.4262224 29.2674967,17.4262224 C29.7309299,17.4262224 30.0389553,17.6640682 30.1915729,18.1397598 L30.1915729,26.5867889 C29.9650024,29.6371049 27.6992977,31.9835019 24.9804521,31.9835019 Z" id="Shape" fill="#FE673B" fill-rule="nonzero"></path>
                    <path d="M34.2698413,8.51953224 C34.4964117,8.75417195 34.2698413,8.98881162 34.0432708,9.22345133 L23.1678884,17.9051201 C22.9413179,18.1397598 18.1833381,17.6704804 18.1833382,17.6704804 C18.1833382,17.6704804 19.08962,12.9776865 19.3161905,12.7430468 L30.1915729,4.06137799 C30.4181434,3.82673829 30.6447138,3.82673829 30.8712843,4.06137799 L34.2698413,8.51953224 Z" id="Shape" fill="#FEC9B9" fill-rule="nonzero"></path>
                    <path d="M22.488177,18.8436789 C21.8084656,18.8436789 20.4490428,18.8436789 18.1833382,18.6090392 C17.8241261,18.6184188 17.5669684,18.5227166 17.4118652,18.3219327 C17.256762,18.1211488 17.2118257,17.8257848 17.2770563,17.4358407 C18.1833382,12.2737674 18.4099086,12.2737674 18.6364791,12.0391277 L29.5118615,3.35745891 C30.1915729,2.88817953 30.8712842,2.88817953 31.3244252,3.59209861 L34.7229822,8.05025283 C35.1761231,8.51953221 34.9495527,9.458091 34.4964117,9.92737041 L23.6210293,18.6090392 C23.3944589,18.8436789 23.3944589,18.8436789 22.488177,18.8436789 Z M19.5263916,16.610887 C19.7637905,16.9936816 20.1761637,16.9955288 20.6578225,17.0331076 C21.5469979,17.1024807 22.2738607,17.201201 22.7147475,17.201201 L33.1369889,8.75417195 L30.4181433,4.99993678 L19.9959019,13.4469659 C19.8568549,13.734964 19.717808,14.3764526 19.5263916,15.2087281 C19.405904,15.7326065 19.2889928,16.2280924 19.5263916,16.610887 Z" id="Shape" fill="#FE673B" fill-rule="nonzero"></path>
                    <rect id="Rectangle-2" x="0" y="0" width="36" height="36"></rect>
                </g>
            </g>
        </g>
    </g>
</svg>