<?xml version="1.0" encoding="UTF-8"?>
<svg width="15px" height="13px" viewBox="0 0 15 13" version="1.1" xmlns="http://www.w3.org/2000/svg" xmlns:xlink="http://www.w3.org/1999/xlink">
    <!-- Generator: Sketch 48 (47235) - http://www.bohemiancoding.com/sketch -->
    <title>icon_storeinfo</title>
    <desc>Created with Sketch.</desc>
    <defs></defs>
    <g id="商铺管理" stroke="none" stroke-width="1" fill="none" fill-rule="evenodd" transform="translate(-40.000000, -94.000000)">
        <g id="icon_storeinfo" transform="translate(40.000000, 93.000000)">
            <g id="店铺信息">
                <rect id="Rectangle" x="0" y="0" width="15" height="15"></rect>
                <path d="M13.1238161,9.20105066 C12.3017736,9.20538916 11.5580636,8.72431742 11.2396816,7.98229078 C10.9287351,8.72145246 10.1920728,9.20308594 9.37557848,9.20105066 C8.5581739,9.20408296 7.82026427,8.72228072 7.50897309,7.98229078 C7.19041879,8.72472684 6.4460929,9.20588093 5.6236009,9.20105066 C4.80710169,9.20309129 4.07043267,8.72145691 3.7594843,7.98229078 C3.35708193,8.92373001 2.29227386,9.41429452 1.29486996,9.11775583 L1.29486996,13.1574103 C1.29486996,13.5322239 1.72399103,13.9903323 2.10930942,13.9903323 L12.8873543,13.9903323 C13.2726861,13.9903323 13.7005561,13.5322371 13.7005561,13.1574103 L13.7005561,9.12020567 C13.5127526,9.17371527 13.3181594,9.20093349 13.122565,9.20105066 L13.1238161,9.20105066 Z M13.6705426,2.80715805 L1.28483408,2.80715805 L0,6.08372442 C0,7.06362411 0.835721973,7.87817224 1.86410314,7.87817224 C2.8924843,7.87817224 3.74947534,7.08444782 3.74947534,6.08372442 C3.74947534,7.06362411 4.58519731,7.87817224 5.61359193,7.87817224 C6.64198655,7.87817224 7.50021525,7.08444782 7.50021525,6.08372442 C7.50021525,7.06362411 8.33593722,7.87817224 9.36431839,7.87817224 C10.3926996,7.87817224 11.2284215,7.08444782 11.2284215,6.08372442 C11.2284215,7.06362411 12.0641435,7.87817224 13.1138072,7.87817224 C14.1421883,7.87817224 14.9991794,7.08444782 14.9991794,6.08372442 L13.6705291,2.80838298 L13.6705426,2.80715805 Z M13.0700045,2.78755927 L13.1951166,2.91005167 L13.0700045,2.78755927 Z M2.14310314,2.25228065 L12.8560762,2.25228065 C13.0270932,2.25596509 13.1922731,2.19132853 13.3135845,2.07325304 C13.4348958,1.95517755 13.501884,1.79383885 13.4991256,1.62638399 C13.5018914,1.4589246 13.4349065,1.297579 13.3135943,1.17949774 C13.1922821,1.06141647 13.027098,0.99677633 12.8560762,1.00046099 L2.14310314,1.00046099 C1.97208376,0.996776439 1.80690174,1.06141479 1.68558998,1.17949317 C1.56427822,1.29757155 1.49729164,1.45891369 1.50005381,1.62637082 C1.50005381,1.98159878 1.77902691,2.25229382 2.14310314,2.25229382 L2.14310314,2.25228065 Z" id="Shape" fill="#FE673B" fill-rule="nonzero"></path>
            </g>
        </g>
    </g>
</svg>