<?xml version="1.0" encoding="UTF-8"?>
<svg width="21px" height="22px" viewBox="0 0 21 22" version="1.1" xmlns="http://www.w3.org/2000/svg" xmlns:xlink="http://www.w3.org/1999/xlink">
    <!-- Generator: Sketch 46.2 (44496) - http://www.bohemiancoding.com/sketch -->
    <title>icon_goods ob</title>
    <desc>Created with Sketch.</desc>
    <defs></defs>
    <g id="Symbols" stroke="none" stroke-width="1" fill="none" fill-rule="evenodd">
        <g id="icon_goods-ob" fill-rule="nonzero">
            <g id="Shape">
                <path d="M17.6459242,21.0952171 L3.71435132,21.0952171 C1.95086109,21.0952171 0.716417917,19.6774701 0.716417917,18.0825047 L0.716417917,12.4115167 L19.4094145,12.4115167 C19.9384615,12.4115167 20.2911596,12.7659534 20.2911596,13.2976085 L20.2911596,18.2597231 C20.2911596,19.8546885 19.0567164,21.0952171 17.6459242,21.0952171 L17.6459242,21.0952171 Z" fill="#C8D2FB"></path>
                <path d="M16.411481,21.981309 L4.41974742,21.981309 C1.95086109,21.981309 0.0110218175,20.0319068 0.0110218175,17.5508496 L0.0110218175,6.38609189 C0.0110218175,3.90503462 1.95086109,1.95563248 4.41974742,1.95563248 L16.5878301,1.95563248 C19.0567164,1.95563248 20.9965557,3.90503462 20.9965557,6.38609189 L20.9965557,17.5508496 C20.8202067,19.8546885 18.8803674,21.981309 16.411481,21.981309 Z M4.41974742,3.19616111 C2.65625719,3.19616111 1.24546499,4.61390813 1.24546499,6.38609189 L1.24546499,17.5508496 C1.24546499,19.3230334 2.65625719,20.7407804 4.41974742,20.7407804 L16.5878301,20.7407804 C18.3513203,20.7407804 19.7621125,19.3230333 19.7621125,17.5508496 L19.7621125,6.38609189 C19.7621125,4.61390813 18.3513203,3.19616111 16.5878301,3.19616111 L4.41974742,3.19616111 Z" fill="#4768F3"></path>
                <path d="M15.7060849,5.5 L15.7060849,3.90503462 C15.7060849,2.13285086 14.6479908,0.715103846 13.2371986,0.715103846 L7.41768083,0.715103846 C6.00688863,0.715103846 4.94879449,2.13285086 4.94879449,3.90503462 L4.94879449,5.5 L15.7060849,5.5 Z" fill="#C8D2FB"></path>
                <path d="M15.7060849,6.20887351 L4.41974742,6.20887351 L4.41974742,5.67721838 L4.41974742,3.90503462 C4.41974742,1.7784141 5.83053962,0.006230337 7.59402986,0.006230337 L13.4135476,0.006230337 C15.1770379,0.006230337 16.5878301,1.7784141 16.5878301,3.90503462 L16.5878301,6.03165513 L15.7060849,6.20887351 Z M5.65419059,4.79112649 L15.3533869,4.79112649 L15.3533869,3.90503462 C15.3533869,2.48728761 14.4716418,1.42397735 13.4135476,1.42397735 L7.41768083,1.42397735 C6.35958669,1.42397735 5.47784156,2.48728761 5.47784156,3.90503462 L5.47784156,4.79112649 L5.65419059,4.79112649 Z" fill="#4768F3"></path>
                <path d="M18.1749713,6.20887351 L2.65625719,6.20887351 C2.30355915,6.20887351 1.95086109,5.85443677 1.95086109,5.5 C1.95086109,5.14556323 2.30355912,4.79112649 2.65625719,4.79112649 L18.1749713,4.79112649 C18.5276693,4.79112649 18.8803674,5.14556323 18.8803674,5.5 C18.8803674,5.85443677 18.5276693,6.20887351 18.1749713,6.20887351 Z" fill="#4768F3"></path>
                <polygon fill="#4768F3" points="7.206062 12.530253 11.0204914 15.3923298 10.2833525 16.3847527 6.4653961 13.5244481"></polygon>
                <polygon fill="#4768F3" points="9.36104706 15.6351189 15.6743421 8.95044179 16.5684317 9.80463436 10.2551366 16.4893115"></polygon>
            </g>
        </g>
    </g>
</svg>