<?xml version="1.0" encoding="UTF-8"?>
<svg width="31px" height="13px" viewBox="0 0 31 13" version="1.1" xmlns="http://www.w3.org/2000/svg" xmlns:xlink="http://www.w3.org/1999/xlink">
    <!-- Generator: Sketch 48 (47235) - http://www.bohemiancoding.com/sketch -->
    <title>icon_accept</title>
    <desc>Created with Sketch.</desc>
    <defs></defs>
    <g id="入住人详情" stroke="none" stroke-width="1" fill="none" fill-rule="evenodd" transform="translate(-179.000000, -121.000000)">
        <g id="icon_accept" transform="translate(179.000000, 121.000000)">
            <g stroke-width="1" fill-rule="evenodd">
                <rect id="Rectangle-18" fill="#FFCC00" x="6.45833333" y="2.6" width="24.5416667" height="9.1" rx="0.861840023"></rect>
                <path d="M10.3333333,2.13773529 L10.3333333,7.30752941 C10.3333333,8.5735 9.64692928,9.99088235 8.44535314,11.2037059 C7.36555837,12.3178824 6.1067819,13 5.17017249,13 C4.24057474,13 2.9821673,12.3102353 1.88798019,11.2037059 C0.686773091,9.99088235 0,8.56585294 0,7.30752941 L5.12138164e-16,2.13773529 C5.12138164e-16,1.94847059 0.142816328,1.78902941 0.321798031,1.78902941 L0.800804733,1.78138235 C0.843612728,1.78138235 1.84480316,1.75117647 2.87440925,1.30382353 C3.96121567,0.841558824 4.6837851,0.295558824 4.69079676,0.287911765 L4.97679845,0.0680588235 C5.03399879,0.0225588235 5.09821078,0 5.16980346,0 C5.24139614,0 5.30560813,0.0225588235 5.36280847,0.0680588235 L5.64881016,0.287911765 C5.67759485,0.310470588 6.37802221,0.841176471 7.45781698,1.30382353 C8.4877921,1.75117647 9.4886135,1.78138235 9.5314215,1.78138235 L10.0107972,1.78902941 C10.190148,1.78902941 10.3333333,1.94808824 10.3333333,2.13773529 Z" id="Combined-Shape" fill="#FFCC00"></path>
                <path d="M9.5583333,3.11881093 L9.5583333,7.20294834 C9.5583333,8.20306511 9.00063001,9.32279719 8.0243494,10.2809278 C7.14701615,11.1611272 6.12426026,11.7000002 5.36326512,11.7000002 C4.60796695,11.7000002 3.5855109,11.155086 2.69648387,10.2809278 C1.72050311,9.32279719 1.16249997,8.19702394 1.16249997,7.20294834 L1.16249997,3.11881093 C1.16249997,2.96929181 1.27853824,2.84333328 1.42396087,2.84333328 L1.81315381,2.83729211 C1.84793531,2.83729211 2.66140254,2.81342946 3.49795748,2.46002063 C4.3809877,2.09483151 4.96807537,1.6634915 4.97377233,1.65745033 L5.20614871,1.4837665 C5.25262398,1.4478215 5.30479623,1.43000003 5.36296528,1.43000003 C5.42113433,1.43000003 5.47330658,1.4478215 5.51978185,1.4837665 L5.75215823,1.65745033 C5.77554578,1.6752718 6.34464302,2.09452945 7.22197627,2.46002063 C8.05883105,2.81342946 8.87199844,2.83729211 8.90677994,2.83729211 L9.29627272,2.84333328 C9.4419952,2.84333328 9.5583333,2.96898976 9.5583333,3.11881093 Z" id="Path" fill="#FFFFFF"></path>
                <path d="M8.0285017,4.84207497 C8.17383268,4.68865642 8.17383268,4.42819269 8.0285017,4.27516059 C7.95564844,4.19864453 7.86101431,4.16000006 7.75924507,4.16000006 C7.65747583,4.16000006 7.5628417,4.19864453 7.48998845,4.27516059 L4.81957857,7.08693229 L3.61862641,5.82287164 C3.54614869,5.74635559 3.45151456,5.70809756 3.34936979,5.70809756 C3.24760054,5.70809756 3.15296642,5.74635559 3.08011316,5.82287164 C3.0072599,5.8993877 2.97083327,5.99909043 2.97083327,6.10613561 C2.97083327,6.21356724 3.0072599,6.31288353 3.08011316,6.38978603 L4.54994641,7.94483954 C4.62279967,8.02135559 4.71705826,8.06000006 4.81920304,8.06000006 C4.92134781,8.06000006 5.01560641,8.01401314 5.08845967,7.93711064 L8.0285017,4.84207497 Z" id="Shape" fill="#FFCC00" fill-rule="nonzero"></path>
            </g>
            <text id="已认证" font-family="PingFangSC-Medium, PingFang SC" font-size="5" font-weight="400" fill="#FFFFFF">
                <tspan x="10.3333333" y="8.65">已认证</tspan>
            </text>
        </g>
    </g>
</svg>