<?xml version="1.0" encoding="UTF-8"?>
<svg width="26px" height="30px" viewBox="0 0 26 30" version="1.1" xmlns="http://www.w3.org/2000/svg" xmlns:xlink="http://www.w3.org/1999/xlink">
    <!-- Generator: Sketch 48 (47235) - http://www.bohemiancoding.com/sketch -->
    <title>icon_operate</title>
    <desc>Created with Sketch.</desc>
    <defs></defs>
    <g id="首页" stroke="none" stroke-width="1" fill="none" fill-rule="evenodd" transform="translate(-291.000000, -437.000000)">
        <g id="icon_operate" transform="translate(286.000000, 434.000000)">
            <g>
                <path d="M7.25915967,23.1889401 C6.36423529,23.1889401 5.69304202,22.481106 5.69304202,21.5373272 L5.69304202,13.043318 C5.69304202,13.043318 5.69304202,12.8073733 5.91677312,12.8073733 L29.856,12.8073733 L29.856,20.8294931 C29.856,22.2451613 28.7373445,23.1889401 27.6186891,23.1889401 L7.25915967,23.1889401 Z" id="Shape" fill="#B2EBE3" fill-rule="nonzero"></path>
                <path d="M27.6186891,26.1327189 L8.15408404,26.1327189 C6.36423529,26.1327189 5.02184875,24.7170507 5.02184875,22.8294931 L5.02184875,7.96497697 C5.02184875,6.07741935 6.36423529,4.66175116 8.15408404,4.66175116 L27.8424202,4.66175116 C29.6322689,4.66175116 30.9746555,6.07741935 30.9746555,7.96497697 L30.9746555,22.8294931 C30.7509244,24.7170507 29.4085378,26.1327189 27.6186891,26.1327189 Z M8.15408404,6.54930874 C7.48289077,6.54930874 6.8116975,7.25714284 6.81169747,7.96497697 L6.81169747,22.8294931 C6.81169747,23.5373272 7.48289074,24.2451613 8.15408404,24.2451613 L27.8424202,24.2451613 C28.5136135,24.2451613 29.1848067,23.5373272 29.1848067,22.8294931 L29.1848067,7.96497697 C29.1848067,7.25714287 28.5136135,6.54930877 27.8424202,6.54930874 L8.15408404,6.54930874 Z" id="Shape" fill="#1CC3AD" fill-rule="nonzero"></path>
                <path d="M17.9982521,5.84147465 C17.5507899,5.84147465 17.1033277,5.36958526 17.1033277,4.89769584 L17.1033277,3.95391706 C17.1033277,3.48202768 17.5507899,3.01013826 17.9982521,3.01013826 C18.4457143,3.01013826 18.8931765,3.48202765 18.8931765,3.95391706 L18.8931765,4.89769584 C18.8931765,5.36958523 18.4457143,5.84147465 17.9982521,5.84147465 Z M12.1812437,32.9751152 C11.9575126,32.9751152 11.5100504,32.7391705 11.5100504,32.5032258 C11.2863193,32.0313364 11.5100504,31.559447 11.9575126,31.3235023 L17.3270588,28.9640553 L17.3270588,25.4248848 C17.3270588,24.9529954 17.774521,24.481106 18.2219832,24.481106 C18.6694454,24.481106 19.1169076,24.9529954 19.1169076,25.4248848 L19.1169076,30.1437788 L12.6287059,32.9751152 L12.1812437,32.9751152 Z" id="Shape" fill="#1CC3AD" fill-rule="nonzero"></path>
                <path d="M24.0389916,32.9751152 L23.8152605,32.9751152 L17.9982521,30.3797235 C17.3270588,30.1437788 17.1033277,29.6718894 17.3270588,29.2 C17.5507899,28.7281106 17.9982521,28.4921659 18.4457143,28.7281106 L24.2627227,31.3235023 C24.7101849,31.559447 24.933916,32.0313364 24.7101849,32.5032258 C24.4864538,32.7391705 24.2627227,32.9751152 24.0389916,32.9751152 Z" id="Shape" fill="#1CC3AD" fill-rule="nonzero"></path>
                <path d="M27.4860967,11.8781131 C27.7595741,11.4121074 27.7210554,11.0362148 27.3705408,10.7504353 C27.0200261,10.4646558 26.6288026,10.5396301 26.1968703,10.9753581 L22.1608057,16.6619393 C21.9402064,16.9675637 21.7199872,17.1361476 21.5001481,17.167691 C21.280309,17.1992343 20.9916321,17.0835124 20.6341175,16.8205251 L14.3081139,12.7093316 C14.1149407,12.6102277 13.9344764,12.5754197 13.7667211,12.6049075 C13.5989657,12.6343953 13.4686846,12.7263199 13.3758777,12.8806813 L8.46382845,19.0298181 C8.17962166,19.5766813 8.2127756,20.0021014 8.56329026,20.3060784 C8.91380493,20.6100554 9.31039314,20.5242438 9.75305489,20.0486437 L13.7577936,14.9749911 C13.8854414,14.802159 14.009102,14.7051252 14.1287756,14.6838897 C14.2484492,14.6626543 14.3891751,14.6999972 14.5509532,14.7959187 L20.8893867,18.7451837 C21.2712578,18.9445099 21.6034693,19.0074757 21.8860212,18.9340811 C22.1685731,18.8606865 22.4129981,18.6994481 22.6192962,18.4503659 L27.4860967,11.8781131 Z" id="Shape" fill="#1CC3AD" fill-rule="nonzero"></path>
                <rect id="Rectangle-2" x="0" y="0" width="36" height="36"></rect>
            </g>
        </g>
    </g>
</svg>