<?xml version="1.0" encoding="UTF-8"?>
<svg width="12px" height="12px" viewBox="0 0 12 12" version="1.1" xmlns="http://www.w3.org/2000/svg" xmlns:xlink="http://www.w3.org/1999/xlink">
    <!-- Generator: Sketch 46.2 (44496) - http://www.bohemiancoding.com/sketch -->
    <title>icon_time2</title>
    <desc>Created with Sketch.</desc>
    <defs></defs>
    <g id="symbol" stroke="none" stroke-width="1" fill="none" fill-rule="evenodd">
        <g id="icon_time2" fill-rule="nonzero" fill="#FFFFFF">
            <g id="倒计时">
                <path d="M6,8.53744075e-16 C2.69144505,8.53744075e-16 0,2.69144505 0,6 C0,9.30879526 2.6913249,12 6,12 C9.30879526,12 12,9.30879526 12,6 C12,2.6913249 9.30879526,0 6,8.53744075e-16 Z M6,11 C3.24341444,11 1,8.75649491 1,5.99994157 C1,3.24338822 3.24119393,1 6,1 C8.75892294,1 11,3.24116774 11,5.99994157 C11,8.75883226 8.75658556,10.9998831 6,10.9998831 L6,11 Z" id="Shape"></path>
                <path d="M7.62324027,6.19827347 L5.74942269,6.19827347 L5.74942269,3.40192776 C5.74942269,3.18056487 5.58226577,3 5.37465918,3 C5.16715765,3 5.00000073,3.18056487 5.00000073,3.40192776 L5.00000073,6.60020124 C4.99980506,6.70627873 5.0392117,6.80807328 5.10951321,6.88309206 C5.17981472,6.95811083 5.27522402,7.00017842 5.37465918,6.99999943 L7.62324027,6.99999943 C7.83074179,6.99999943 8,6.82156413 8,6.60020124 C7.99789872,6.37670878 7.82874558,6.19827347 7.62324027,6.19827347 Z" id="Shape"></path>
            </g>
        </g>
    </g>
</svg>