<?xml version="1.0" encoding="UTF-8"?>
<svg width="15px" height="15px" viewBox="0 0 15 15" version="1.1" xmlns="http://www.w3.org/2000/svg" xmlns:xlink="http://www.w3.org/1999/xlink">
    <!-- Generator: Sketch 46.2 (44496) - http://www.bohemiancoding.com/sketch -->
    <title>icon_count</title>
    <desc>Created with Sketch.</desc>
    <defs></defs>
    <g id="Symbols" stroke="none" stroke-width="1" fill="none" fill-rule="evenodd">
        <g id="icon_count" fill-rule="nonzero" fill="#39BD9A">
            <g id="统计-(1)">
                <path d="M3.7931442,10.7073025 L2.5070922,10.7073025 C2.12884161,10.7073025 1.75059101,10.4020864 1.75059101,9.94426229 L1.75059101,3.9162444 C1.75059101,3.53472429 2.05319149,3.15320415 2.5070922,3.15320415 L3.7931442,3.15320415 C4.17139479,3.15320415 4.54964539,3.45842026 4.54964539,3.9162444 L4.54964539,9.94426229 C4.54964539,10.4020864 4.1713948,10.7073025 3.7931442,10.7073025 L3.7931442,10.7073025 Z M7.95390071,10.7073025 L6.66784871,10.7073025 C6.28959812,10.7073025 5.91134752,10.4020864 5.91134752,9.94426229 L5.91134752,6.20536511 C5.91134752,5.823845 6.213948,5.44232487 6.66784871,5.44232487 L7.95390071,5.44232487 C8.33215129,5.44232487 8.7104019,5.74754097 8.7104019,6.20536511 L8.7104019,9.94426229 C8.7104019,10.4020864 8.40780142,10.7073025 7.95390071,10.7073025 L7.95390071,10.7073025 Z M12.1903073,10.7073025 L10.9042553,10.7073025 C10.5260047,10.7073025 10.1477541,10.4020864 10.1477541,9.94426229 L10.1477541,1.77973174 C10.1477541,1.39821163 10.4503546,1.0166915 10.9042553,1.0166915 L12.1903073,1.0166915 C12.5685579,1.0166915 12.9468085,1.3219076 12.9468085,1.77973174 L12.9468085,9.94426229 C12.9468085,10.4020864 12.5685579,10.7073025 12.1903073,10.7073025 L12.1903073,10.7073025 Z M14.3841608,12.9964232 L0.615839255,12.9964232 C0.313238777,12.9964232 0.0106383156,12.6912071 0.0106383156,12.3859911 L0.0106383156,12.309687 C0.0106383156,12.0044709 0.313238794,11.6992548 0.615839255,11.6992548 L14.3841608,11.6992548 C14.6867612,11.6992548 14.9893617,12.004471 14.9893617,12.309687 L14.9893617,12.3859911 C14.9893617,12.6912071 14.6867612,12.9964232 14.3841608,12.9964232 L14.3841608,12.9964232 Z" id="Shape"></path>
            </g>
        </g>
    </g>
</svg>