<?xml version="1.0" encoding="UTF-8"?>
<svg width="13px" height="13px" viewBox="0 0 13 13" version="1.1" xmlns="http://www.w3.org/2000/svg" xmlns:xlink="http://www.w3.org/1999/xlink">
    <!-- Generator: Sketch 48 (47235) - http://www.bohemiancoding.com/sketch -->
    <title>icon_partner</title>
    <desc>Created with Sketch.</desc>
    <defs></defs>
    <g id="商铺管理" stroke="none" stroke-width="1" fill="none" fill-rule="evenodd" transform="translate(-41.000000, -243.000000)">
        <g id="Group" transform="translate(20.000000, 75.000000)">
            <g id="Group-3-Copy-5" transform="translate(0.000000, 150.000000)">
                <g id="icon_partner" transform="translate(20.000000, 17.000000)">
                    <g id="员工管理">
                        <rect id="Rectangle" x="0" y="0" width="15" height="15"></rect>
                        <path d="M12.481105,1 L2.51886653,1 C1.68136215,1 1.00000001,1.65437662 1,2.45871144 L1,5.52307364 L2.25644858,5.52307364 C2.4538523,5.5231556 2.61380634,5.67680195 2.61380634,5.86627816 C2.61380634,6.05586366 2.45383807,6.20951001 2.25644858,6.20956465 L1,6.20956465 L1,7.16120762 L2.25644858,7.16120762 C2.4538523,7.16120762 2.61389168,7.3149086 2.61389168,7.5044941 C2.61389168,7.6940796 2.4538523,7.84769862 2.25644858,7.84769863 L1,7.84769863 L1,8.7904217 L2.25644858,8.7904217 C2.4538523,8.7904217 2.61389168,8.94412268 2.61389168,9.13370818 C2.61389168,9.32328001 2.4538523,9.4769127 2.25644858,9.4769127 L1,9.4769127 L1,12.5412749 C1,13.3456097 1.68136214,14 2.51886653,14 L12.481105,14 C13.3186805,14 14,13.3456234 14,12.5412749 L14,2.45871144 C14,1.65437663 13.3186948,1.00000001 12.481105,1 Z M11.079651,11.3089624 L4.44243982,11.3089624 L4.35478227,11.3089624 C4.15746389,11.3089624 3.99742451,11.1553433 3.99742451,10.9658398 C3.99742451,9.47045159 4.95939605,8.18759746 6.3198873,7.6559139 C5.69021225,7.23176091 5.27732713,6.52988888 5.27732713,5.73674152 C5.27732713,4.44470796 6.37181619,3.39356642 7.71713128,3.39356641 C9.06238949,3.39356641 10.1569639,4.44470795 10.1569639,5.73674152 C10.1569639,6.52988888 9.74406454,7.23169262 9.11430416,7.65584559 C10.474895,8.18754281 11.437023,9.47046523 11.437023,10.9658535 C11.4369376,11.1553433 11.2769551,11.3089624 11.079651,11.3089624 Z" id="Shape" fill="#5592FF" fill-rule="nonzero"></path>
                    </g>
                </g>
            </g>
        </g>
    </g>
</svg>