<?xml version="1.0" encoding="UTF-8"?>
<svg width="15px" height="15px" viewBox="0 0 15 15" version="1.1" xmlns="http://www.w3.org/2000/svg" xmlns:xlink="http://www.w3.org/1999/xlink">
    <!-- Generator: Sketch 46.2 (44496) - http://www.bohemiancoding.com/sketch -->
    <title>icon_address_s</title>
    <desc>Created with Sketch.</desc>
    <defs></defs>
    <g id="Symbols" stroke="none" stroke-width="1" fill="none" fill-rule="evenodd">
        <g id="icon_address_s" fill-rule="nonzero" fill="#FCB900">
            <g id="address">
                <path d="M7.49996034,0.500015556 C4.18909692,0.500015556 1.5,2.98372168 1.5,6.05654716 C1.5,7.23072585 1.89589169,8.32154242 2.56783674,9.21959476 C2.60129439,9.2715347 2.62916783,9.32212131 2.66960573,9.36721681 L6.75695944,14.1309293 C6.96049742,14.379709 7.23091897,14.5 7.50138812,14.5 C7.77185726,14.5 8.03948671,14.3810935 8.24442075,14.1309293 L12.3303784,9.36584793 C12.3680083,9.31936798 12.3986897,9.27015026 12.4279751,9.22368586 C13.1027123,8.32426464 13.5,7.23481696 13.5,6.0565316 C13.4972238,2.98369057 10.8122991,0.5 7.50003966,0.5 L7.49996034,0.500015556 Z M7.49996034,8.27915358 C6.17423478,8.27915358 5.09941778,7.2826658 5.09941778,6.05654716 C5.09941778,4.82905963 6.17421892,3.83394074 7.49996034,3.83394074 C8.82430571,3.83394074 9.9005029,4.83042852 9.9005029,6.05654716 C9.89910684,7.2826658 8.82430571,8.27915358 7.49996034,8.27915358 Z" id="Shape"></path>
            </g>
        </g>
    </g>
</svg>