<?xml version="1.0" encoding="UTF-8"?>
<svg width="10px" height="12px" viewBox="0 0 10 12" version="1.1" xmlns="http://www.w3.org/2000/svg" xmlns:xlink="http://www.w3.org/1999/xlink">
    <!-- Generator: Sketch 46.2 (44496) - http://www.bohemiancoding.com/sketch -->
    <title>icon_report</title>
    <desc>Created with Sketch.</desc>
    <defs></defs>
    <g id="Symbols" stroke="none" stroke-width="1" fill="none" fill-rule="evenodd">
        <g id="icon_report" fill="#AEAEAE">
            <path d="M8.5,0 L1.5,0 C0.6715,0 0,0.6715 0,1.5 L0,10.5 C0,11.3285 0.6715,12 1.5,12 L8.5,12 C9.3285,12 10,11.3285 10,10.5 L10,1.5 C10,0.6715 9.3285,0 8.5,0 L8.5,0 Z M9,10.5 C9,10.7765 8.7765,11 8.5,11 L1.5,11 C1.224,11 1,10.7765 1,10.5 L1,1.5 C1,1.224 1.224,1 1.5,1 L8.5,1 C8.7765,1 9,1.224 9,1.5 L9,10.5 L9,10.5 Z M7.5,9 L3.5,9 C3.224,9 3,9.224 3,9.5 C3,9.776 3.224,10 3.5,10 L7.5,10 C7.776,10 8,9.776 8,9.5 C8,9.224 7.776,9 7.5,9 L7.5,9 Z M7.5,7 L3.5,7 C3.224,7 3,7.224 3,7.5 C3,7.776 3.224,8 3.5,8 L7.5,8 C7.776,8 8,7.776 8,7.5 C8,7.224 7.776,7 7.5,7 L7.5,7 Z M7.5,5 L3.5,5 C3.224,5 3,5.224 3,5.5 C3,5.776 3.224,6 3.5,6 L7.5,6 C7.776,6 8,5.776 8,5.5 C8,5.224 7.776,5 7.5,5 L7.5,5 Z M3.5,4 L5.5,4 C5.776,4 6,3.776 6,3.5 C6,3.224 5.776,3 5.5,3 L3.5,3 C3.224,3 3,3.224 3,3.5 C3,3.776 3.224,4 3.5,4 L3.5,4 Z"></path>
        </g>
    </g>
</svg>