<?xml version="1.0" encoding="UTF-8"?>
<svg width="15px" height="15px" viewBox="0 0 15 15" version="1.1" xmlns="http://www.w3.org/2000/svg" xmlns:xlink="http://www.w3.org/1999/xlink">
    <!-- Generator: Sketch 46.2 (44496) - http://www.bohemiancoding.com/sketch -->
    <title>icon_analysis_s</title>
    <desc>Created with Sketch.</desc>
    <defs></defs>
    <g id="Symbols" stroke="none" stroke-width="1" fill="none" fill-rule="evenodd">
        <g id="icon_analysis_s" fill-rule="nonzero" fill="#FE673B">
            <g id="分析">
                <path d="M12.9667304,1.00000677 C14.0201855,0.997321221 14.9066828,1.7908891 14.9909267,2.81207303 C15.0763261,3.84825306 14.340706,4.75332477 13.2807352,4.9248022 C13.0368088,4.96439788 12.7963275,4.95940277 12.5589061,4.90596042 C12.4654718,4.8848198 12.43024,4.91211569 12.3892628,4.98170354 C11.6448375,6.24202991 10.9007973,7.50275375 10.1490859,8.7588477 C10.0713577,8.88880661 10.1667071,8.90841108 10.2314253,8.95878117 C10.7476197,9.3594108 10.9869563,9.88384407 10.901942,10.5205439 C10.8130976,11.1860864 10.4278696,11.6516955 9.78415386,11.8916007 C9.09640107,12.1476728 8.32823464,11.9385118 7.86105233,11.3860092 C7.39156974,10.830821 7.32762185,10.0653225 7.70864515,9.44591758 C7.77373784,9.3401823 7.77565296,9.29443135 7.66574218,9.21522925 C6.61344255,8.45433909 5.56611794,7.68653097 4.52031259,6.91718672 C4.43262363,6.85259399 4.36753095,6.83913403 4.26413586,6.88796799 C4.02518451,7.00022379 3.765552,7.04329993 3.50285958,7.00522963 C3.38912927,6.98869742 3.34240675,7.02522083 3.29147954,7.11172762 C2.9790047,7.64577514 2.66461473,8.17866251 2.3444794,8.70848836 C2.28512138,8.80690822 2.28243594,8.86535643 2.36133032,8.96493644 C2.71401199,9.40977016 2.75880868,9.89575716 2.49344152,10.3959776 C2.24950443,10.8554206 1.71186924,11.1334068 1.18915915,11.0649684 C0.628927682,10.9915348 0.240629069,10.6900985 0.064855271,10.1595099 C-0.24110388,9.23407103 0.583735121,8.32208136 1.56405193,8.50009004 C1.67433717,8.52009198 1.72488992,8.4897131 1.77696193,8.40013405 C2.07297102,7.89107284 2.37166556,7.38317178 2.67800987,6.87988987 C2.74464321,6.77069559 2.74311325,6.71379427 2.6404885,6.62229237 C2.15531048,6.19167057 2.01553881,5.52536531 2.2732455,4.94825239 C2.53020325,4.37268633 3.12758163,4.02204007 3.77818751,4.06433203 C4.39547673,4.10470114 4.93389294,4.53569892 5.10965602,5.13396321 C5.2279869,5.53651569 5.17705969,5.92137581 4.95992359,6.2801002 C4.90249138,6.37468511 4.91894644,6.41620363 5.00243069,6.47657468 C6.06240151,7.24706835 7.1204465,8.02025831 8.17735742,8.79538186 C8.24705067,8.84651464 8.29797789,8.86380955 8.38337726,8.81690918 C8.67594127,8.65580869 8.99568074,8.59236538 9.32884744,8.62466711 C9.44792725,8.63620421 9.49656488,8.59351479 9.55133303,8.5004875 C10.2854125,7.25475975 11.022188,6.01057888 11.7635535,4.76908355 C11.8301761,4.65757971 11.8328616,4.60298795 11.7195057,4.51648117 C11.0443992,4.00128618 10.7874414,3.12042734 11.0677551,2.32685947 C11.3449981,1.53943612 12.11432,1.00231634 12.9667304,1.00001751 L12.9667304,1.00000677 Z" id="Shape"></path>
            </g>
        </g>
    </g>
</svg>