<?xml version="1.0" encoding="UTF-8"?>
<svg width="13px" height="13px" viewBox="0 0 13 13" version="1.1" xmlns="http://www.w3.org/2000/svg" xmlns:xlink="http://www.w3.org/1999/xlink">
    <!-- Generator: Sketch 46.2 (44496) - http://www.bohemiancoding.com/sketch -->
    <title>icon_sys_meg</title>
    <desc>Created with Sketch.</desc>
    <defs></defs>
    <g id="Symbols" stroke="none" stroke-width="1" fill="none" fill-rule="evenodd">
        <g id="icon_sys_meg" fill-rule="nonzero" fill="#FFFFFF">
            <g id="Shape">
                <path d="M12.4952702,5.50078829 L11.8962302,5.50078829 C11.6032782,5.48788426 11.3471121,5.29936651 11.2476761,5.02350439 L10.9035122,4.18744585 C10.7777272,3.92350616 10.8242548,3.60968581 11.0212098,3.3935961 L11.4465444,2.96907317 C11.6403939,2.77327078 11.6403939,2.45787849 11.4465444,2.2620761 L10.7387356,1.55589073 C10.5439487,1.36188143 10.2289606,1.36188143 10.0341737,1.55589073 L9.6064039,1.98041366 C9.39087127,2.17785902 9.07695225,2.22444884 8.81336585,2.09811122 L7.97730732,1.75313561 C7.70184663,1.65362763 7.51346549,1.3979675 7.50002341,1.10539317 L7.50002341,0.506353171 C7.49913026,0.230258407 7.27529585,0.00678677637 6.9992,0.00634146341 L6.0008,0.00634146341 C5.72515353,0.00723461398 5.50204531,0.230705613 5.5016,0.506353171 L5.5016,1.10539317 C5.4887214,1.39791553 5.30054457,1.65373343 5.0251278,1.75313561 L4.18906927,2.09729951 C3.92533939,2.22447358 3.61070538,2.17782538 3.39521951,1.97960195 L2.96907317,1.55507902 C2.77373044,1.36088183 2.45823054,1.36088183 2.2628878,1.55507902 L1.55670244,2.26126439 C1.46282047,2.35478498 1.41004764,2.48184321 1.41004764,2.61435707 C1.41004764,2.74687094 1.46282047,2.87392917 1.55670244,2.96744976 L1.98041366,3.39278439 C2.17863709,3.60827026 2.22528528,3.92290427 2.09811122,4.18663415 L1.75475902,5.0243161 C1.65477162,5.29976617 1.39892751,5.48804695 1.10620488,5.5016 L0.505541463,5.50078829 C0.229894993,5.50168144 0.00678677156,5.72515244 0.00634146341,6.0008 L0.00634146341,6.9992 C0.00634146341,7.27355707 0.23118439,7.4984 0.506353171,7.4984 L1.10701659,7.4984 C1.39941807,7.51250844 1.65463075,7.70111606 1.75394732,7.97649561 L2.09811122,8.81255415 C2.2296078,9.05444293 2.17522341,9.41240585 1.98041366,9.6064039 L1.55589073,10.0309268 C1.36204117,10.2267292 1.36204117,10.5421215 1.55589073,10.7379239 L2.2628878,11.444921 C2.45769756,11.638919 2.77426341,11.638919 2.96907317,11.444921 L3.3944078,11.020398 C3.58921756,10.8264 3.94555707,10.7728273 4.18663415,10.9035122 L5.0243161,11.2484878 C5.29946881,11.3477778 5.48758824,11.6031972 5.50078829,11.8954185 L5.50078829,12.4936468 C5.50212077,12.7692419 5.72520497,12.9923261 6.0008,12.9936585 L6.9992,12.9936585 C7.27518049,12.9936585 7.50002341,12.7688156 7.50002341,12.4944585 L7.50002341,11.8962302 C7.50002341,11.6218732 7.71593756,11.3304702 7.97730732,11.2492995 L8.81580098,10.9043239 C9.05687805,10.773639 9.41321756,10.8264 9.60883902,11.0212098 L10.033362,11.4457327 C10.2281489,11.639742 10.543137,11.639742 10.7379239,11.4457327 L11.4457327,10.7387356 C11.6395822,10.5429332 11.6395822,10.2275409 11.4457327,10.0317385 L11.020398,9.60721561 C10.8236523,9.39102663 10.7771446,9.07733984 10.9027005,8.81336585 L11.2468644,7.97730732 C11.3472163,7.70213018 11.6028481,7.51400569 11.8954185,7.50002341 L12.4944585,7.50002341 C12.7696567,7.49913027 12.9924015,7.27602268 12.9928468,7.00082341 L12.9928468,6.0008 C12.9932961,5.72541547 12.7706537,5.50168349 12.4952702,5.50078829 L12.4952702,5.50078829 Z M6.50162341,8.996 C5.1222242,8.99555163 4.00436365,7.87696418 4.00481197,6.49756497 C4.00526029,5.11816575 5.1238477,4.00030517 6.50324692,4.00075343 C7.88264613,4.0012017 9.00050676,5.11978908 9.00005854,6.49918829 C8.99984329,7.16159922 8.73649513,7.79679401 8.26794765,8.26503704 C7.79940017,8.73328007 7.16403434,8.99621531 6.50162341,8.996 Z"></path>
            </g>
        </g>
    </g>
</svg>