<?xml version="1.0" encoding="UTF-8"?>
<svg width="23px" height="22px" viewBox="0 0 23 22" version="1.1" xmlns="http://www.w3.org/2000/svg" xmlns:xlink="http://www.w3.org/1999/xlink">
    <!-- Generator: Sketch 46.2 (44496) - http://www.bohemiancoding.com/sketch -->
    <title>icon_enter bussiness</title>
    <desc>Created with Sketch.</desc>
    <defs></defs>
    <g id="Symbols" stroke="none" stroke-width="1" fill="none" fill-rule="evenodd">
        <g id="icon_enter-bussiness" fill-rule="nonzero">
            <g id="Shape">
                <path d="M14.4123072,7.99628696 L8.58769276,7.99628696 C7.73113179,7.99628696 7.04588305,7.28741345 7.04588303,6.40132159 L7.04588303,1.61642543 C7.04588303,0.73033354 7.73113179,0.0214600551 8.58769276,0.0214600308 L14.4123072,0.0214600308 C15.2688682,0.0214600308 15.9541169,0.73033354 15.954117,1.61642543 L15.954117,6.40132159 C15.954117,7.28741348 15.2688682,7.99628696 14.4123072,7.99628696 Z M8.58769276,1.43920705 C8.41638056,1.43920705 8.41638056,1.43920705 8.41638056,1.61642543 L8.41638056,6.40132159 C8.41638056,6.57853997 8.41638056,6.57853997 8.58769276,6.57853997 L14.4123072,6.57853997 C14.5836194,6.57853997 14.5836194,6.57853997 14.5836194,6.40132159 L14.5836194,1.61642543 C14.5836194,1.43920705 14.5836194,1.43920705 14.4123072,1.43920705 L8.58769276,1.43920705 Z" fill="#5372F3"></path>
                <path d="M21.4361071,21.2876652 L15.6114926,21.2876652 C15.097556,21.2876652 14.7549316,20.9332285 14.7549316,20.4015733 L14.7549316,15.4394588 C14.7549316,14.9078036 15.097556,14.5533669 15.6114926,14.5533669 L21.4361071,14.5533669 C21.9500436,14.5533669 22.292668,14.9078036 22.292668,15.4394588 L22.292668,20.2243549 C22.292668,20.7560101 21.9500437,21.2876652 21.4361071,21.2876652 Z" fill="#C8D2FB"></path>
                <path d="M21.4361071,21.9965387 L15.6114926,21.9965387 C14.7549316,21.9965387 14.0696829,21.2876652 14.0696829,20.4015733 L14.0696829,15.4394588 C14.0696829,14.5533669 14.7549316,13.8444934 15.6114926,13.8444934 L21.4361071,13.8444934 C22.292668,13.8444934 22.9779168,14.5533669 22.9779168,15.4394588 L22.9779168,20.2243549 C22.9779168,21.1104468 22.292668,21.9965387 21.4361071,21.9965387 L21.4361071,21.9965387 Z M15.6114926,15.2622404 C15.4401804,15.2622404 15.4401804,15.2622404 15.4401804,15.4394588 L15.4401804,20.4015733 C15.4401804,20.5787917 15.4401804,20.5787917 15.6114926,20.5787917 L21.4361071,20.5787917 C21.6074193,20.5787917 21.6074193,20.4015733 21.6074193,20.2243549 L21.6074193,15.4394588 C21.6074193,15.2622404 21.6074193,15.2622404 21.4361071,15.2622404 L15.6114926,15.2622404 Z" fill="#5372F3"></path>
                <path d="M7.38850742,21.2876652 L1.56389294,21.2876652 C1.04995637,21.2876652 0.707331976,20.9332285 0.707331976,20.4015733 L0.707331976,15.6166772 C0.707331976,15.085022 1.04995635,14.7305853 1.56389294,14.7305853 L7.38850742,14.7305853 C7.90244399,14.7305853 8.24506839,15.085022 8.24506836,15.6166772 L8.24506836,20.4015733 C8.24506836,20.9332284 7.73113179,21.2876652 7.38850742,21.2876652 Z" fill="#C8D2FB"></path>
                <path d="M7.38850742,21.9965387 L1.56389294,21.9965387 C0.707331976,21.9965387 0.0220832322,21.2876652 0.0220832088,20.4015733 L0.0220832088,15.6166772 C0.0220832088,14.7305853 0.707331976,14.0217118 1.56389294,14.0217118 L7.38850742,14.0217118 C8.24506839,14.0217118 8.93031713,14.7305853 8.93031713,15.6166772 L8.93031713,20.4015733 C8.93031713,21.2876652 8.07375617,21.9965387 7.38850742,21.9965387 L7.38850742,21.9965387 Z M1.56389294,15.4394588 C1.39258074,15.4394588 1.39258074,15.4394588 1.39258074,15.6166772 L1.39258074,20.4015733 C1.39258074,20.5787917 1.39258074,20.5787917 1.56389294,20.5787917 L7.38850742,20.5787917 L7.55981962,20.4015733 L7.55981962,15.6166772 C7.55981962,15.4394588 7.55981962,15.4394588 7.38850742,15.4394588 L1.56389294,15.4394588 Z M10.9860634,7.46463184 L12.0139366,7.46463184 L12.0139366,10.6545626 L10.9860634,10.6545626 L10.9860634,7.46463184 Z M18.1811754,11.3634361 L19.0377364,11.3634361 L19.0377364,14.1989301 L18.1811754,14.1989301 L18.1811754,11.3634361 Z" fill="#5372F3"></path>
                <polygon fill="#5372F3" points="3.96226361 11.1862177 4.99013675 11.1862177 4.99013675 14.3761485 3.96226361 14.3761485"></polygon>
                <polygon fill="#5372F3" points="3.96226361 10.3001259 19.0377364 10.3001259 19.0377364 11.3634361 3.96226361 11.3634361"></polygon>
            </g>
        </g>
    </g>
</svg>