<?xml version="1.0" encoding="UTF-8"?>
<svg width="44px" height="44px" viewBox="0 0 44 44" version="1.1" xmlns="http://www.w3.org/2000/svg" xmlns:xlink="http://www.w3.org/1999/xlink">
    <!-- Generator: Sketch 46.2 (44496) - http://www.bohemiancoding.com/sketch -->
    <title>icon_nodata</title>
    <desc>Created with Sketch.</desc>
    <defs></defs>
    <g id="Symbols" stroke="none" stroke-width="1" fill="none" fill-rule="evenodd">
        <g id="icon_nodata" fill-rule="nonzero" fill="#E2E2E2">
            <g id="Shape">
                <path d="M34.6493525,19.2649307 L34.6493525,43.9972468 L37.3142381,43.9972468 L37.3142381,19.2649307 L34.6493525,19.2649307 Z M29.3195814,9.64658424 L17.3273454,9.64658424 C16.5914776,9.64658424 15.9946516,10.2618485 15.9946516,11.02049 C15.9946516,11.7791315 16.5914776,12.3943957 17.3273454,12.3943957 L29.3195814,12.3943957 C30.0554492,12.3943957 30.6522752,11.7791315 30.6522752,11.02049 C30.6522752,10.2618485 30.0554492,9.64658424 29.3195814,9.64658424 Z M29.3195814,19.2649307 L17.3273454,19.2649307 C16.5914776,19.2649307 15.9946516,19.879692 15.9946516,20.6388365 C15.9946516,21.397478 16.5914776,22.0127423 17.3273454,22.0127423 L29.3195814,22.0127423 C30.0554492,22.0127423 30.6522752,21.397478 30.6522752,20.6388365 C30.6522752,19.8796919 30.0554492,19.2649307 29.3195814,19.2649307 Z M29.3195814,26.1350129 L7.99999494,26.1350129 C7.26412712,26.1350129 6.66780312,26.7502269 6.66780312,27.5089187 C6.66780312,28.2676104 7.26412712,28.8828244 7.99999494,28.8828244 L29.3195814,28.8828244 C30.0554492,28.8828244 30.6522752,28.2676104 30.6522752,27.5089187 C30.6522752,26.7502269 30.0554492,26.1350129 29.3195814,26.1350129 Z M29.3195814,33.0049946 L7.99999494,33.0049946 C7.26412712,33.0049946 6.66780312,33.6202589 6.66780312,34.3789003 C6.66780312,35.1380952 7.26412712,35.7533091 7.99999494,35.7533091 L29.3195814,35.7533091 C30.0554492,35.7533091 30.6522752,35.1380951 30.6522752,34.3789003 C30.6522752,33.6203091 30.0554492,33.0049946 29.3195814,33.0049946 Z M10.6648805,9.64658424 L7.99999499,9.64658424 C7.26412717,9.64658424 6.66780317,10.2618485 6.66780317,11.02049 C6.66780317,11.7791315 7.26412717,12.3943957 7.99999499,12.3943957 L10.6648805,12.3943957 C11.4007484,12.3943957 11.9975743,11.7791315 11.9975743,11.02049 C11.9975743,10.2618485 11.4007483,9.64658424 10.6648805,9.64658424 Z M10.6648805,19.2649307 L7.99999499,19.2649307 C7.26412717,19.2649307 6.66780317,19.879692 6.66780317,20.6388365 C6.66780317,21.397478 7.26412717,22.0127423 7.99999499,22.0127423 L10.6648805,22.0127423 C11.4007484,22.0127423 11.9975743,21.397478 11.9975743,20.6388365 C11.9975743,19.8796919 11.4007483,19.2649307 10.6648805,19.2649307 Z"></path>
                <polygon points="37.3141879 0.0282377251 37.3141879 19.2649307 34.6493525 19.2649307 34.6493525 2.77604923 2.67022383 2.77604923 2.67022383 41.2494353 34.6493525 41.2494353 34.6493525 43.9972468 0.00533827425 43.9972468 0.00533827425 0.0282377251"></polygon>
                <path d="M29.3195814,9.64658424 L17.3273454,9.64658424 C16.5914776,9.64658424 15.9946516,10.2618485 15.9946516,11.02049 C15.9946516,11.7791315 16.5914776,12.3943957 17.3273454,12.3943957 L29.3195814,12.3943957 C30.0554492,12.3943957 30.6522752,11.7791315 30.6522752,11.02049 C30.6522752,10.2618485 30.0554492,9.64658424 29.3195814,9.64658424 Z M29.3195814,19.2649307 L17.3273454,19.2649307 C16.5914776,19.2649307 15.9946516,19.879692 15.9946516,20.6388365 C15.9946516,21.397478 16.5914776,22.0127423 17.3273454,22.0127423 L29.3195814,22.0127423 C30.0554492,22.0127423 30.6522752,21.397478 30.6522752,20.6388365 C30.6522752,19.8796919 30.0554492,19.2649307 29.3195814,19.2649307 Z M29.3195814,26.1350129 L7.99999494,26.1350129 C7.26412712,26.1350129 6.66780312,26.7502269 6.66780312,27.5089187 C6.66780312,28.2676104 7.26412712,28.8828244 7.99999494,28.8828244 L29.3195814,28.8828244 C30.0554492,28.8828244 30.6522752,28.2676104 30.6522752,27.5089187 C30.6522752,26.7502269 30.0554492,26.1350129 29.3195814,26.1350129 Z M29.3195814,33.0049946 L7.99999494,33.0049946 C7.26412712,33.0049946 6.66780312,33.6202589 6.66780312,34.3789003 C6.66780312,35.1380952 7.26412712,35.7533091 7.99999494,35.7533091 L29.3195814,35.7533091 C30.0554492,35.7533091 30.6522752,35.1380951 30.6522752,34.3789003 C30.6522752,33.6203091 30.0554492,33.0049946 29.3195814,33.0049946 Z M10.6648805,9.64658424 L7.99999499,9.64658424 C7.26412717,9.64658424 6.66780317,10.2618485 6.66780317,11.02049 C6.66780317,11.7791315 7.26412717,12.3943957 7.99999499,12.3943957 L10.6648805,12.3943957 C11.4007484,12.3943957 11.9975743,11.7791315 11.9975743,11.02049 C11.9975743,10.2618485 11.4007483,9.64658424 10.6648805,9.64658424 Z M10.6648805,19.2649307 L7.99999499,19.2649307 C7.26412717,19.2649307 6.66780317,19.879692 6.66780317,20.6388365 C6.66780317,21.397478 7.26412717,22.0127423 7.99999499,22.0127423 L10.6648805,22.0127423 C11.4007484,22.0127423 11.9975743,21.397478 11.9975743,20.6388365 C11.9975743,19.8796919 11.4007483,19.2649307 10.6648805,19.2649307 Z"></path>
                <path d="M29.3195814,9.64658424 L17.3273454,9.64658424 C16.5914776,9.64658424 15.9946516,10.2618485 15.9946516,11.02049 C15.9946516,11.7791315 16.5914776,12.3943957 17.3273454,12.3943957 L29.3195814,12.3943957 C30.0554492,12.3943957 30.6522752,11.7791315 30.6522752,11.02049 C30.6522752,10.2618485 30.0554492,9.64658424 29.3195814,9.64658424 Z"></path>
                <path d="M29.3195814,26.1350129 L7.99999494,26.1350129 C7.26412712,26.1350129 6.66780312,26.7502269 6.66780312,27.5089187 C6.66780312,28.2676104 7.26412712,28.8828244 7.99999494,28.8828244 L29.3195814,28.8828244 C30.0554492,28.8828244 30.6522752,28.2676104 30.6522752,27.5089187 C30.6522752,26.7502269 30.0554492,26.1350129 29.3195814,26.1350129 Z"></path>
                <path d="M29.3195814,33.0049946 L7.99999494,33.0049946 C7.26412712,33.0049946 6.66780312,33.6202589 6.66780312,34.3789003 C6.66780312,35.1380952 7.26412712,35.7533091 7.99999494,35.7533091 L29.3195814,35.7533091 C30.0554492,35.7533091 30.6522752,35.1380951 30.6522752,34.3789003 C30.6522752,33.6203091 30.0554492,33.0049946 29.3195814,33.0049946 Z"></path>
                <path d="M34.6493525,19.2649307 L34.6493525,43.9972468 L43.976703,43.9972468 L43.976703,19.2649307 L34.6493525,19.2649307 Z M41.3118174,41.2494353 L37.3141879,41.2494353 L37.3141879,22.0127423 L41.3118174,22.0127423 L41.3118174,41.2494353 Z"></path>
                <path d="M10.6648805,9.64658424 L7.99999499,9.64658424 C7.26412717,9.64658424 6.66780317,10.2618485 6.66780317,11.02049 C6.66780317,11.7791315 7.26412717,12.3943957 7.99999499,12.3943957 L10.6648805,12.3943957 C11.4007484,12.3943957 11.9975743,11.7791315 11.9975743,11.02049 C11.9975743,10.2618485 11.4007483,9.64658424 10.6648805,9.64658424 Z"></path>
                <path d="M29.3195814,19.2649307 L17.3273454,19.2649307 C16.5914776,19.2649307 15.9946516,19.879692 15.9946516,20.6388365 C15.9946516,21.397478 16.5914776,22.0127423 17.3273454,22.0127423 L29.3195814,22.0127423 C30.0554492,22.0127423 30.6522752,21.397478 30.6522752,20.6388365 C30.6522752,19.8796919 30.0554492,19.2649307 29.3195814,19.2649307 Z"></path>
                <path d="M10.6648805,19.2649307 L7.99999499,19.2649307 C7.26412717,19.2649307 6.66780317,19.879692 6.66780317,20.6388365 C6.66780317,21.397478 7.26412717,22.0127423 7.99999499,22.0127423 L10.6648805,22.0127423 C11.4007484,22.0127423 11.9975743,21.397478 11.9975743,20.6388365 C11.9975743,19.8796919 11.4007483,19.2649307 10.6648805,19.2649307 Z"></path>
            </g>
        </g>
    </g>
</svg>