<?xml version="1.0" encoding="UTF-8"?>
<svg width="14px" height="13px" viewBox="0 0 14 13" version="1.1" xmlns="http://www.w3.org/2000/svg" xmlns:xlink="http://www.w3.org/1999/xlink">
    <!-- Generator: Sketch 46.2 (44496) - http://www.bohemiancoding.com/sketch -->
    <title>icon_search</title>
    <desc>Created with Sketch.</desc>
    <defs></defs>
    <g id="Symbols" stroke="none" stroke-width="1" fill="none" fill-rule="evenodd">
        <g id="icon_search" fill="#8C8C8C">
            <path d="M12.366998,11.86255 C12.189275,12.0421875 11.900272,12.0421875 11.722549,11.86255 L10.866434,10.9974375 C10.688685,10.8178 10.688685,10.5257625 10.866434,10.3462 C11.044157,10.1666 11.333147,10.1666 11.510896,10.3462 L12.366998,11.211275 C12.544747,11.3909125 12.544747,11.682975 12.366998,11.86255 Z M6.631944,11.8735125 C3.797671,11.8735125 1.496567,9.5496125 1.496567,6.6854375 C1.496567,3.8213375 3.797671,1.49605 6.631944,1.49605 C9.466256,1.49605 11.767321,3.8213375 11.767321,6.6854375 C11.767321,9.5496125 9.466256,11.8735125 6.631944,11.8735125 Z M6.631944,2.0910875 C4.13142,2.0910875 2.09627,4.14625 2.09627,6.673125 C2.09627,9.1999875 4.13142,11.256575 6.631944,11.256575 C9.132468,11.256575 11.166266,9.201375 11.166266,6.6745125 C11.166266,4.147675 9.132468,2.0910875 6.631944,2.0910875 Z"></path>
        </g>
    </g>
</svg>