<?xml version="1.0" encoding="UTF-8"?>
<svg width="26px" height="23px" viewBox="0 0 26 23" version="1.1" xmlns="http://www.w3.org/2000/svg" xmlns:xlink="http://www.w3.org/1999/xlink">
    <!-- Generator: Sketch 46.2 (44496) - http://www.bohemiancoding.com/sketch -->
    <title>icon_shop ob</title>
    <desc>Created with Sketch.</desc>
    <defs></defs>
    <g id="Symbols" stroke="none" stroke-width="1" fill="none" fill-rule="evenodd">
        <g id="icon_shop-ob">
            <g>
                <g id="关注商家店铺" fill-rule="nonzero" fill="#4768F3">
                    <path d="M4.61415868,21.2410695 C3.21264725,21.2392447 2.0772662,20.1120699 2.07653151,18.7217838 C2.07653151,16.6093257 2.07653151,15.0249821 2.07653151,13.968753 C2.07653151,13.6053688 2.07653151,13.0602926 2.07653151,12.3335242 L3.22901907,12.3335242 L3.22901907,18.3755796 C3.22938647,19.329167 4.00818154,20.102316 4.96946841,20.1034112 L12.458522,20.1034112 L12.459189,21.2410695 L4.61415868,21.2410695 Z" id="Shape"></path>
                    <path d="M0,9.03750728 L0,6.9253028 C0,6.89828099 0.00260332521,6.87318932 0.00650831303,6.85260127 C0.0227790956,6.54764089 0.104133008,6.25040103 0.249268389,5.96924557 L0.265539172,5.91906222 L3.04914465,1.22112827 C3.41556268,0.616997899 3.96030848,0 5.23073118,0 L19.6843928,0 C21.0947442,0 21.4937038,0.530142095 21.8067536,1.12204832 C21.8972192,1.27774539 23.7175943,4.35244086 24.6769197,5.97374921 L24.8181501,6.2105117 C24.8558983,6.43955367 24.8969007,6.63900033 24.9086156,6.84166388 L24.9183781,6.90664488 L24.9183781,9.92279311 L23.6666497,9.92279311 L23.6666497,7.32233372 C23.6565594,7.14293401 23.6363837,7.00846836 23.6061224,6.91893676 L1.31355732,6.91893676 C1.29088438,6.99378986 1.27027472,7.12846997 1.25172835,7.32297709 L1.25172835,8.5759017 C1.25172835,10.3484035 2.15685494,11.6741651 3.85487381,11.6741651 C5.39341978,11.6741651 5.80834586,10.9484684 6.25139163,9.83619625 C6.81694004,9.83912372 7.2157257,9.83912372 7.44774861,9.83619625 C6.90884407,11.6926319 5.73552024,13.023087 3.85552464,13.01872 C1.72925877,13.01872 0,11.2339941 0,9.03750728 Z M1.77988415,5.65466841 L23.1384939,5.65466841 C21.9739969,3.71275164 20.7252597,1.62875814 20.7066773,1.59611072 C20.5059874,1.21945626 20.3486564,0.923211169 19.3390127,0.923211169 L5.58308188,0.923211169 C4.78713578,0.923211169 4.45203317,1.21401502 4.14294593,1.71763167 L1.77988415,5.65466841 Z" id="Shape"></path>
                    <path d="M7.30627379,12.1235421 C6.77816608,11.6138482 6.25890272,10.6049852 6.26467655,9.85873339 L7.43275449,9.85873339 C7.43275449,11.0076445 8.51222919,11.9598502 9.69048037,11.9598502 L9.69048037,13.01872 C8.94724868,13.01872 7.81996078,12.6204341 7.30627379,12.1235421 Z" id="Shape"></path>
                </g>
                <g id="设置-copy" transform="translate(11.767012, 8.907545)" fill-rule="nonzero">
                    <path d="M4.87873263,13.01872 L4.66661382,13.01872 L1.90906929,11.4238677 C1.80300988,11.4238677 1.80300988,11.3175442 1.80300988,11.3175443 L1.59089108,10.9985738 C1.48483167,10.8922503 1.48483167,10.6796034 1.59089108,10.5732799 C1.69695049,10.3606329 1.80300988,10.0416624 1.80300988,9.82901547 C1.80300988,9.08475108 1.16665346,8.44681018 0.424237622,8.44681016 C0.212118818,8.44681016 0,8.2341632 0,8.02151624 L0,4.83181169 C0,4.7254882 0,4.7254882 0.106059409,4.61916473 C0.212118818,4.51284125 0.318178213,4.40651776 0.424237622,4.40651775 C1.16665346,4.40651775 1.80300988,3.76857685 1.80300988,3.02431245 C1.80300988,2.81166549 1.69695047,2.59901851 1.59089108,2.38637155 C1.48483167,2.28004806 1.48483167,2.0674011 1.59089108,1.96107761 L1.69695049,1.85475412 C1.69695049,1.74843063 1.8030099,1.74843063 1.80300988,1.74843063 L4.56055442,0.153578373 C4.66661382,0.0472548839 4.77267322,0.0472548839 4.87873263,0.153578373 C5.09085143,0.0472548839 5.19691084,0.259901861 5.19691084,0.366225336 C5.30297025,1.00416624 5.93932668,1.53578367 6.5756831,1.53578367 C7.21203953,1.53578367 7.84839597,1.00416624 7.95445538,0.366225336 C7.95445538,0.259901847 8.06051478,0.153578373 8.16657418,0.0472548839 C8.27263359,-0.0590686049 8.37869298,0.0472548839 8.48475239,0.0472548839 L11.0301781,1.53578367 C11.1362375,1.64210716 11.2422969,1.64210716 11.2422969,1.85475412 C11.2422969,1.96107761 11.2422969,2.06740108 11.1362375,2.17372457 C10.9241187,2.49269502 10.8180593,2.705342 10.8180593,3.02431245 C10.8180593,3.76857685 11.4544157,4.40651775 12.1968316,4.40651775 L12.4089504,4.40651775 C12.6210692,4.40651775 12.7271286,4.40651775 12.833188,4.61916473 L13.0453068,4.61916473 C13.0453068,4.72548822 13.1513662,4.72548822 13.1513662,4.83181169 L13.1513662,8.12783971 C13.1513662,8.2341632 13.0453068,8.34048667 13.0453068,8.44681016 C12.9392474,8.55313365 12.833188,8.55313365 12.7271286,8.55313365 L12.4089504,8.55313365 C11.6665345,8.55313365 11.0301781,9.19107455 11.0301781,9.93533895 C11.0301781,10.3606329 11.2422969,10.6796033 11.3483563,10.8922503 C11.4544157,10.9985738 11.4544157,11.1048973 11.4544157,11.2112208 C11.4544157,11.3175443 11.3483563,11.4238677 11.2422969,11.5301912 L8.48475239,12.9123965 C8.37869298,13.01872 8.27263359,13.01872 8.16657418,12.9123965 C8.06051477,12.9123965 7.95445538,12.806073 7.95445538,12.6997496 C7.74233657,12.0618086 7.21203954,11.7428382 6.68174251,11.7428382 C6.04538608,11.7428382 5.51508905,12.1681321 5.40902966,12.6997496 C5.40902966,12.806073 5.30297025,12.9123965 5.19691084,12.9123965 C4.98479204,13.01872 4.87873263,13.01872 4.87873263,13.01872 Z M2.77200476,10.3861256 L4.8254637,11.655541 C5.21659874,11.069657 5.80330129,10.6790677 6.58557135,10.6790677 C7.27005766,10.6790677 7.95454397,11.069657 8.34567901,11.655541 L10.1057867,10.5814203 C9.91021916,10.2884783 9.81243539,9.89788898 9.81243539,9.60494697 C9.81243539,8.53082629 10.6924892,7.55435294 11.8658943,7.55435294 L11.8658943,5.30846422 C10.790273,5.30846422 9.81243539,4.42963821 9.81243539,3.25787018 C9.81243539,2.96492818 9.91021916,2.67198618 10.0080029,2.37904417 L8.34567901,1.50021815 C8.05232773,2.1837495 7.36784142,2.67198618 6.58557135,2.67198618 C5.80330127,2.67198618 5.11881496,2.1837495 4.72767994,1.50021815 L2.77200476,2.67198618 C2.86978853,2.86728084 2.96757227,3.06257552 2.96757227,3.35551752 C2.96757227,4.33199087 2.28308596,5.11316956 1.30524838,5.30846422 L1.30524838,7.65200026 C2.28308596,7.84729493 2.96757227,8.62847361 2.96757227,9.60494697 C2.96757227,9.89788898 2.86978851,10.190831 2.77200476,10.3861256 Z" id="Shape" fill="#4768F3"></path>
                    <path d="M4.15306302,6.50936 C4.15299478,7.36612656 4.61472864,8.15784041 5.36431793,8.58624318 C6.11390722,9.01464596 7.037459,9.01464596 7.78704829,8.58624318 C8.53663758,8.15784041 8.99837143,7.36612656 8.9983032,6.50936 C8.99837143,5.65259344 8.53663758,4.8608796 7.78704829,4.43247682 C7.037459,4.00407404 6.11390722,4.00407404 5.36431793,4.43247682 C4.61472864,4.8608796 4.15299478,5.65259344 4.15306302,6.50936 L4.15306302,6.50936 Z" id="Shape" fill="#C8D2FB"></path>
                    <path d="M6.70423029,9.88124455 C5.01105844,9.88124455 3.55976828,8.4431656 3.5597683,6.76540686 C3.5597683,5.0876481 5.01105846,3.64956915 6.70423029,3.64956915 C8.39740213,3.64956915 9.84869229,5.0876481 9.84869229,6.76540686 C9.84869229,8.44316562 8.39740213,9.88124456 6.70423029,9.88124455 Z M6.6844538,4.8490779 C5.61956585,4.8490779 4.76765548,5.6923958 4.7676555,6.74654316 C4.76765551,7.80069053 5.61956586,8.64400843 6.6844538,8.64400843 C7.74934174,8.64400843 8.60125212,7.90610527 8.60125212,6.8519579 C8.60125212,5.79781054 7.74934175,4.8490779 6.6844538,4.8490779 Z" id="Shape" fill="#4768F3"></path>
                </g>
                <path d="M1.89854309,5.65466841 L4.30641514,1.61786393 C4.69559051,1.12207718 5.20784506,0.891679682 5.8431788,0.926671434 C6.47851254,0.961663186 10.9666075,0.979159062 19.3074636,0.979159062 C20.0791773,0.982004776 20.5911107,1.2448118 20.8432638,1.76758015 C21.0954169,2.29034849 21.8604936,3.58604458 23.1384939,5.65466841 L1.89854309,5.65466841 Z" id="Path-2" fill="#C8D2FB"></path>
            </g>
        </g>
    </g>
</svg>