<?xml version="1.0" encoding="UTF-8"?>
<svg width="12px" height="13px" viewBox="0 0 12 13" version="1.1" xmlns="http://www.w3.org/2000/svg" xmlns:xlink="http://www.w3.org/1999/xlink">
    <!-- Generator: Sketch 46.2 (44496) - http://www.bohemiancoding.com/sketch -->
    <title>icon_pay list</title>
    <desc>Created with Sketch.</desc>
    <defs></defs>
    <g id="Symbols" stroke="none" stroke-width="1" fill="none" fill-rule="evenodd">
        <g id="icon_pay-list" fill-rule="nonzero" fill="#FFFFFF">
            <g id="Shape">
                <path d="M7.35186911,0 L4.52018325,0 C4.17298429,0 3.89528796,0.310406553 3.89528796,0.69396966 C3.89528796,1.0785267 4.1734555,1.38987985 4.52018325,1.38987985 L7.36947644,1.38987985 C7.69931937,1.38987985 7.97732984,1.0785267 7.97732984,0.69396966 C7.97731414,0.310359223 7.6996178,0 7.35186911,0 L7.35186911,0 L7.35186911,0 Z M10.4264764,0.463203883 L9.01647644,0.463203883 C9.03076963,0.539279126 9.03925131,0.616237864 9.03925131,0.69396966 C9.03956545,1.27821238 8.61768063,1.8532415 8.1156911,1.8532415 L3.78376963,1.8532415 C3.25554974,1.8532415 2.83303665,1.27822816 2.83303665,0.69396966 C2.83350785,0.616237864 2.84183246,0.539279126 2.85628272,0.463203883 L1.42900524,0.463203883 C0.281937173,0.463203883 0,1.11646966 0,2.05881189 L0,11.3934272 C0,12.4056602 0.403664921,12.9722015 1.51570681,12.9722015 L10.3399319,12.9722015 C11.4518168,12.9722015 11.992445,12.5280874 11.992445,11.3939005 L11.992445,2.05881189 C11.9926021,1.11654854 11.4865288,0.46336165 10.4264764,0.46336165 L10.4264764,0.46336165 L10.4264764,0.463203883 L10.4264764,0.463203883 Z M8.9778377,9.67960437 L2.84591623,9.67960437 C2.62005236,9.67960437 2.39434555,9.40114563 2.39434555,9.1738034 C2.39434555,8.94709223 2.58534031,8.75303883 2.81136126,8.75303883 L8.9256911,8.75303883 C9.15155497,8.75303883 9.34254974,8.92942233 9.35967016,9.1738034 C9.35967016,9.4013034 9.20385864,9.67960437 8.9778377,9.67960437 L8.9778377,9.67960437 L8.9778377,9.67960437 Z M9.00281152,7.20804248 L2.87089005,7.20804248 C2.64486911,7.20804248 2.5008377,6.96397694 2.5008377,6.73647694 C2.5008377,6.50902427 2.69198953,6.28144539 2.9178534,6.28144539 L9.03218325,6.28144539 C9.25820419,6.28144539 9.44919895,6.49230097 9.4661623,6.73647694 C9.4661623,6.96381917 9.22820419,7.20804248 9.00281152,7.20804248 L9.00281152,7.20804248 L9.00281152,7.20804248 Z M9.00281152,4.6695716 L2.87089005,4.6695716 C2.64486911,4.6695716 2.5008377,4.42542718 2.5008377,4.19800607 C2.5008377,3.97050607 2.69198953,3.74300607 2.9178534,3.74300607 L9.03218325,3.74300607 C9.25820419,3.74300607 9.44919895,3.95386165 9.4661623,4.19800607 C9.4661623,4.42542718 9.22820419,4.6695716 9.00281152,4.6695716 L9.00281152,4.6695716 L9.00281152,4.6695716 Z"></path>
            </g>
        </g>
    </g>
</svg>