<?xml version="1.0" encoding="UTF-8"?>
<svg width="768px" height="768px" viewBox="0 0 768 768" version="1.1" xmlns="http://www.w3.org/2000/svg" xmlns:xlink="http://www.w3.org/1999/xlink">
    <!-- Generator: Sketch 49.3 (51167) - http://www.bohemiancoding.com/sketch -->
    <title>商品-2</title>
    <desc>Created with Sketch.</desc>
    <defs></defs>
    <g id="Page-1" stroke="none" stroke-width="1" fill="none" fill-rule="evenodd">
        <g id="商品-2">
            <path d="M672,0 L96,0 C43.2,0 0,43.2 0,96 L0,672 C0,724.8 43.2,768 96,768 L672,768 C724.8,768 768,724.8 768,672 L768,96 C768,43.2 724.8,0 672,0 Z M672,720 L96,720 C69.5,720 48,698.5 48,672 L48,178.6 C62.2,186.9 78.5,192 96,192 L672,192 C689.5,192 705.8,186.9 720,178.6 L720,672 C720,698.5 698.5,720 672,720 Z" id="Shape" fill="#5692FF" fill-rule="nonzero"></path>
            <path d="M576,304 C549.5,304 528,325.5 528,352 C528,368.7 536.6,383.4 549.6,392 C537.8,473.2 468.4,536 384,536 C299.6,536 230.2,473.2 218.4,392 C231.4,383.4 240,368.7 240,352 C240,325.5 218.5,304 192,304 C165.5,304 144,325.5 144,352 C144,370.4 154.5,386.3 169.8,394.3 C182.8,501 273.8,584 384,584 C494.2,584 585.2,501 598.2,394.3 C613.4,386.3 624,370.4 624,352 C624,325.5 602.5,304 576,304 Z" id="Shape" fill="#5692FF" fill-rule="nonzero"></path>
            <path d="M96,48 L672,48 C698.5,48 720,69.5 720,96 C720,122.5 698.5,144 672,144 L96,144 C69.5,144 48,122.5 48,96 C48,69.5 69.5,48 96,48 Z" id="Path" fill="#C6DAFF"></path>
        </g>
    </g>
</svg>