<?xml version="1.0" encoding="UTF-8"?>
<svg width="15px" height="15px" viewBox="0 0 15 15" version="1.1" xmlns="http://www.w3.org/2000/svg" xmlns:xlink="http://www.w3.org/1999/xlink">
    <!-- Generator: Sketch 46.2 (44496) - http://www.bohemiancoding.com/sketch -->
    <title>icon_attestation_s</title>
    <desc>Created with Sketch.</desc>
    <defs></defs>
    <g id="Symbols" stroke="none" stroke-width="1" fill="none" fill-rule="evenodd">
        <g id="icon_attestation_s" fill-rule="nonzero" fill="#1CC3AD">
            <g id="认证">
                <path d="M13.9968655,2.18122559 L13.3538534,2.17114746 C13.3387592,2.17114746 11.8966648,2.14098633 10.4075986,1.55976563 C8.87991432,0.962387695 7.89537961,0.277060547 7.88647826,0.270512695 L7.49789259,0 L7.11192406,0.270527344 C7.1025358,0.277060547 6.11800109,0.962387695 4.5908037,1.55976563 C3.10280267,2.14151367 1.65965834,2.17114746 1.64607047,2.17114746 L1,2.18122559 L1,8.48704102 C0.999984784,11.6527441 5.22692292,15 7.49947505,15 C9.77357921,15 14,11.6527441 14,8.48704102 L13.9968655,2.18122559 Z M6.77397716,10.2498633 L4.01416374,7.98722168 L4.86292627,7.02580078 L6.63300112,8.4764502 L9.99345011,4.75006348 L10.9857602,5.57875488 L6.77397716,10.2498633 L6.77397716,10.2498633 Z" id="Shape"></path>
            </g>
        </g>
    </g>
</svg>