<?xml version="1.0" encoding="UTF-8"?>
<svg width="31px" height="29px" viewBox="0 0 31 29" version="1.1" xmlns="http://www.w3.org/2000/svg" xmlns:xlink="http://www.w3.org/1999/xlink">
    <!-- Generator: Sketch 48 (47235) - http://www.bohemiancoding.com/sketch -->
    <title>icon_review</title>
    <desc>Created with Sketch.</desc>
    <defs></defs>
    <g id="首页" stroke="none" stroke-width="1" fill="none" fill-rule="evenodd" transform="translate(-56.000000, -437.000000)">
        <g id="Group-7" transform="translate(20.000000, 415.000000)">
            <g id="icon_review" transform="translate(33.000000, 19.000000)">
                <g>
                    <g transform="translate(3.000000, 3.000000)" fill-rule="nonzero" id="Shape">
                        <path d="M12.1335582,27.7777169 L3.05453213,27.7777169 C1.42496335,27.7777169 0.0281901078,26.341277 0.028190076,24.6654305 L0.028190076,3.11883263 C0.028190076,1.44298612 1.42496331,0.0065462754 3.05453213,0.0065462754 L20.5141977,0.0065462754 C22.1437665,0.0065462754 23.5405397,1.44298612 23.5405397,3.11883263 L23.5405397,10.3010319 C23.5405397,10.7798452 23.4212753,11.2725303 22.737984,11.2564392 C22.0546928,11.2403481 21.9109709,10.7372029 21.9109709,10.2583896 L21.9109709,3.31122381 C21.9109709,2.59300389 21.2125843,1.87478396 20.5141977,1.87478396 L3.05453213,1.87478396 C2.35614552,1.87478396 1.6577589,2.59300389 1.65775886,3.31122381 L1.65775886,24.1866172 C1.65775886,24.9048371 2.35614548,25.6230571 3.05453213,25.6230571 L12.1335582,25.6230571 C12.5991493,25.6230571 13.1062596,25.8812256 13.1485436,26.687389 C13.1908277,27.4935525 12.5991493,27.7777169 12.1335582,27.7777169 Z" fill="#10A7F5"></path>
                        <path d="M19.35022,6.70993228 L4.21850982,6.70993228 C3.75291875,6.70993228 3.28732765,6.23111901 3.28732765,5.7523057 C3.28732765,5.2734924 3.75291872,4.79467913 4.21850982,4.79467913 L19.35022,4.79467913 C19.8158111,4.79467913 20.2814022,5.2734924 20.2814022,5.7523057 C20.2814021,6.23111901 19.8158111,6.70993228 19.35022,6.70993228 Z M13.0647404,15.5679781 L4.21850982,15.5679781 C3.75291875,15.5679781 3.28732765,15.0891648 3.28732765,14.6103515 C3.28732765,14.1315382 3.75291872,13.6527249 4.21850982,13.6527249 L13.0647404,13.6527249 C13.5303315,13.6527249 13.9959226,14.1315382 13.9959226,14.6103515 C13.9959226,15.0891648 13.5303315,15.5679781 13.0647404,15.5679781 Z M13.0647404,20.8349242 L4.21850982,20.8349242 C3.75291875,20.8349242 3.28732765,20.3561109 3.28732765,19.8772976 C3.28732765,19.3984843 3.75291872,18.9196711 4.21850982,18.9196711 L13.0647404,18.9196711 C13.5303315,18.9196711 13.9959226,19.3984843 13.9959226,19.8772976 C13.9959226,20.3561109 13.5303315,20.8349242 13.0647404,20.8349242 Z M19.35022,10.7798452 L4.21850982,10.7798452 C3.75291875,10.7798452 3.28732765,10.5404386 3.28732765,10.0616253 C3.28732765,9.58281201 3.75291872,9.10399871 4.21850982,9.10399871 L19.35022,9.10399871 C19.8158111,9.10399871 20.2814022,9.58281198 20.2814022,10.0616253 C20.2814021,10.5404386 19.8158111,10.7798452 19.35022,10.7798452 Z" fill="#10A7F5"></path>
                        <path d="M20.5141977,15.0891648 C20.5141977,16.4113712 21.5564588,17.4832312 22.8421531,17.4832312 C24.1278474,17.4832312 25.1701085,16.4113712 25.1701085,15.0891648 C25.1701085,13.7669584 24.1278474,12.6950984 22.8421531,12.6950984 C21.5564588,12.6950984 20.5141977,13.7669584 20.5141977,15.0891648 Z" fill="#CEEDFD"></path>
                        <path d="M22.765625,18.3547807 C20.9032607,18.3547807 19.3762979,16.9613794 19.376298,15.0461263 C19.376298,13.1308731 20.7469933,11.7374718 22.6093576,11.7374718 C24.4717219,11.7374718 26.02948,13.0044995 26.0155772,15.0461263 C26.0016745,17.087753 24.6279893,18.3547807 22.765625,18.3547807 Z M22.7257554,13.5264088 C21.739594,13.5264088 21.1336564,14.2211718 21.1336564,15.1699481 C21.1336564,16.1187245 21.8012284,16.7295907 22.7324106,16.7295907 C23.6635928,16.7295907 24.4034344,16.1187245 24.4034344,15.1699481 C24.4034345,14.2211718 23.7119167,13.5264088 22.7257554,13.5264088 Z" fill="#10A7F5"></path>
                        <polygon fill="#CEEDFD" points="22.8421531 18.2014511 18.4190379 23.2289906 27.0324729 23.2289906"></polygon>
                        <path d="M29.1276328,24.1866172 L16.5566735,24.1866172 L22.8421531,16.7650113 L29.1276328,24.1866172 Z M20.2814022,22.2713641 L25.1701085,22.2713641 L22.8421531,19.3984844 L20.2814022,22.2713641 Z" fill="#10A7F5"></path>
                        <path d="M28.8948372,28.0171235 L16.7894691,28.0171235 C16.0910824,28.0171235 15.6254913,27.5383103 15.6254913,26.8200903 L15.6254913,24.6654305 C15.6254913,23.9472106 16.0910824,23.4683973 16.7894691,23.4683973 L28.8948372,23.4683973 C29.5932238,23.4683973 30.0588149,23.9472106 30.0588149,24.6654305 L30.0588149,26.8200903 C30.0588149,27.2989036 29.5932238,28.0171235 28.8948372,28.0171235 Z" fill="#CEEDFD"></path>
                        <path d="M28.8948372,28.9747501 L16.7894691,28.9747501 C15.6254913,28.9747501 14.6943092,28.0171235 14.6943092,26.8200903 L14.6943092,24.6654305 C14.6943092,23.4683973 15.6254913,22.5107707 16.7894691,22.5107707 L28.8948372,22.5107707 C30.0588149,22.5107707 30.9899971,23.4683973 30.9899971,24.6654305 L30.9899971,26.8200903 C30.9899971,27.7777169 30.0588149,28.9747501 28.8948372,28.9747501 Z M16.7894691,23.9472106 C16.5566735,23.9472106 16.323878,24.1866172 16.323878,24.4260239 L16.323878,26.5806836 C16.323878,26.8200903 16.5566735,27.0594969 16.7894691,27.0594969 L28.8948372,27.0594969 C29.1276328,27.0594969 29.3604283,26.8200903 29.3604283,26.5806836 L29.3604283,24.4260239 C29.3604283,24.1866172 29.1276327,23.9472106 28.8948372,23.9472106 L16.7894691,23.9472106 Z" fill="#10A7F5"></path>
                    </g>
                    <rect id="Rectangle-2" x="0" y="0" width="36" height="36"></rect>
                </g>
            </g>
        </g>
    </g>
</svg>