<?xml version="1.0" encoding="UTF-8"?>
<svg width="65px" height="21px" viewBox="0 0 65 21" version="1.1" xmlns="http://www.w3.org/2000/svg" xmlns:xlink="http://www.w3.org/1999/xlink">
    <!-- Generator: Sketch 48 (47235) - http://www.bohemiancoding.com/sketch -->
    <title>icon_accept</title>
    <desc>Created with Sketch.</desc>
    <defs>
        <linearGradient x1="23.7164565%" y1="17.9366156%" x2="95.414959%" y2="100%" id="linearGradient-1">
            <stop stop-color="#FFDF55" offset="0%"></stop>
            <stop stop-color="#FFC739" offset="100%"></stop>
        </linearGradient>
        <path d="M14,4 L59.5348719,4 C60.3440398,4 61,4.65596019 61,5.46512808 L61,14.5348719 C61,15.3440398 60.3440398,16 59.5348719,16 L9.7835265,16 C8.79715684,16.6385509 7.81251897,17 7.00474983,17 C5.74529481,17 4.0403557,16.098 2.55790865,14.651 C0.930466769,13.065 0,11.2015 0,9.556 L6.9386461e-16,2.7955 C6.9386461e-16,2.548 0.19349309,2.3395 0.435984429,2.3395 L1.08496125,2.3295 C1.14295918,2.3295 2.49941074,2.29 3.89436092,1.705 C5.36680833,1.1005 6.34577337,0.3865 6.35527303,0.3765 L6.74275919,0.089 C6.82025642,0.0295 6.90725331,0 7.00424985,0 C7.10124638,0 7.18824328,0.0295 7.26574051,0.089 L7.65322667,0.3765 C7.69222528,0.406 8.64119139,1.1 10.1041391,1.705 C11.4995893,2.29 12.8555409,2.3295 12.9135388,2.3295 L13.5630156,2.3395 C13.8060069,2.3395 14,2.5475 14,2.7955 L14,4 Z" id="path-2"></path>
        <filter x="-4.1%" y="-14.7%" width="114.8%" height="158.8%" filterUnits="objectBoundingBox" id="filter-3">
            <feMorphology radius="2.5" operator="erode" in="SourceAlpha" result="shadowSpreadOuter1"></feMorphology>
            <feOffset dx="3" dy="4" in="shadowSpreadOuter1" result="shadowOffsetOuter1"></feOffset>
            <feGaussianBlur stdDeviation="3" in="shadowOffsetOuter1" result="shadowBlurOuter1"></feGaussianBlur>
            <feColorMatrix values="0 0 0 0 1   0 0 0 0 0.8   0 0 0 0 0.239215686  0 0 0 1 0" type="matrix" in="shadowBlurOuter1"></feColorMatrix>
        </filter>
    </defs>
    <g id="首页" stroke="none" stroke-width="1" fill="none" fill-rule="evenodd" transform="translate(-143.000000, -170.000000)">
        <g id="icon_accept" transform="translate(143.000000, 170.000000)">
            <g>
                <g>
                    <g id="Combined-Shape">
                        <use fill="black" fill-opacity="1" filter="url(#filter-3)" xlink:href="#path-2"></use>
                        <use fill="url(#linearGradient-1)" fill-rule="evenodd" xlink:href="#path-2"></use>
                    </g>
                    <path d="M13,3.46661765 L13,9.43176471 C13,10.8925 12.2028856,12.5279412 10.8075069,13.9273529 C9.55355166,15.2129412 8.09174672,16 7.00407128,16 C5.92453841,16 4.46316203,15.2041176 3.19249313,13.9273529 C1.79754294,12.5279412 1,10.8836765 1,9.43176471 L1,3.46661765 C1,3.24823529 1.16585122,3.06426471 1.37370094,3.06426471 L1.92996679,3.05544118 C1.9796793,3.05544118 3.14235206,3.02058824 4.33802364,2.50441176 C5.60012142,1.97102941 6.43923431,1.34102941 6.44737688,1.33220588 L6.77950787,1.07852941 C6.84593407,1.02602941 6.92050284,1 7.00364273,1 C7.08678261,1 7.16135138,1.02602941 7.22777758,1.07852941 L7.55990857,1.33220588 C7.59333595,1.35823529 8.40673547,1.97058824 9.66069069,2.50441176 C10.8567908,3.02058824 12.019035,3.05544118 12.0687475,3.05544118 L12.6254419,3.06426471 C12.8337202,3.06426471 13,3.24779412 13,3.46661765 Z" id="Path" fill="#FFFFFF"></path>
                    <path d="M10.852325,6.87445501 C11.049225,6.67776457 11.049225,6.3438367 10.852325,6.1476417 C10.7536206,6.04954419 10.6254066,6 10.4875257,6 C10.3496448,6 10.2214308,6.04954419 10.1227264,6.1476417 L6.50475169,9.75247721 L4.87765523,8.13188664 C4.7794596,8.03378914 4.65124562,7.98474039 4.51285592,7.98474039 C4.37497501,7.98474039 4.24676103,8.03378914 4.14805662,8.13188664 C4.04935221,8.22998415 4,8.35780816 4,8.49504558 C4,8.63277844 4.04935221,8.76010702 4.14805662,8.85869996 L6.13944361,10.8523583 C6.23814802,10.9504558 6.36585322,11 6.50424291,11 C6.6426326,11 6.7703378,10.9410424 6.86904221,10.8424495 L10.852325,6.87445501 Z" id="Shape" fill="#FFDE5A" fill-rule="nonzero"></path>
                </g>
                <text id="商铺已认证" font-family="PingFangSC-Regular, PingFang SC" font-size="9" font-weight="normal" fill="#FFFFFF">
                    <tspan x="14" y="13">商铺已认证</tspan>
                </text>
            </g>
        </g>
    </g>
</svg>