<?xml version="1.0" encoding="UTF-8"?>
<svg width="13px" height="13px" viewBox="0 0 13 13" version="1.1" xmlns="http://www.w3.org/2000/svg" xmlns:xlink="http://www.w3.org/1999/xlink">
    <!-- Generator: Sketch 46.2 (44496) - http://www.bohemiancoding.com/sketch -->
    <title>icon_ apply</title>
    <desc>Created with Sketch.</desc>
    <defs></defs>
    <g id="Symbols" stroke="none" stroke-width="1" fill="none" fill-rule="evenodd">
        <g id="icon_-apply" fill-rule="nonzero" fill="#FFFFFF">
            <g id="Shape">
                <path d="M9.75472908,1.625 C9.75472908,0.727537282 9.02683892,5.49537423e-17 8.1289409,0 L1.62578818,0 C0.727890162,-5.49537423e-17 1.09960793e-16,0.727537282 0,1.625 L0,11.375 C1.09960793e-16,12.2724627 0.727890162,13 1.62578818,13 L3.9750521,13 L9.75472908,2.84375 L9.75472908,1.625 Z M3.7962154,10.294375 L2.70693732,10.294375 C2.49798061,10.3200346 2.292941,10.223026 2.18033716,10.0452293 C2.06773333,9.86743264 2.06773333,9.64069236 2.18033716,9.46289567 C2.292941,9.28509899 2.49798061,9.18809041 2.70693732,9.21375 L3.7962154,9.21375 C4.00517211,9.18809041 4.21021172,9.28509899 4.32281556,9.46289567 C4.43541939,9.64069236 4.43541939,9.86743264 4.32281556,10.0452293 C4.21021172,10.223026 4.00517211,10.3200346 3.7962154,10.294375 Z M4.34085444,7.044375 L2.71506626,7.044375 C2.44200735,7.01084375 2.23684121,6.77904111 2.23684121,6.5040625 C2.23684121,6.22908389 2.44200735,5.99728125 2.71506626,5.96375 L4.34085444,5.96375 C4.61391335,5.99728125 4.81907949,6.22908389 4.81907949,6.5040625 C4.81907949,6.77904111 4.61391335,7.01084375 4.34085444,7.044375 Z M7.04779176,3.794375 L2.70693732,3.794375 C2.49798061,3.82003459 2.292941,3.72302601 2.18033716,3.54522933 C2.06773333,3.36743264 2.06773333,3.14069236 2.18033716,2.96289567 C2.292941,2.78509899 2.49798061,2.68809041 2.70693732,2.71375 L7.04779176,2.71375 C7.32085067,2.74728125 7.52601681,2.97908389 7.52601681,3.2540625 C7.52601681,3.52904111 7.32085067,3.76084375 7.04779176,3.794375 Z M12.7299214,3.25 L12.2584429,2.981875 C11.9978924,2.83508178 11.6676585,2.9257614 11.5187093,3.185 L7.50301245,10.245625 L8.91744817,11.058125 L12.933145,3.98125 C13.0745816,3.72269852 12.9845099,3.39859785 12.7299214,3.25 Z M6.86895506,13 L8.64919312,11.52125 L7.2347574,10.716875 L6.86895506,13 Z"></path>
            </g>
        </g>
    </g>
</svg>