<?xml version="1.0" encoding="UTF-8"?>
<svg width="13px" height="16px" viewBox="0 0 13 16" version="1.1" xmlns="http://www.w3.org/2000/svg" xmlns:xlink="http://www.w3.org/1999/xlink">
    <!-- Generator: Sketch 48 (47235) - http://www.bohemiancoding.com/sketch -->
    <title>iPhone 8</title>
    <desc>Created with Sketch.</desc>
    <defs></defs>
    <g id="Page-1" stroke="none" stroke-width="1" fill="none" fill-rule="evenodd">
        <g id="iPhone-8" fill="#4768F3" fill-rule="nonzero">
            <g id="指数研发">
                <path d="M12.2920968,7.06797536 L11.7307975,6.60509181 L8.73376408,4.13166498 L9.61247546,3.40648076 C10.083662,3.0181729 10.3217211,2.50471502 10.3208244,1.99554312 C10.3217211,1.48637121 10.083662,0.972913345 9.61247546,0.58417689 C9.14218554,0.195440421 8.51946609,-0.00042789194 7.90302316,7.01846778e-07 C7.28568359,-0.00042789194 6.66341247,0.195869015 6.19267423,0.584605484 L0.925337515,4.95071171 C0.850019397,4.99957163 0.777391214,5.05314612 0.70790127,5.11014937 C0.237163032,5.49845725 -0.000447686721,6.0123437 6.33221318e-07,6.52108702 C-0.000447686721,7.03025891 0.237163032,7.54371679 0.70834959,7.93202465 L4.26623403,10.8679064 L3.38752265,11.5930906 C2.91588777,11.9818271 2.67827704,12.495285 2.67917368,13.0044569 C2.67827704,13.5136288 2.91633609,14.0270867 3.38752265,14.4158231 C3.85736425,14.8032738 4.47873873,15.0004279 5.09562997,14.9999993 L5.09787159,14.9999993 C5.71386619,14.9999993 6.33613732,14.8045596 6.80732388,14.4153945 L6.80732388,14.4158231 L12.2920968,9.88985063 C12.7628351,9.50154277 13.0008941,8.9880849 12.9999975,8.47891299 C13.0008941,7.96974108 12.7628351,7.45585462 12.2920968,7.06797536 Z M7.02476011,1.2690731 C7.26819903,1.06891882 7.58292116,0.970341767 7.90302316,0.969913173 C8.22267685,0.970341767 8.53739898,1.06849023 8.78173454,1.26993029 C9.02562179,1.47179894 9.14532379,1.73152805 9.14577211,1.99554312 C9.14532379,2.25955818 9.02562179,2.51928729 8.78173454,2.72072735 L8.43428489,3.007458 L4.76431992,6.03591648 C4.66165415,5.69646854 4.44870114,5.37416443 4.12815081,5.11014937 C3.8100934,4.85128144 3.42972349,4.67204205 3.02124347,4.5885482 L7.02476011,1.2690731 Z M5.97613464,13.7296411 C5.7322474,13.9310812 5.41707695,14.0296582 5.09562997,14.0305154 C4.77687293,14.0296582 4.46259912,13.9310812 4.21871189,13.7296411 C3.97482466,13.528201 3.85467432,13.2684719 3.854226,13.0044569 C3.85467432,12.7400132 3.97482464,12.4807127 4.21826357,12.2792727 L5.09742327,11.5540884 L5.41573197,11.8163891 L5.97658296,12.2792727 C6.22047021,12.4807127 6.34017221,12.7404418 6.34062053,13.0044569 C6.34017221,13.268472 6.22047021,13.5282011 5.97613464,13.7296411 Z M11.4609076,9.20452581 L7.44125137,12.5210007 C7.3292397,12.1592681 7.10904759,11.8367343 6.8077722,11.5930906 L6.24647289,11.1306357 L1.5390905,7.24627124 C1.29565158,7.04483117 1.17594957,6.78510206 1.17550125,6.52108702 C1.17594957,6.25707196 1.29565158,5.99734285 1.5390905,5.79590278 C1.78387439,5.59446272 2.0981482,5.49588567 2.4182502,5.49502848 C2.7383522,5.49588567 3.05307434,5.59446272 3.2974099,5.79547419 C3.54129714,5.99734285 3.66099915,6.25664336 3.66144747,6.52108702 C3.66099915,6.78510208 3.54129714,7.04483119 3.2974099,7.24627124 L4.12815081,7.93202465 L7.90257484,4.81784699 L10.9000566,7.29084521 L11.4609076,7.75372877 C11.7047948,7.95516883 11.8244969,8.21489794 11.8249452,8.47891299 C11.8244969,8.74292805 11.7047948,9.00265716 11.4609076,9.20452581 Z M7.62371848,5.67375295 L4.48815349,8.26118629 L5.31934272,8.94693969 L8.45445939,6.35993496 L7.62371848,5.67375295 Z M8.87767549,6.708812 L5.74255882,9.29581674 L6.57329972,9.98199874 L9.70841638,7.39456542 L8.87767549,6.708812 Z M6.99651581,10.3308758 L7.82770505,11.0166292 L10.9628217,8.42962447 L10.1316325,7.74387105 L6.99651581,10.3308758 Z" id="Shape"></path>
            </g>
        </g>
    </g>
</svg>