<?xml version="1.0" encoding="UTF-8"?>
<svg width="11px" height="11px" viewBox="0 0 11 11" version="1.1" xmlns="http://www.w3.org/2000/svg" xmlns:xlink="http://www.w3.org/1999/xlink">
    <!-- Generator: Sketch 46.2 (44496) - http://www.bohemiancoding.com/sketch -->
    <title>icon_minus</title>
    <desc>Created with Sketch.</desc>
    <defs></defs>
    <g id="Symbols" stroke="none" stroke-width="1" fill="none" fill-rule="evenodd">
        <g id="icon_minus" fill="#AEAEAE">
            <path d="M5.5,0 C2.4625,0 0,2.4625 0,5.5 C0,8.5375 2.4625,11 5.5,11 C8.5375,11 11,8.5375 11,5.5 C11,2.4625 8.5375,0 5.5,0 L5.5,0 Z M5.5,10 C3.015,10 1,7.985 1,5.5 C1,3.015 3.015,1 5.5,1 C7.985,1 10,3.015 10,5.5 C10,7.985 7.985,10 5.5,10 L5.5,10 Z M7.5,5 L3.5,5 C3.224,5 3,5.224 3,5.5 C3,5.776 3.224,6 3.5,6 L7.5,6 C7.776,6 8,5.776 8,5.5 C8,5.224 7.776,5 7.5,5 L7.5,5 Z"></path>
        </g>
    </g>
</svg>