<?xml version="1.0" encoding="UTF-8"?>
<svg width="30px" height="30px" viewBox="0 0 30 30" version="1.1" xmlns="http://www.w3.org/2000/svg" xmlns:xlink="http://www.w3.org/1999/xlink">
    <!-- Generator: Sketch 48 (47235) - http://www.bohemiancoding.com/sketch -->
    <title>icon_enter bussiness</title>
    <desc>Created with Sketch.</desc>
    <defs></defs>
    <g id="首页" stroke="none" stroke-width="1" fill="none" fill-rule="evenodd" transform="translate(-56.000000, -542.000000)">
        <g id="Group-7-Copy-2" transform="translate(20.000000, 520.000000)">
            <g id="icon_enter-bussiness" transform="translate(33.000000, 19.000000)">
                <g>
                    <g id="icon_review">
                        <rect id="Rectangle-2" x="0" y="0" width="36" height="36"></rect>
                    </g>
                    <g transform="translate(3.000000, 3.000000)" id="Shape">
                        <g>
                            <path d="M18.7986616,10.9040277 L11.2013384,10.9040277 C10.0840849,10.9040277 9.19028224,9.93738198 9.19028221,8.72907489 L9.19028221,2.2042165 C9.19028221,0.995909372 10.0840849,0.0292637115 11.2013384,0.0292636784 L18.7986616,0.0292636784 C19.9159151,0.0292636784 20.8097178,0.995909372 20.8097178,2.2042165 L20.8097178,8.72907489 C20.8097178,9.93738202 19.9159151,10.9040277 18.7986616,10.9040277 Z M11.2013384,1.96255507 C10.9778877,1.96255507 10.9778877,1.96255507 10.9778877,2.2042165 L10.9778877,8.72907489 C10.9778877,8.97073632 10.9778877,8.97073632 11.2013384,8.97073632 L18.7986616,8.97073632 C19.0221123,8.97073632 19.0221123,8.97073632 19.0221123,8.72907489 L19.0221123,2.2042165 C19.0221123,1.96255507 19.0221123,1.96255507 18.7986616,1.96255507 L11.2013384,1.96255507 Z" fill="#5372F3" fill-rule="nonzero"></path>
                            <path d="M27.9601396,29.0286344 L20.3628164,29.0286344 C19.6924644,29.0286344 19.245563,28.5453115 19.245563,27.8203272 L19.245563,21.0538074 C19.245563,20.3288231 19.6924644,19.8455003 20.3628164,19.8455003 L27.9601396,19.8455003 C28.6304917,19.8455003 29.0773931,20.3288231 29.0773931,21.0538074 L29.0773931,27.5786658 C29.0773931,28.3036501 28.6304917,29.0286344 27.9601396,29.0286344 Z" fill="#C8D2FB" fill-rule="nonzero"></path>
                            <path d="M27.9601396,29.9952801 L20.3628164,29.9952801 C19.245563,29.9952801 18.3517603,29.0286344 18.3517603,27.8203272 L18.3517603,21.0538074 C18.3517603,19.8455003 19.245563,18.8788546 20.3628164,18.8788546 L27.9601396,18.8788546 C29.0773931,18.8788546 29.9711958,19.8455003 29.9711958,21.0538074 L29.9711958,27.5786658 C29.9711958,28.786973 29.0773931,29.9952801 27.9601396,29.9952801 Z M20.3628164,20.812146 C20.1393657,20.812146 20.1393657,20.812146 20.1393657,21.0538074 L20.1393657,27.8203272 C20.1393657,28.0619887 20.1393657,28.0619887 20.3628164,28.0619887 L27.9601396,28.0619887 C28.1835903,28.0619887 28.1835903,27.8203272 28.1835903,27.5786658 L28.1835903,21.0538074 C28.1835903,20.812146 28.1835903,20.812146 27.9601396,20.812146 L20.3628164,20.812146 Z" fill="#5372F3" fill-rule="nonzero"></path>
                            <path d="M9.63718359,29.0286344 L2.03986036,29.0286344 C1.36950831,29.0286344 0.922606925,28.5453115 0.922606925,27.8203272 L0.922606925,21.2954688 C0.922606925,20.5704846 1.36950828,20.0871617 2.03986036,20.0871618 L9.63718359,20.0871618 C10.3075356,20.0871618 10.754437,20.5704846 10.754437,21.2954688 L10.754437,27.8203272 C10.754437,28.5453115 10.0840849,29.0286344 9.63718359,29.0286344 Z" fill="#C8D2FB" fill-rule="nonzero"></path>
                            <path d="M9.63718359,29.9952801 L2.03986036,29.9952801 C0.922606925,29.9952801 0.0288042159,29.0286344 0.0288041853,27.8203272 L0.0288041853,21.2954688 C0.0288041853,20.0871617 0.922606925,19.1205161 2.03986036,19.1205161 L9.63718359,19.1205161 C10.754437,19.1205161 11.6482397,20.0871618 11.6482397,21.2954688 L11.6482397,27.8203272 C11.6482397,29.0286344 10.5309863,29.99528 9.63718359,29.9952801 Z M2.03986036,21.0538074 C1.81640966,21.0538074 1.81640966,21.0538074 1.81640966,21.2954688 L1.81640966,27.8203272 C1.81640966,28.0619887 1.81640966,28.0619887 2.03986036,28.0619887 L9.63718359,28.0619887 L9.86063429,27.8203272 L9.86063429,21.2954688 C9.86063429,21.0538074 9.86063429,21.0538074 9.63718359,21.0538074 L2.03986036,21.0538074 Z M14.329648,10.1790434 L15.670352,10.1790434 L15.670352,14.528949 L14.329648,14.528949 L14.329648,10.1790434 Z M23.7145767,15.4955947 L24.8318301,15.4955947 L24.8318301,19.3621775 L23.7145767,19.3621775 L23.7145767,15.4955947 Z" fill="#5372F3" fill-rule="nonzero"></path>
                            <polygon fill="#5372F3" fill-rule="nonzero" points="5.16816993 15.2539333 6.50887402 15.2539333 6.50887402 19.6038389 5.16816993 19.6038389"></polygon>
                            <polygon fill="#5372F3" fill-rule="nonzero" points="5.16816993 14.0456262 24.8318301 14.0456262 24.8318301 15.4955947 5.16816993 15.4955947"></polygon>
                        </g>
                    </g>
                </g>
            </g>
        </g>
    </g>
</svg>