<?xml version="1.0" encoding="UTF-8"?>
<svg width="12px" height="14px" viewBox="0 0 12 14" version="1.1" xmlns="http://www.w3.org/2000/svg" xmlns:xlink="http://www.w3.org/1999/xlink">
    <!-- Generator: Sketch 46.2 (44496) - http://www.bohemiancoding.com/sketch -->
    <title>icon_map_p</title>
    <desc>Created with Sketch.</desc>
    <defs></defs>
    <g id="Page-1" stroke="none" stroke-width="1" fill="none" fill-rule="evenodd">
        <g id="【给我钱】" transform="translate(-16.000000, -149.000000)" fill-rule="nonzero" fill="#D2D2D2">
            <g id="icon_map_p" transform="translate(16.000000, 149.000000)">
                <path d="M6.00000845,0 C2.72162285,0 0,2.58371647 0,5.76870129 C0,10.3949726 6.00000845,14 6.00000845,14 C6.00000845,14 12,10.3949726 12,5.76870129 C12,2.58371645 9.33997694,0 6.00000845,0 L6.00000845,0 Z M6.12405256,8.37224089 C4.51534718,8.37224089 3.2166676,7.11085528 3.2166676,5.54846653 C3.15466244,3.98601071 4.51534718,2.72464187 6.12405256,2.72464187 C7.73201476,2.72464187 9.03136996,3.98601071 9.03136996,5.54846653 C9.03138684,7.11085528 7.73203164,8.37224089 6.12405256,8.37224089 L6.12405256,8.37224089 Z" id="Shape"></path>
            </g>
        </g>
    </g>
</svg>