<?xml version="1.0" encoding="UTF-8"?>
<svg width="15px" height="15px" viewBox="0 0 15 15" version="1.1" xmlns="http://www.w3.org/2000/svg" xmlns:xlink="http://www.w3.org/1999/xlink">
    <!-- Generator: Sketch 46.2 (44496) - http://www.bohemiancoding.com/sketch -->
    <title>icon_option</title>
    <desc>Created with Sketch.</desc>
    <defs></defs>
    <g id="Symbols" stroke="none" stroke-width="1" fill="none" fill-rule="evenodd">
        <g id="icon_option" fill-rule="nonzero" fill="#5592FF">
            <g id="Shape">
                <path d="M7.49990878,5.58171187 C6.43592559,5.58171187 5.57345473,6.44315155 5.57345473,7.50569255 C5.57345473,8.56830185 6.43592559,9.42969597 7.49990878,9.42969597 C8.56373231,9.42969597 9.42624879,8.56832463 9.42624879,7.50569255 C9.42624879,6.44315157 8.56382353,5.58171189 7.49990878,5.58171187 L7.49990878,5.58171187 Z M13.6632071,7.50455367 C13.6632071,6.69422639 14.2150397,6.00095193 14.9961166,5.71746494 C14.8072493,4.92512644 14.4929368,4.1679842 14.0650458,3.47462404 C13.3122025,3.82534981 12.4315782,3.72471944 11.8580572,3.15193721 C11.2846959,2.57922331 11.1838485,1.69997174 11.5345793,0.948250599 C10.8497431,0.526983371 10.0938895,0.209535318 9.28900331,0.0184105056 C9.00497951,0.798125019 8.31099812,1.34894987 7.49990878,1.34894989 C6.68877384,1.34894989 5.99479243,0.798125037 5.71076863,0.0184105056 C4.90588249,0.209512547 4.15005167,0.526983352 3.465147,0.948250599 C3.81596908,1.70004007 3.7150989,2.5792461 3.14173751,3.15193721 C2.56826212,3.72462831 1.68782025,3.82532702 0.935045437,3.47478348 C0.513069169,4.15881032 0.195110287,4.91362919 0.00356413125,5.71744215 C0.784641,6.00095193 1.33647366,6.69422637 1.33647366,7.50455367 C1.33647366,8.31510873 0.784412944,9.00854262 0.0030852,9.29189296 C0.191708749,10.0843117 0.505814888,10.8415651 0.933540244,11.5350527 C1.68661155,11.1837348 2.56787441,11.2841829 3.14166909,11.8572612 C3.71546377,12.4303851 3.81606028,13.310525 3.46425756,14.0626334 C4.14920784,14.4840373 4.90503866,14.8015309 5.70994762,14.9927923 C5.99346969,14.2119845 6.68797564,13.6601802 7.49986316,13.6601802 C8.31165947,13.6601802 9.00607419,14.2119617 9.28961906,14.9927012 C10.0830258,14.8041453 10.8411954,14.4902619 11.5354916,14.0629067 C11.183552,13.31073 11.2841257,12.4304534 11.857966,11.8572612 C12.4317151,11.2842968 13.3127955,11.1837803 14.0658212,11.5349161 C14.4875694,10.8507526 14.8053686,10.0958198 14.9966639,9.29191573 C14.2153134,9.00856539 13.6632071,8.31515429 13.6632071,7.50455367 L13.6632071,7.50455367 Z M7.49990878,11.3537222 C5.37203364,11.3537222 3.6470463,9.63091116 3.64704628,7.50571532 C3.64704628,5.38054227 5.37203363,3.65775401 7.49990878,3.65775401 C9.62766988,3.65775401 11.3526572,5.38051948 11.3526572,7.50571532 C11.3526572,9.63093393 9.6276699,11.3537222 7.49990878,11.3537222 Z"></path>
            </g>
        </g>
    </g>
</svg>