<?xml version="1.0" encoding="UTF-8"?>
<svg width="841px" height="757px" viewBox="0 0 841 757" version="1.1" xmlns="http://www.w3.org/2000/svg" xmlns:xlink="http://www.w3.org/1999/xlink">
    <!-- Generator: Sketch 49.3 (51167) - http://www.bohemiancoding.com/sketch -->
    <title>商铺</title>
    <desc>Created with Sketch.</desc>
    <defs></defs>
    <g id="Page-1" stroke="none" stroke-width="1" fill="none" fill-rule="evenodd">
        <g id="商铺" transform="translate(38.000000, 0.000000)">
            <path d="M733.961499,121.139179 L737,122.139915 L734.234613,122.139915 L733.961499,121.139179 Z M688.019829,66.594054 L77.7613453,66.594054 C57.617703,66.594054 41.1573454,51.7041377 41.1573454,33.2673725 C41.1573454,14.8907516 57.5400282,0 77.7613453,0 L688.019829,0 C708.330514,0 724.787531,14.9133057 724.787531,33.2673725 C724.788366,51.7266919 708.331349,66.594054 688.019829,66.594054 Z M90.006388,482.485077 L90.006388,702.01298 L675.92596,702.01298 L675.92596,482.485077 C675.92596,482.485077 684.26054,482.201062 688.016488,482.485077 L737,482.485077 L737,712.98098 C737,732.324924 712.087297,757 690.036866,757 L75.9689804,757 C53.7648701,757 29,732.324924 29,712.98098 L29,482.485077 L89.9896837,482.485077 L90.006388,482.485077 Z" id="Shape" fill="#FD6161" fill-rule="nonzero"></path>
            <path d="M573.806935,318.739333 C573.806935,370.286803 530.957974,411.999254 478.178679,411.999254 C425.398636,411.999254 382.531725,370.291281 382.531725,318.739333 C382.531725,370.286803 339.696225,411.999254 286.90272,411.999254 C234.110711,411.999254 191.274463,370.291281 191.274463,318.739333 C191.274463,370.286803 148.438215,411.999254 95.6297527,411.999254 C42.8482139,412 0,370.292027 0,318.739333 L65.5373577,148 L697.042386,148 L764.99988,318.739333 C765.082894,370.292027 722.228697,412 669.436688,412 C616.648418,412 573.806935,370.292027 573.806935,318.739333 Z" id="Path" stroke="#FD6161" stroke-width="76" fill="#FFCECE" stroke-linecap="round" stroke-linejoin="round"></path>
        </g>
    </g>
</svg>