<?xml version="1.0" encoding="UTF-8"?>
<svg width="127px" height="80px" viewBox="0 0 127 80" version="1.1" xmlns="http://www.w3.org/2000/svg" xmlns:xlink="http://www.w3.org/1999/xlink">
    <!-- Generator: Sketch 46.2 (44496) - http://www.bohemiancoding.com/sketch -->
    <title>img_idcard_front</title>
    <desc>Created with Sketch.</desc>
    <defs>
        <path d="M33.9969148,45 L33.9969148,43.1685186 C33.9969148,35.6100821 27.8695913,29.4827586 20.3111548,29.4827586 L20.3111548,29.4827586 L13.862569,29.4827586 L13.862569,29.4827586 C6.30413241,29.4827586 0.176808951,35.6100821 0.176808951,43.1685186 L0.176808951,43.1685186 L0.176808951,45 L33.9969148,45 Z" id="path-1"></path>
    </defs>
    <g id="Symbols" stroke="none" stroke-width="1" fill="none" fill-rule="evenodd">
        <g id="img_idcard_front">
            <g transform="translate(1.000000, 1.000000)">
                <g id="maximize" stroke="#EBF5FD" stroke-width="1.96000004" stroke-linecap="round" stroke-linejoin="round">
                    <path d="M4.88188976,0 L1.95275591,0 C0.874278599,0 0,0.873044738 0,1.95 L0,4.875 M125,4.875 L125,1.95 C125,0.873044738 124.125721,0 123.047244,0 L120.11811,0 M120.11811,78 L123.047244,78 C124.125721,78 125,77.1269553 125,76.05 L125,73.125 M0,73.125 L0,76.05 C0,77.1269553 0.874278599,78 1.95275591,78 L4.88188976,78" id="Shape"></path>
                </g>
                <g id="Group-7" transform="translate(2.000000, 1.000000)">
                    <rect id="Rectangle-7" fill="#EBF5FD" x="0" y="0" width="121" height="75" rx="8"></rect>
                    <g id="Group-6" transform="translate(10.000000, 15.000000)">
                        <g id="Group-5" transform="translate(63.000000, 0.000000)">
                            <rect id="Rectangle-8" fill="#3F3947" x="4.53333333" y="0" width="24.9333333" height="41.8965517" rx="12.4666667"></rect>
                            <path d="M21.1555556,26.3330642 C24.2768007,24.9005199 26.4444444,21.747653 26.4444444,18.0885057 L26.4444444,18.0885057 L26.4444444,12.4137931 L8.31111111,12.4137931 L8.31111111,18.0885057 C8.31111111,21.747653 10.4787548,24.9005199 13.6,26.3330642 L13.6,34.137931 L21.1555556,34.137931 L21.1555556,26.3330642 Z" id="Combined-Shape" fill="#FFD0A4"></path>
                            <mask id="mask-2" fill="white">
                                <use xlink:href="#path-1"></use>
                            </mask>
                            <use id="Combined-Shape" fill="#F54F46" xlink:href="#path-1"></use>
                            <ellipse id="Oval-4" fill="#FFD0A4" mask="url(#mask-2)" cx="17.3777778" cy="27.1551724" rx="10.5777778" ry="10.862069"></ellipse>
                        </g>
                        <rect id="Rectangle-13" fill="#3F3947" x="14" y="5" width="19" height="4" rx="2"></rect>
                        <rect id="Rectangle-13-Copy" fill="#7BCFF3" x="0" y="5" width="9" height="4" rx="2"></rect>
                        <rect id="Rectangle-13" fill="#3F3947" x="14" y="14" width="28" height="4" rx="2"></rect>
                        <rect id="Rectangle-13-Copy" fill="#7BCFF3" x="0" y="14" width="9" height="4" rx="2"></rect>
                        <rect id="Rectangle-13" fill="#3F3947" x="14" y="24" width="46" height="4" rx="2"></rect>
                        <rect id="Rectangle-13-Copy" fill="#7BCFF3" x="0" y="24" width="9" height="4" rx="2"></rect>
                        <rect id="Rectangle-13" fill="#3F3947" x="14" y="38" width="33" height="4" rx="2"></rect>
                        <rect id="Rectangle-13-Copy" fill="#7BCFF3" x="0" y="38" width="9" height="4" rx="2"></rect>
                    </g>
                </g>
            </g>
        </g>
    </g>
</svg>