<?xml version="1.0" encoding="UTF-8"?>
<svg width="127px" height="80px" viewBox="0 0 127 80" version="1.1" xmlns="http://www.w3.org/2000/svg" xmlns:xlink="http://www.w3.org/1999/xlink">
    <!-- Generator: Sketch 46.2 (44496) - http://www.bohemiancoding.com/sketch -->
    <title>img_report</title>
    <desc>Created with Sketch.</desc>
    <defs></defs>
    <g id="Symbols" stroke="none" stroke-width="1" fill="none" fill-rule="evenodd">
        <g id="img_report">
            <g>
                <g id="maximize" stroke="#EBF5FD" stroke-width="2" stroke-linecap="round" stroke-linejoin="round">
                    <path d="M6,1 L3,1 C1.8954305,1 1,1.8954305 1,3 L1,6 M126,6 L126,3 C126,1.8954305 125.104569,1 124,1 L121,1 M121,79 L124,79 C125.104569,79 126,78.1045695 126,77 L126,74 M1,74 L1,77 C1,78.1045695 1.8954305,79 3,79 L6,79" id="Shape"></path>
                </g>
                <g id="Group-7" transform="translate(3.000000, 2.000000)">
                    <path d="M8,0 L113,0 L113,0 C117.418278,-8.11624501e-16 121,3.581722 121,8 L121,75 L0,75 L0,8 L0,8 C-5.41083001e-16,3.581722 3.581722,8.11624501e-16 8,0 Z" id="8/0" fill="#EBF5FD"></path>
                    <g id="Group-6" transform="translate(16.000000, 14.000000)">
                        <rect id="Rectangle-13" fill="#3F3947" x="0" y="13" width="93" height="4" rx="2"></rect>
                        <rect id="Rectangle-13" fill="#3F3947" x="0" y="22" width="93" height="4" rx="2"></rect>
                        <rect id="Rectangle-13" fill="#3F3947" x="0" y="32" width="55" height="4" rx="2"></rect>
                        <rect id="Rectangle-13" fill="#FF6868" x="18" y="0" width="60" height="4" rx="2"></rect>
                        <rect id="Rectangle-13" fill="#3F3947" x="60" y="48" width="33" height="4" rx="2"></rect>
                    </g>
                </g>
            </g>
        </g>
    </g>
</svg>