<?xml version="1.0" encoding="utf-8"?>
<!-- Generator: Adobe Illustrator 21.0.0, SVG Export Plug-In . SVG Version: 6.00 Build 0)  -->
<svg version="1.1" id="图层_1" xmlns="http://www.w3.org/2000/svg" xmlns:xlink="http://www.w3.org/1999/xlink" x="0px" y="0px"
	 viewBox="0 0 46.8 47" style="enable-background:new 0 0 46.8 47;" xml:space="preserve">
<style type="text/css">
	.st0{fill:none;stroke:#FF6B6C;stroke-width:2;stroke-miterlimit:10;}
	.st1{fill:#FF6B6C;}
</style>
<path class="st0" d="M23.3,1.5c-12.1,0-22,9.9-22,22s9.9,22,22,22s22-9.9,22-22S35.5,1.5,23.3,1.5z"/>
<path class="st1" d="M26.8,22.2c1.2,0,2.3,0,3.5,0c0.3,0,0.5,0.2,0.5,0.5c0,0.5,0,1.1,0,1.6c0,0.2-0.2,0.4-0.4,0.4H25V28h5.3
	c0.2,0,0.4,0.2,0.4,0.4v1.7c0,0.2-0.2,0.4-0.4,0.4h-5.4c0,0.2,0,0.4,0,0.5c0,1.3,0,2.6,0,3.9c0,0.3-0.2,0.5-0.5,0.5
	c-0.7,0-1.5,0-2.2,0c-0.3,0-0.5-0.2-0.5-0.5c0-1.3,0-2.6,0-3.9v-0.5H16c-0.2,0-0.4-0.2-0.4-0.4v-1.7c0-0.2,0.2-0.4,0.4-0.4h5.7v-3.3
	H16c-0.2,0-0.4-0.2-0.4-0.4c0-0.7,0-1.3,0-1.9c0-0.1,0.3-0.2,0.4-0.2c1.4,0,2.8,0,4.2,0c0.2,0,0.3,0,0.6,0
	c-2.1-3.7-4.2-7.2-6.3-10.9c0.2,0,0.4,0,0.5,0c0.8,0,1.6,0,2.4,0c0.3,0,0.7,0.2,0.8,0.5c1.7,3.2,3.4,6.5,5.1,9.7l0,0
	c1.8-3.3,3.5-6.5,5.3-9.8c0.1-0.3,0.4-0.4,0.7-0.4c0.8,0,1.6,0,2.3,0c0.1,0,0.3,0,0.5,0c-2.1,3.7-4.3,7.2-6.4,10.9
	C26.2,22.2,26.5,22.2,26.8,22.2z"/>
</svg>
