<?xml version="1.0" encoding="utf-8"?>
<!-- Generator: Adobe Illustrator 21.0.0, SVG Export Plug-In . SVG Version: 6.00 Build 0)  -->
<svg version="1.1" id="图层_1" xmlns="http://www.w3.org/2000/svg" xmlns:xlink="http://www.w3.org/1999/xlink" x="0px" y="0px"
	 viewBox="0 0 28 18.4" style="enable-background:new 0 0 28 18.4;" xml:space="preserve">
<style type="text/css">
	.st0{fill:#999999;}
</style>
<g>
	<path class="st0" d="M26.6,10.3c-0.7,0-1.3-0.6-1.3-1.3c0-0.7,0.6-1.3,1.3-1.3S28,8.2,28,9C28,9.7,27.4,10.3,26.6,10.3z"/>
	<path class="st0" d="M21.4,10.3c-0.7,0-1.3-0.6-1.3-1.3c0-0.7,0.6-1.3,1.3-1.3s1.3,0.6,1.3,1.3C22.7,9.7,22.1,10.3,21.4,10.3
		L21.4,10.3z"/>
	<path class="st0" d="M16.2,10.3c-0.7,0-1.3-0.6-1.3-1.3c0-0.7,0.6-1.3,1.3-1.3c0.7,0,1.3,0.6,1.3,1.3C17.5,9.7,16.9,10.3,16.2,10.3
		L16.2,10.3z"/>
	<path class="st0" d="M10.9,10.3c-0.7,0-1.3-0.6-1.3-1.3c0-0.7,0.6-1.3,1.3-1.3s1.3,0.6,1.3,1.3C12.3,9.7,11.7,10.3,10.9,10.3z"/>
	<path class="st0" d="M0.2,9.9l8.2,8.2c0.4,0.4,1.1,0.3,1.6-0.3c0.5-0.5,0.6-1.2,0.3-1.6L3.2,9.2l7.1-7.1c0.4-0.4,0.3-1.1-0.3-1.6
		C9.6,0,8.8-0.2,8.5,0.2L0.2,8.5C0,8.6,0,8.9,0,9.2C0,9.5,0,9.7,0.2,9.9z"/>
</g>
</svg>
