<?xml version="1.0" encoding="UTF-8"?>
<svg width="14px" height="16px" viewBox="0 0 14 16" version="1.1" xmlns="http://www.w3.org/2000/svg" xmlns:xlink="http://www.w3.org/1999/xlink">
    <!-- Generator: Sketch 48 (47235) - http://www.bohemiancoding.com/sketch -->
    <title>iPhone 8</title>
    <desc>Created with Sketch.</desc>
    <defs></defs>
    <g id="Page-1" stroke="none" stroke-width="1" fill="none" fill-rule="evenodd">
        <g id="iPhone-8" fill="#47C2A2" fill-rule="nonzero">
            <g id="借条">
                <path d="M12.4456946,0 L1.5543054,0 C0.69598163,0 0,0.6765625 0,1.5109375 L0,14.9609375 C0,15.2578125 0.126980482,15.525 0.33272101,15.7140625 C0.560964409,15.9265625 0.93869116,15.865625 1.08817451,15.59375 C1.23765786,15.3234375 1.53180253,15.1390625 1.86934558,15.1390625 C2.24707233,15.1390625 2.56854191,15.36875 2.69712974,15.690625 C2.76946039,15.875 2.94948335,16 3.15200918,16 C3.35614237,16 3.53455798,15.875 3.60688863,15.690625 C3.73547646,15.3671875 4.05694604,15.1390625 4.43467279,15.1390625 C4.81239954,15.1390625 5.13386912,15.36875 5.26245695,15.690625 C5.3347876,15.875 5.51481056,16 5.71733639,16 C5.92146958,16 6.09988519,15.875 6.17221584,15.690625 C6.30080367,15.3671875 6.62227325,15.1390625 7,15.1390625 C7.37772675,15.1390625 7.69919633,15.36875 7.82778416,15.690625 C7.90011481,15.875 8.08013777,16 8.28266361,16 C8.48679679,16 8.6652124,15.875 8.73754305,15.690625 C8.86613088,15.3671875 9.18760046,15.1390625 9.56532721,15.1390625 C9.94305396,15.1390625 10.2645235,15.36875 10.3931114,15.690625 C10.465442,15.875 10.645465,16 10.8479908,16 C11.052124,16 11.2305396,15.875 11.3028703,15.690625 C11.4314581,15.3671875 11.7529277,15.1390625 12.1306544,15.1390625 C12.4681975,15.1390625 12.7623421,15.3234375 12.9118255,15.59375 C13.0613088,15.8640625 13.4374282,15.925 13.667279,15.7140625 C13.8714122,15.525 14,15.2578125 14,14.9609375 L14,1.5109375 C14,0.6765625 13.3040184,0 12.4456946,0 Z M10,11.5 C10,11.7762431 9.73355263,12 9.40460526,12 L4.59539474,12 C4.26644737,12 4,11.7762431 4,11.5 C4,11.2237569 4.26644737,11 4.59539474,11 L9.40460526,11 C9.73355263,11 10,11.2237569 10,11.5 Z M8.24371069,7.28529427 L9.40251572,7.28529427 C9.7327044,7.28529427 10,7.55943631 10,7.9049526 C10,8.24722462 9.73427673,8.52461094 9.40251572,8.52461094 L7.5990566,8.52461094 L7.5990566,10.3819638 C7.5990566,10.7226137 7.33333333,11 6.99842767,11 C6.66666667,11 6.39779874,10.7242358 6.39779874,10.3770974 L6.39779874,8.87661581 L6.39779874,8.52461094 L4.59748428,8.52461094 C4.2672956,8.52461094 4,8.2504689 4,7.9049526 C4,7.56268059 4.26886792,7.28529427 4.59748428,7.28529427 L6.39937107,7.28529427 L6.39937107,6.04759974 L4.59748428,6.04759974 C4.2672956,6.04759974 4,5.7734577 4,5.4279414 C4,5.08566939 4.26572327,4.80828306 4.59748428,4.80828306 L5.9591195,4.80828306 L5.22012579,4.04587621 C4.98899371,3.8074213 4.98742138,3.42135145 5.22169811,3.17965225 C5.45440252,2.9395752 5.83176101,2.94119734 6.06132075,3.17803011 L7.13207547,4.28270898 C7.15408805,4.30541897 7.17295597,4.32812896 7.19025157,4.35246109 C7.20125786,4.33786181 7.21383648,4.32488468 7.22798742,4.3102854 L8.31761006,3.18614082 C8.55031447,2.94606377 8.93553459,2.94444163 9.17138365,3.18776296 C9.40880503,3.43270644 9.40880503,3.82688701 9.17295597,4.0685862 L8.45597484,4.80828306 L9.40251572,4.80828306 C9.7327044,4.80828306 10,5.0824251 10,5.4279414 C10,5.77021341 9.73427673,6.04759974 9.40251572,6.04759974 L7.5990566,6.04759974 L7.5990566,7.28529427 L8.24371069,7.28529427 Z" id="Shape"></path>
            </g>
        </g>
    </g>
</svg>