<?xml version="1.0" encoding="UTF-8"?>
<svg width="320px" height="4px" viewBox="0 0 320 4" version="1.1" xmlns="http://www.w3.org/2000/svg" xmlns:xlink="http://www.w3.org/1999/xlink">
    <!-- Generator: Sketch 46.2 (44496) - http://www.bohemiancoding.com/sketch -->
    <title>Group 12</title>
    <desc>Created with Sketch.</desc>
    <defs></defs>
    <g id="Page-1" stroke="none" stroke-width="1" fill="none" fill-rule="evenodd">
        <g id="【确认订单】1" transform="translate(0.000000, -149.000000)">
            <g id="Group-Copy-3" transform="translate(0.000000, 65.000000)">
                <g id="Group-2">
                    <g id="Group-12" transform="translate(-29.000000, 84.000000)">
                        <polygon id="Rectangle-17-Copy-2" fill="#FF6868" points="38.94577 0 58.7636719 0 54.8179019 4 35 4"></polygon>
                        <polygon id="Rectangle-17-Copy" fill-opacity="0.787109375" fill="#FFFFFF" points="19.94577 0 39.7636719 0 35.8179019 4 16 4"></polygon>
                        <polygon id="Rectangle-17-Copy-3" fill="#FFFFFF" points="54.94577 0 74.7636719 0 70.8179019 4 51 4"></polygon>
                        <polygon id="Rectangle-17-Copy-5" fill="#FF6868" points="72.94577 0 92.7636719 0 88.8179019 4 69 4"></polygon>
                        <polygon id="Rectangle-17-Copy-4" fill="#FFFFFF" points="89.94577 0 109.763672 0 105.817902 4 86 4"></polygon>
                        <polygon id="Rectangle-17-Copy-7" fill="#FF6868" points="107.94577 0 127.763672 0 123.817902 4 104 4"></polygon>
                        <polygon id="Rectangle-17-Copy-6" fill="#FFFFFF" points="123.94577 0 143.763672 0 139.817902 4 120 4"></polygon>
                        <polygon id="Rectangle-17-Copy-9" fill="#FF6868" points="142.94577 0 162.763672 0 158.817902 4 139 4"></polygon>
                        <polygon id="Rectangle-17-Copy-8" fill="#FFFFFF" points="158.94577 0 178.763672 0 174.817902 4 155 4"></polygon>
                        <polygon id="Rectangle-17-Copy-11" fill="#FF6868" points="176.94577 0 196.763672 0 192.817902 4 173 4"></polygon>
                        <polygon id="Rectangle-17-Copy-10" fill="#FFFFFF" points="193.94577 0 213.763672 0 209.817902 4 190 4"></polygon>
                        <polygon id="Rectangle-17-Copy-13" fill="#FF6868" points="211.94577 0 231.763672 0 227.817902 4 208 4"></polygon>
                        <polygon id="Rectangle-17-Copy-12" fill="#FFFFFF" points="227.94577 0 247.763672 0 243.817902 4 224 4"></polygon>
                        <polygon id="Rectangle-17-Copy-15" fill="#FF6868" points="245.94577 0 265.763672 0 261.817902 4 242 4"></polygon>
                        <polygon id="Rectangle-17-Copy-14" fill="#FFFFFF" points="262.94577 0 282.763672 0 278.817902 4 259 4"></polygon>
                        <polygon id="Rectangle-17-Copy-17" fill="#FF6868" points="280.94577 0 300.763672 0 296.817902 4 277 4"></polygon>
                        <polygon id="Rectangle-17-Copy-16" fill="#FFFFFF" points="297.94577 0 317.763672 0 313.817902 4 294 4"></polygon>
                        <polygon id="Rectangle-17-Copy-19" fill="#FF6868" points="315.94577 0 335.763672 0 331.817902 4 312 4"></polygon>
                        <polygon id="Rectangle-17-Copy-18" fill="#FFFFFF" points="331.94577 0 351.763672 0 347.817902 4 328 4"></polygon>
                    </g>
                </g>
            </g>
        </g>
    </g>
</svg>