<?xml version="1.0" encoding="utf-8"?>
<!-- Generator: Adobe Illustrator 21.0.0, SVG Export Plug-In . SVG Version: 6.00 Build 0)  -->
<svg version="1.1" id="图层_1" xmlns="http://www.w3.org/2000/svg" xmlns:xlink="http://www.w3.org/1999/xlink" x="0px" y="0px"
	 viewBox="0 0 17.7 26.5" style="enable-background:new 0 0 17.7 26.5;" xml:space="preserve">
<style type="text/css">
	.st0{fill:#FF5444;}
</style>
<path class="st0" d="M15.1,26.4H2.5c-1.4,0-2.5-1.2-2.5-2.7V2.7c0-1.5,1.1-2.7,2.5-2.7h12.6c1.4,0,2.5,1.2,2.5,2.7v21.1
	C17.6,25.2,16.5,26.4,15.1,26.4z M2.5,1.8c-0.4,0-0.7,0.4-0.7,0.9v21.1c0,0.5,0.3,0.9,0.7,0.9h12.6c0.4,0,0.7-0.4,0.7-0.9V2.7
	c0-0.5-0.3-0.9-0.7-0.9L2.5,1.8z"/>
<path class="st0" d="M10.5,22.9H7c-0.5,0-0.9-0.4-0.9-0.9s0.4-0.9,0.9-0.9h3.5c0.5,0,0.9,0.4,0.9,0.9S11,22.9,10.5,22.9z"/>
</svg>
