<?xml version="1.0" encoding="utf-8"?>
<!-- Generator: Adobe Illustrator 21.0.0, SVG Export Plug-In . SVG Version: 6.00 Build 0)  -->
<svg version="1.1" id="图层_1" xmlns="http://www.w3.org/2000/svg" xmlns:xlink="http://www.w3.org/1999/xlink" x="0px" y="0px"
	 viewBox="0 0 21.7 19.3" style="enable-background:new 0 0 21.7 19.3;" xml:space="preserve">
<style type="text/css">
	.st0{fill:none;stroke:#FF5444;stroke-miterlimit:10;}
	.st1{fill:#FF5444;}
</style>
<path class="st0" d="M1.4,0.6h18.9c0.4,0,0.8,0.4,0.8,0.8v16.5c0,0.4-0.4,0.8-0.8,0.8H1.4c-0.4,0-0.8-0.4-0.8-0.8V1.4
	C0.6,0.9,0.9,0.6,1.4,0.6z"/>
<path class="st1" d="M11.9,8.1h4.2c0.3,0,0.5,0.2,0.5,0.5v4.2c0,0.3-0.2,0.5-0.5,0.5h-4.2c-0.3,0-0.5-0.2-0.5-0.5V8.6
	C11.5,8.3,11.7,8.1,11.9,8.1z"/>
<rect x="12.4" y="9.1" class="st1" width="3.2" height="3.2"/>
<path class="st1" d="M10.3,8.1c0.3,0,0.5,0.2,0.5,0.5c0,0.3-0.2,0.5-0.5,0.5H5.5c-0.3,0-0.5-0.2-0.5-0.5c0-0.3,0.2-0.5,0.5-0.5H10.3
	z"/>
<path class="st1" d="M10.3,10.2c0.3,0,0.5,0.2,0.5,0.5s-0.2,0.5-0.5,0.5H5.5c-0.3,0-0.5-0.2-0.5-0.5s0.2-0.5,0.5-0.5H10.3z"/>
<path class="st1" d="M10.3,12.3c0.3,0,0.5,0.2,0.5,0.5s-0.2,0.5-0.5,0.5H5.5c-0.3,0-0.5-0.2-0.5-0.5s0.2-0.5,0.5-0.5H10.3z"/>
<path class="st1" d="M16.1,14.3c0.3,0,0.5,0.2,0.5,0.5s-0.2,0.5-0.5,0.5H5.5c-0.3,0-0.5-0.2-0.5-0.5s0.2-0.5,0.5-0.5H16.1z"/>
<circle class="st1" cx="18.2" cy="3.8" r="0.8"/>
<path class="st1" d="M16.3,3c0.4,0,0.8,0.4,0.8,0.8c0,0.4-0.4,0.8-0.8,0.8c-0.4,0-0.8-0.4-0.8-0.8C15.5,3.3,15.9,3,16.3,3z"/>
<ellipse class="st1" cx="14.4" cy="3.8" rx="0.8" ry="0.8"/>
</svg>
