<?xml version="1.0" encoding="utf-8"?>
<!-- Generator: Adobe Illustrator 21.0.0, SVG Export Plug-In . SVG Version: 6.00 Build 0)  -->
<svg version="1.1" id="图层_1" xmlns="http://www.w3.org/2000/svg" xmlns:xlink="http://www.w3.org/1999/xlink" x="0px" y="0px"
	 viewBox="0 0 24.3 30.9" style="enable-background:new 0 0 24.3 30.9;" xml:space="preserve">
<style type="text/css">
	.st0{fill:none;stroke:#FF5444;stroke-linecap:round;stroke-linejoin:round;stroke-miterlimit:10;}
</style>
<path class="st0" d="M21.7,6.6h-2.6V5.3c0-0.8-0.7-1.5-1.5-1.5h-1.8C15.5,2,14,0.7,12.2,0.7c-1.8,0-3.3,1.4-3.6,3.1H6.8
	c-0.8,0-1.5,0.7-1.5,1.5v1.3H2.6c-1,0-1.8,0.8-1.8,1.8v19.9c0,1,0.8,1.8,1.8,1.8h19.1c1,0,1.8-0.8,1.8-1.8V8.4
	C23.6,7.4,22.7,6.6,21.7,6.6z"/>
<line class="st0" x1="5.9" y1="15.1" x2="18.4" y2="15.1"/>
<line class="st0" x1="5.9" y1="19.8" x2="18.4" y2="19.8"/>
<line class="st0" x1="5.9" y1="24.5" x2="18.4" y2="24.5"/>
</svg>
