<?xml version="1.0" encoding="utf-8"?>
<!-- Generator: Adobe Illustrator 21.0.0, SVG Export Plug-In . SVG Version: 6.00 Build 0)  -->
<svg version="1.1" id="图层_1" xmlns="http://www.w3.org/2000/svg" xmlns:xlink="http://www.w3.org/1999/xlink" x="0px" y="0px"
	 viewBox="0 0 28.7 30.4" style="enable-background:new 0 0 28.7 30.4;" xml:space="preserve">
<style type="text/css">
	.st0{fill:#999999;}
</style>
<path class="st0" d="M15.2,7.9c-2.2,0-3.9-1.8-3.9-3.9C11.2,1.8,13,0,15.2,0c2.2,0,3.9,1.8,3.9,3.9S17.3,7.9,15.2,7.9z M6.8,11
	c-2,0-3.6-1.6-3.6-3.6s1.6-3.6,3.6-3.6c2,0,3.6,1.6,3.6,3.6C10.4,9.4,8.7,11,6.8,11z M3.2,19.2C1.4,19.2,0,17.8,0,16
	c0-1.8,1.4-3.2,3.2-3.2c1.8,0,3.2,1.4,3.2,3.2C6.4,17.8,4.9,19.2,3.2,19.2z M6.8,27.3c-1.5,0-2.7-1.2-2.7-2.7c0-1.5,1.2-2.7,2.7-2.7
	s2.7,1.2,2.7,2.7C9.4,26.1,8.2,27.3,6.8,27.3z M15.2,30.4c-1.3,0-2.4-1.1-2.4-2.4s1.1-2.4,2.4-2.4c1.3,0,2.4,1.1,2.4,2.4
	C17.5,29.3,16.5,30.4,15.2,30.4z M23.7,26.4c-1,0-1.9-0.9-1.9-1.9s0.9-1.9,1.9-1.9c1,0,1.9,0.9,1.9,1.9S24.7,26.4,23.7,26.4z
	 M27.2,17.6c-0.9,0-1.6-0.7-1.6-1.6c0-0.9,0.7-1.6,1.6-1.6c0.9,0,1.6,0.7,1.6,1.6C28.7,16.9,28,17.6,27.2,17.6z M22.5,7.5
	c0,0.7,0.5,1.2,1.2,1.2s1.2-0.5,1.2-1.2c0-0.7-0.5-1.2-1.2-1.2S22.5,6.9,22.5,7.5z"/>
</svg>
