<?xml version="1.0" encoding="utf-8"?>
<!-- Generator: Adobe Illustrator 21.0.0, SVG Export Plug-In . SVG Version: 6.00 Build 0)  -->
<svg version="1.1" id="图层_1" xmlns="http://www.w3.org/2000/svg" xmlns:xlink="http://www.w3.org/1999/xlink" x="0px" y="0px"
	 viewBox="0 0 25.4 27.9" style="enable-background:new 0 0 25.4 27.9;" xml:space="preserve">
<style type="text/css">
	.st0{fill:none;stroke:#448AFF;stroke-miterlimit:10;}
	.st1{fill:none;stroke:#448AFF;stroke-width:2;stroke-linecap:round;stroke-linejoin:round;stroke-miterlimit:10;}
</style>
<path class="st0" d="M6.8,1.7C5.3,2.2,3.6,2.6,1.9,2.6c-0.7,0-1.2,0.5-1.2,1.2l0,10.8c0,0.3,0,0.3,0,0.4c0.1,0.8,1.2,9.1,11.9,12.2
	c0,0,10.5-2,12-12.1c0-0.1,0-0.1,0-0.2l0-11c0-0.7-0.6-1.2-1.3-1.2c-1,0.1-2.5-0.1-4.6-0.9C14.9,0.3,10.6,0.3,6.8,1.7z"/>
<path class="st0" d="M8.8,5.9c-1,0.4-2.1,0.6-3.2,0.6c-0.4,0-0.8,0.3-0.8,0.8l0,7c0,0.2,0,0.2,0,0.2c0.1,0.5,0.8,5.9,7.7,7.9
	c0,0,6.8-1.3,7.8-7.9c0,0,0-0.1,0-0.1l0-7.2c0-0.5-0.4-0.8-0.8-0.8c-0.6,0-1.6,0-3-0.6C14.1,5.1,11.3,5,8.8,5.9z"/>
<line class="st1" x1="19.6" y1="7.5" x2="8.1" y2="19.3"/>
</svg>
