<?xml version="1.0" encoding="utf-8"?>
<!-- Generator: Adobe Illustrator 21.0.0, SVG Export Plug-In . SVG Version: 6.00 Build 0)  -->
<svg version="1.1" id="图层_1" xmlns="http://www.w3.org/2000/svg" xmlns:xlink="http://www.w3.org/1999/xlink" x="0px" y="0px"
	 viewBox="0 0 45.1 33.4" style="enable-background:new 0 0 45.1 33.4;" xml:space="preserve">
<style type="text/css">
	.st0{fill:none;stroke:#FF6B6C;stroke-width:2;stroke-miterlimit:10;}
</style>
<title>资源 3</title>
<path class="st0" d="M29.3,25.8l5,0.2l3.2-16.4c1.5,1,2.5,2.2,3.5,3.5c1.2,1.7,2,2.4,2.5,2.1s0.2-1.2,0.2-1.2
	c-0.4-1.5-6.2-12.7-21.3-12.7C10.2,1.4,1.6,9.7,1.6,16.8s8.2,15.3,21,15.3s19.1-7,20.8-11.7c0,0,0.3-0.9,0-1.1s-1.2,0.3-2.4,2
	c-2.9,4.1-8.3,7.4-16.1,7.4c-2.7-0.1-9.3-1.4-11-2.8l6.1,0.3c2.8,0,9.2-0.7,9.2-5.1s-5.8-4.7-5.8-8.4c0-1.6,2.4-2.1,4-2.1
	s3.8-0.1,3.8-0.1l0.4-1.7h-7.7c-4.2,0-7.6,1.5-7.6,4.3c0,4.6,6.2,5.4,6.2,8.1c0,1.5-1.8,2.7-4.1,2.7c-1.6-0.1-3.1-0.6-4.5-1.4
	l-1.4,2.3c-2.2-1.1-4.3-4.9-4.3-8.1c0-7.4,10.6-11,16.7-11s9.5,1.7,10.9,2.8l-3.3,0.2L29.3,25.8z"/>
</svg>
