<?xml version="1.0" encoding="UTF-8"?>
<svg width="15px" height="16px" viewBox="0 0 15 16" version="1.1" xmlns="http://www.w3.org/2000/svg" xmlns:xlink="http://www.w3.org/1999/xlink">
    <!-- Generator: Sketch 48 (47235) - http://www.bohemiancoding.com/sketch -->
    <title>上架</title>
    <desc>Created with Sketch.</desc>
    <defs></defs>
    <g id="商品管理_已下架" stroke="none" stroke-width="1" fill="none" fill-rule="evenodd" transform="translate(-206.000000, -314.000000)">
        <g id="上架" transform="translate(206.000000, 314.000000)" fill="#8A8A8A">
            <g id="上传">
                <path d="M0.697383705,7.49033847 C0.796239201,7.49033847 0.895177128,7.4531093 0.971142141,7.37848666 L7.14996111,1.30928839 L7.14996111,12.3190284 C7.14996111,12.5337174 7.3245756,12.7077479 7.53998499,12.7077479 C7.75539437,12.7077479 7.93000887,12.5337174 7.93000887,12.3190284 L7.93000887,1.32434025 L14.0213867,7.30671833 C14.0973723,7.38134097 14.1962278,7.41854962 14.2951039,7.41854962 C14.3958755,7.41854962 14.496606,7.37986248 14.5729212,7.30267302 C14.7241096,7.14975207 14.7222965,6.90364521 14.5688624,6.75296252 L7.82272659,0.127523739 C7.75518838,0.0611765418 7.6695397,0.0244812441 7.58189251,0.0171298796 C7.53337132,0.0148094649 7.52692242,0.0154665753 7.5203705,0.0157951304 C7.41990793,0.0145630635 7.31899208,0.0516895585 7.24177025,0.127544268 L0.423604671,6.8247719 C0.270191154,6.9754546 0.268398644,7.22158198 0.419586987,7.37448241 C0.495902275,7.45167187 0.596612094,7.49033847 0.697383705,7.49033847 Z" id="Shape" fill-rule="nonzero"></path>
                <path d="M14.5939574,12.0216747 C14.378548,12.0216747 14.2039336,12.1957052 14.2039336,12.4103941 L14.2039336,14.7298283 C14.2039336,14.9918084 13.99009,15.2049367 13.7272308,15.2049367 L1.26521563,15.2049367 C1.00235644,15.2049367 0.788512893,14.9918084 0.788512893,14.7298283 L0.788512913,12.4103941 C0.788512913,12.1957052 0.613898416,12.0216747 0.398489034,12.0216747 C0.183079651,12.0216747 0.00846515436,12.1957052 0.00846515436,12.4103941 L0.00846515436,14.7298283 C0.00846515436,15.4204881 0.572238201,15.9823551 1.26519505,15.9823551 L13.7272102,15.9823551 C14.4201877,15.9823551 14.9839401,15.4204881 14.9839401,14.7298283 L14.9839401,12.4103941 C14.9839813,12.1957052 14.8093668,12.0216747 14.5939574,12.0216747 Z" id="Shape" fill-rule="nonzero"></path>
            </g>
        </g>
    </g>
</svg>