<?xml version="1.0" encoding="UTF-8"?>
<svg width="23px" height="26px" viewBox="0 0 23 26" version="1.1" xmlns="http://www.w3.org/2000/svg" xmlns:xlink="http://www.w3.org/1999/xlink">
    <!-- Generator: Sketch 48 (47235) - http://www.bohemiancoding.com/sketch -->
    <title>收款 copy</title>
    <desc>Created with Sketch.</desc>
    <defs></defs>
    <g id="Page-1" stroke="none" stroke-width="1" fill="none" fill-rule="evenodd">
        <g id="收款">
            <g>
                <rect id="Rectangle-28" fill="#C8D2FB" x="1.593" y="1.89" width="17.55" height="15.174"></rect>
                <path d="M6.860835,23.921325 L4.041846,23.921325 C3.064338,23.921325 1.874205,23.013936 1.874205,22.274217 L1.874205,3.377349 C1.874205,2.535867 2.545101,1.87596 3.417012,1.87596 L17.787843,1.87596 C18.117945,1.87596 18.702279,1.87677 18.702279,3.377349 L18.702279,17.624142 C18.702279,18.146079 19.142649,18.56898 19.660077,18.56898 C20.177505,18.56898 20.617875,18.146079 20.617875,17.624142 L20.617875,3.377349 C20.617875,1.254528 19.553022,0.004158 17.787816,0.004158 L3.416985,0.004158 C1.494342,0.004158 0.017496,1.476279 0.017496,3.377349 L0.017496,22.274244 C0.017496,24.234363 2.205819,25.793127 4.041819,25.793127 L6.860808,25.793127 C7.378236,25.793127 7.798005,25.37919 7.798005,24.857253 C7.798005,24.335289 7.378209,23.921352 6.860808,23.921352 L6.860835,23.921325 Z" id="Shape" fill="#4768F3" fill-rule="nonzero"></path>
                <path d="M14.552298,4.605903 C14.308218,4.361823 13.91283,4.361823 13.668777,4.605903 L10.317699,7.956954 L6.966621,4.605903 C6.722541,4.361823 6.327153,4.361823 6.0831,4.605903 C5.839047,4.849983 5.83902,5.245371 6.0831,5.489424 L8.910378,8.316702 L6.568803,8.316702 C6.223446,8.316702 5.943996,8.590563 5.943996,8.935596 C5.943996,9.280629 6.223446,9.55449 6.568803,9.55449 L9.716247,9.55449 L9.716247,11.411172 L6.568803,11.411172 C6.223446,11.411172 5.943996,11.685033 5.943996,12.030066 C5.943996,12.375099 6.223446,12.64896 6.568803,12.64896 L9.716247,12.64896 L9.716247,14.536476 C9.716247,14.881536 9.989757,15.161283 10.335141,15.161283 C10.680525,15.161283 10.954035,14.881509 10.954035,14.536476 L10.954035,12.64896 L14.066622,12.64896 C14.411952,12.64896 14.691429,12.375099 14.691429,12.030066 C14.691429,11.685033 14.411979,11.411172 14.066622,11.411172 L10.954035,11.411172 L10.954035,9.55449 L14.066622,9.55449 C14.411952,9.55449 14.691429,9.280629 14.691429,8.935596 C14.691429,8.590563 14.411979,8.316702 14.066622,8.316702 L11.725047,8.316702 L14.552325,5.489424 C14.796378,5.245371 14.796378,4.849956 14.552325,4.605903 L14.552298,4.605903 Z" id="Shape" fill="#4768F3" fill-rule="nonzero"></path>
                <path d="M22.48128,20.252538 L10.410579,20.252538 L12.008628,18.654651 C12.374721,18.288855 12.374721,17.695449 12.008628,17.329356 C11.642535,16.963263 11.049426,16.963263 10.683333,17.329356 L7.629336,20.383083 C7.356204,20.544192 7.173252,20.839167 7.173252,21.180879 C7.173252,21.503664 7.336467,21.784788 7.584759,21.95073 L10.653849,25.01955 C10.836909,25.20261 11.076696,25.29414 11.31651,25.29414 C11.556324,25.29414 11.796084,25.20261 11.979171,25.01955 C12.345264,24.653457 12.345264,24.060051 11.979171,23.694255 L10.393974,22.10922 L22.481307,22.10922 C22.998735,22.10922 23.418504,21.698577 23.418504,21.180879 C23.418504,20.663181 22.998681,20.252565 22.481253,20.252565 L22.48128,20.252538 Z" id="Shape" fill="#4768F3" fill-rule="nonzero"></path>
            </g>
        </g>
    </g>
</svg>