<?xml version="1.0" encoding="utf-8"?>
<!-- Generator: Adobe Illustrator 21.0.0, SVG Export Plug-In . SVG Version: 6.00 Build 0)  -->
<svg version="1.1" id="图层_1" xmlns="http://www.w3.org/2000/svg" xmlns:xlink="http://www.w3.org/1999/xlink" x="0px" y="0px"
	 viewBox="0 0 29 29" style="enable-background:new 0 0 29 29;" xml:space="preserve">
<style type="text/css">
	.st0{fill:#FF5444;}
</style>
<path class="st0" d="M14.5,29c8,0,14.5-6.5,14.5-14.5S22.5,0,14.5,0S0,6.5,0,14.5S6.5,29,14.5,29L14.5,29z M14.5,28
	C7,28,1,22,1,14.5S7,1,14.5,1S28,7,28,14.5S22,28,14.5,28L14.5,28z"/>
<path class="st0" d="M23,20.8c-2-2.7-5.1-4.3-8.6-4.3c-3.4,0-6.5,1.6-8.5,4.3c-0.3,0.4-0.2,0.9,0.2,1.2c0.4,0.3,0.9,0.2,1.2-0.2
	c1.7-2.3,4.3-3.6,7.2-3.6c2.9,0,5.5,1.4,7.2,3.6c0.3,0.4,0.8,0.5,1.2,0.2C23.3,21.7,23.3,21.2,23,20.8L23,20.8z"/>
<path class="st0" d="M11.6,11.1L11.6,11.1c0,1.6,1.3,2.9,2.8,2.9s2.8-1.3,2.8-2.9s-1.3-2.9-2.8-2.9S11.6,9.5,11.6,11.1L11.6,11.1
	L11.6,11.1L11.6,11.1L11.6,11.1L11.6,11.1L11.6,11.1L11.6,11.1z M14.4,6.5c2.5,0,4.5,2,4.5,4.6s-2,4.6-4.5,4.6s-4.5-2-4.5-4.6
	S11.9,6.5,14.4,6.5L14.4,6.5L14.4,6.5L14.4,6.5L14.4,6.5z"/>
</svg>
