<?xml version="1.0" encoding="utf-8"?>
<!-- Generator: Adobe Illustrator 21.0.0, SVG Export Plug-In . SVG Version: 6.00 Build 0)  -->
<svg version="1.1" id="图层_1" xmlns="http://www.w3.org/2000/svg" xmlns:xlink="http://www.w3.org/1999/xlink" x="0px" y="0px"
	 viewBox="0 0 24.8 27.9" style="enable-background:new 0 0 24.8 27.9;" xml:space="preserve">
<style type="text/css">
	.st0{fill:none;stroke:#2379BF;stroke-miterlimit:10;}
	.st1{fill:none;stroke:#2379BF;stroke-linecap:round;stroke-linejoin:round;stroke-miterlimit:10;}
	.st2{fill:none;stroke:#2379BF;stroke-width:2;stroke-linecap:round;stroke-linejoin:round;stroke-miterlimit:10;}
</style>
<g>
	<path class="st0" d="M3.3,0.6h12.9c0,0,1.7-0.1,2.2,0.3s5,5.5,5,5.5S24,7,24,8.5c0,1,0,15,0,15s0,3.4-3.1,3.7
		c-3.1,0.2-17.6,0-17.6,0s-2.6,0.1-2.6-4.1c0-3.4,0-19.6,0-19.6S0.6,0.6,3.3,0.6z"/>
	<path class="st1" d="M16.6,0.9v5.5c0,0,0,2.1,2.1,2.1c1.3,0,4.8,0,4.8,0"/>
	<line class="st2" x1="6" y1="9.4" x2="13.1" y2="9.4"/>
	<line class="st2" x1="6" y1="14.7" x2="18.3" y2="14.7"/>
	<line class="st2" x1="6" y1="20" x2="18.3" y2="20"/>
</g>
</svg>
