<?xml version="1.0" encoding="utf-8"?>
<!-- Generator: Adobe Illustrator 21.0.0, SVG Export Plug-In . SVG Version: 6.00 Build 0)  -->
<svg version="1.1" id="图层_1" xmlns="http://www.w3.org/2000/svg" xmlns:xlink="http://www.w3.org/1999/xlink" x="0px" y="0px"
	 viewBox="0 0 22.1 30.1" style="enable-background:new 0 0 22.1 30.1;" xml:space="preserve">
<style type="text/css">
	.st0{fill:none;stroke:#FF5444;stroke-miterlimit:10;}
	.st1{fill:#FF5444;}
</style>
<path class="st0" d="M18.7,29.4H3.4c-1.5,0-2.7-1.2-2.7-2.7V3.3c0-1.5,1.2-2.7,2.7-2.7h15.3c1.5,0,2.7,1.2,2.7,2.7v23.3
	C21.4,28.2,20.2,29.4,18.7,29.4z"/>
<path class="st1" d="M16.6,5.3v16.1H5.4V5.3H16.6 M16.6,4.6H5.4C5,4.6,4.7,4.9,4.7,5.3v16.1c0,0.4,0.3,0.7,0.7,0.7h11.2
	c0.4,0,0.7-0.3,0.7-0.7V5.3C17.3,4.9,17,4.6,16.6,4.6z"/>
<path class="st1" d="M9.8,24.8c0,0.7,0.5,1.2,1.2,1.2c0.7,0,1.2-0.5,1.2-1.2c0,0,0,0,0,0c0-0.7-0.5-1.2-1.2-1.2
	C10.4,23.6,9.8,24.1,9.8,24.8L9.8,24.8z"/>
</svg>
