<?xml version="1.0" encoding="utf-8"?>
<!-- Generator: Adobe Illustrator 21.0.0, SVG Export Plug-In . SVG Version: 6.00 Build 0)  -->
<svg version="1.1" id="图层_1" xmlns="http://www.w3.org/2000/svg" xmlns:xlink="http://www.w3.org/1999/xlink" x="0px" y="0px"
	 viewBox="0 0 29.5 24.5" style="enable-background:new 0 0 29.5 24.5;" xml:space="preserve">
<style type="text/css">
	.st0{fill:none;stroke:#448AFF;stroke-miterlimit:10;}
	.st1{fill:#448AFF;}
	.st2{fill:none;stroke:#448AFF;stroke-linecap:round;stroke-linejoin:round;stroke-miterlimit:10;}
</style>
<path class="st0" d="M14.7,0.6c3.4,0,6.8,0,10.2,0c0.4,0,0.8,0,1.1,0.1c1.8,0.3,2.7,1.4,2.7,3.5c0,5.3,0,10.5,0,15.8
	c0,2.3-1.3,3.9-3.3,3.9c-7.2,0-14.3,0-21.5,0c-2,0-3.2-1.5-3.3-3.7c0-5.2,0-10.5,0-15.7c0-2.5,1.1-3.8,3.3-3.8
	C7.6,0.6,11.1,0.6,14.7,0.6L14.7,0.6z"/>
<path class="st1" d="M10.8,9c0-1.3-1-2.3-2.4-2.3c-1.4,0-2.4,1-2.4,2.4c0,1.3,1.1,2.4,2.4,2.4c0,0,0,0,0,0
	C9.8,11.4,10.9,10.3,10.8,9z"/>
<path class="st1" d="M12.4,17.6c0-0.9,0-1.7,0-2.6c-0.1-1-0.9-2-1.9-2c-1.3-0.1-2.7-0.1-4,0c-0.9,0.1-1.6,0.7-1.8,1.6
	c-0.2,1-0.1,2-0.2,3L12.4,17.6z"/>
<line class="st2" x1="18" y1="10.6" x2="24.9" y2="10.6"/>
<line class="st2" x1="16" y1="13.7" x2="24.9" y2="13.7"/>
<line class="st2" x1="16" y1="17" x2="24.9" y2="16.9"/>
</svg>
