<?xml version="1.0" encoding="utf-8"?>
<!-- Generator: Adobe Illustrator 21.0.0, SVG Export Plug-In . SVG Version: 6.00 Build 0)  -->
<svg version="1.1" id="图层_1" xmlns="http://www.w3.org/2000/svg" xmlns:xlink="http://www.w3.org/1999/xlink" x="0px" y="0px"
	 viewBox="0 0 25.2 29.9" style="enable-background:new 0 0 25.2 29.9;" xml:space="preserve">
<style type="text/css">
	.st0{fill:none;stroke:#FF5444;stroke-miterlimit:10;}
	.st1{fill:#FF5444;}
</style>
<path class="st0" d="M11.9,0.9C10.3,2,6.3,4.6,1.9,4.6c-0.7,0-1.2,0.5-1.2,1.2v11.1c0,0,0,0.1,0,0.1c0.1,0.8,1.2,9,11.6,12.1
	c0.2,0.1,0.4,0.1,0.7,0c1.8-0.4,10.4-3,11.7-12.1c0-0.1,0-0.1,0-0.2v-11c0-0.7-0.6-1.2-1.3-1.2c-1.7,0.1-5-0.3-10-3.7
	C12.8,0.6,12.3,0.6,11.9,0.9z"/>
<g>
	<path class="st1" d="M12.6,5.3c-0.8,0-1.4,0.6-1.4,1.4v11c0,0.8,0.6,1.4,1.4,1.4c0.8,0,1.4-0.6,1.4-1.4v-11
		C14,5.9,13.4,5.3,12.6,5.3z"/>
	<circle class="st1" cx="12.6" cy="23.1" r="1.4"/>
</g>
</svg>
