<?xml version="1.0" encoding="UTF-8"?>
<svg width="23px" height="27px" viewBox="0 0 23 27" version="1.1" xmlns="http://www.w3.org/2000/svg" xmlns:xlink="http://www.w3.org/1999/xlink">
    <!-- Generator: Sketch 46.2 (44496) - http://www.bohemiancoding.com/sketch -->
    <title>icon_address</title>
    <desc>Created with Sketch.</desc>
    <defs></defs>
    <g id="Symbols" stroke="none" stroke-width="1" fill="none" fill-rule="evenodd">
        <g id="icon_address">
            <g>
                <path d="M22.9971287,11.5714286 C22.9971287,5.18110714 17.8546996,0 11.5120832,0 C5.16946684,0 0.0270377113,5.18110714 0.0270377113,11.5714286 C0.0270377113,14.7256071 1.28369311,17.5818214 3.31463199,19.6695 L3.30984655,19.6695 L3.35674382,19.71675 C3.37971391,19.7398929 3.40268401,19.764 3.42661118,19.7871429 L9.92044733,26.3298214 C10.7990533,27.2150357 12.223199,27.2150357 13.1018049,26.3298214 L19.5956411,19.7871429 C19.6186112,19.764 19.6425384,19.7408571 19.6655085,19.71675 L19.7124057,19.6695 L19.7076203,19.6695 C21.7404733,17.5818214 22.9971287,14.7256071 22.9971287,11.5714286 Z M13.102762,23.6057143 C11.5139974,25.2064286 11.5130403,25.2102857 9.92140442,23.6057143 L4.7483485,18.3657857 C3.02080624,16.6233214 1.94121196,14.2299643 1.94121196,11.5714286 C1.94121196,6.24567857 6.22609103,1.92857143 11.5120832,1.92857143 C16.7980754,1.92857143 21.0829545,6.24567857 21.0829545,11.5714286 C21.0829545,14.2299643 20.0033602,16.6233214 18.2758179,18.3657857 L13.102762,23.6057143 Z M11.5149545,5.78571429 C8.34316775,5.78571429 5.77243173,8.37578571 5.77243173,11.5714286 C5.77243173,14.7670714 8.34316775,17.3571429 11.5149545,17.3571429 C14.6867412,17.3571429 17.2574772,14.7670714 17.2574772,11.5714286 C17.2574772,8.37578571 14.6867412,5.78571429 11.5149545,5.78571429 Z" id="Shape" fill="#4768F3" fill-rule="nonzero"></path>
                <path d="M11.5149545,15.4285714 C9.40074902,15.4285714 7.68660598,13.7015357 7.68660598,11.5714286 C7.68660598,9.44132143 9.40074902,7.71428571 11.5149545,7.71428571 C13.6291599,7.71428571 15.343303,9.44132143 15.343303,11.5714286 C15.343303,13.7015357 13.6291599,15.4285714 11.5149545,15.4285714 Z" id="Path" fill="#C8D2FB"></path>
            </g>
        </g>
    </g>
</svg>