<?xml version="1.0" standalone="no"?><!DOCTYPE svg PUBLIC "-//W3C//DTD SVG 1.1//EN" "http://www.w3.org/Graphics/SVG/1.1/DTD/svg11.dtd"><svg class="icon" width="200px" height="200.00px" viewBox="0 0 1024 1024" version="1.1" xmlns="http://www.w3.org/2000/svg"><path d="M227.154533 527.392572c-23.375383-5.718235-31.907711-19.342534-25.575492-40.893362l24.286126-90.635253 30.212092 8.095375-4.774747 17.816784 91.410919 24.493857 9.963932-37.183877-127.044488-34.042327 7.265474-27.113521 157.25658 42.136679-24.493857 91.409896-121.623012-32.588209-10.17064 37.95852c-3.289929 10.197246 0.298805 16.412808 10.775414 18.662035l73.593112 19.718087c12.115945 4.363378 20.137643 1.245364 24.085558-9.320273 0.551562-2.058892 2.029216-5.541203 4.455475-10.43056 2.169409-6.061043 3.935636-10.56973 5.285377-13.529131 10.015098 6.004761 19.125593 11.222599 27.362184 15.634072-4.869914 11.979846-9.731642 22.857591-14.556531 32.631188-7.249101 14.663978-21.394263 18.891256-42.427298 12.709463L227.154533 527.392572z" fill="#ff9900" /><path d="M451.372178 485.346967c-7.405667-7.511067-15.072277-14.001899-23.01825-19.452028 16.751522-17.098423 30.368658-35.867906 40.828894-56.31254l26.226315 13.669324c-3.348258 6.302543-6.558369 12.085246-9.629311 17.347087l27.888164 7.472182c1.106194-4.126994 2.952238-10.002818 5.54939-17.610076 1.796926-6.705726 3.112897-11.618619 3.943822-14.718213l29.437449 7.887644c-3.460822 12.915148-6.632047 23.688515-9.492188 32.328289l62.748113 16.813944-7.265474 27.112498-63.522756-17.020652-7.417947 24.581861 75.143421 20.133549-7.265474 27.112498-72.042803-19.303648c3.099594 23.533996 23.555485 45.335535 61.346183 65.424058-11.587919 10.180873-19.684318 17.688871-24.306592 22.547529-35.933397-22.912849-56.156998-46.598294-60.669778-71.055312-14.97097 18.691711-44.798299 29.782304-89.465614 33.317827-0.76134-1.320065-1.561565-3.466961-2.419096-6.459109-5.255701-11.372002-9.212826-19.360953-11.852956-23.934109 48.388057-0.864694 78.449723-10.803044 90.183975-29.803793l-75.143421-20.133549 7.265474-27.113521 79.790254 21.379936c0.551562-2.057869 1.520633-5.676279 2.905166-10.844999 2.169409-6.061043 3.681856-10.638291 4.511757-13.736862l-37.183877-9.962909C463.270159 471.929376 457.574437 478.70571 451.372178 485.346967z" fill="#ff9900" /><path d="M710.203154 571.306734c-0.765433-1.308809-1.830695-3.527336-3.195785-6.668886-7.66354-14.779611-13.761422-26.105564-18.297738-33.962509l20.778232-9.377578 14.951527 24.76401c15.028275-14.784728 29.594015-36.075637 43.678802-63.85226l25.301246 10.929934c-3.764744 7.853875-8.117888 15.819291-13.047154 23.903409l51.903114 13.907755-7.05672 26.337855-12.395308-3.320629c-11.921517 30.016641-25.675776 53.458539-41.256636 70.312392 6.665817 12.307304 16.049534 24.785499 28.16241 37.436634-6.444782 5.460362-13.82896 12.343119-22.135136 20.638039-11.695367-14.213723-20.871353-27.465538-27.539216-39.759539-12.58462 7.694239-28.404933 15.078417-47.451732 22.156626l-10.302647-23.517623-9.255805 6.653537-17.013489-29.468149c-13.103436 7.557116-30.093389 15.185864-50.964742 22.877033-2.644223-12.890588-4.809539-22.331611-6.52767-28.317952 18.35402-4.489244 33.17047-10.209526 44.448328-17.150612l-16.236799-29.260417 21.402449-11.700483 15.931854 24.196075c5.925966-5.600555 11.946077-12.574387 18.056238-20.901029l19.351744 17.638729c-1.596358 1.790786-3.569292 4.025687-5.948479 6.709819-4.114714 4.994758-9.992585 11.43647-17.639752 19.35072 6.941086 11.278881 13.053294 21.491477 18.355043 30.65723 12.921287-4.839215 24.162306-10.676154 33.755802-17.524119-3.154853-13.014408-4.469801-27.76639-3.925403-44.226271l-9.876951 8.976442-2.254344-16.380062L710.203154 571.306734zM638.406968 560.371684l-10.719132-21.969361c13.751189-7.939833 27.005051-17.115819 39.759539-27.539216l15.83771 18.358113c-8.411577 6.606465-20.291139 14.774495-35.623335 24.495904C643.596154 556.50768 640.508839 558.729278 638.406968 560.371684zM643.48973 501.123278l6.642281-24.789593 34.858926 9.340739c-0.073678-3.885494-0.169869-9.723455-0.288572-17.512862 0.170892-2.717901 0.13303-4.66116-0.096191-5.837962l30.267351 4.789073-0.446162 26.450419 28.662807 7.679913-6.642281 24.789593L643.48973 501.123278zM761.939469 595.132372c10.301623-11.626805 19.261693-27.493168 26.868951-47.600111l-25.563212-6.848988-1.190105 1.341554C759.616564 563.517327 759.571538 581.213361 761.939469 595.132372z" fill="#ff9900" /><path d="M512 297.357432c70.719668 0 133.443221 34.206056 172.547845 86.968747l27.357068 7.329942c-40.839127-67.693752-115.083062-112.963795-199.904912-112.963795-40.980343 0-79.483262 10.578939-112.952538 29.134551l27.304879 7.316639C452.590935 303.712163 481.551524 297.357432 512 297.357432zM652.945079 285.216927l14.980179 12.141528 4.617158-18.197454 16.767895-9.79918-16.767895-9.79918-4.617158-18.197454-14.980179 12.143575-19.62599-1.450025 7.512091 17.304108-7.512091 17.302061L652.945079 285.216927zM393.037585 244.49241l-15.410991-10.724249-3.363607 18.987447-15.775288 11.762905 17.012466 8.15268 5.656837 17.994839 13.879102-13.951757 19.272949-0.64059-8.43409-16.774035 6.252401-18.391882L393.037585 244.49241zM537.309432 218.257909l-11.42112-14.901385-8.977465 17.066701-18.602683 6.411013 13.727653 12.936637-0.076748 18.86465 17.460674-9.072633 18.556635 5.246491-2.935865-18.543332 11.545964-15.618723L537.309432 218.257909zM746.131435 335.440795l-16.180518-11.200086-2.301416 18.724457-15.247262 11.101849 17.648962 8.703219 6.754844 18.063401 13.204743-13.34289 19.424398 0.059352-9.485025-16.951067 5.248537-18.026562L746.131435 335.440795zM956.288852 476.464669 145.002488 259.078617c-19.913539-5.334495-40.380686 6.483668-45.719274 26.397207L41.315988 501.818103c-5.334495 19.913539 6.482645 40.382733 26.39516 45.719274l811.286364 217.381959c19.913539 5.336542 40.382733-6.480598 45.719274-26.39516l57.966203-216.34228C988.020554 502.268358 976.202391 481.799164 956.288852 476.464669zM962.239378 526.366196l-53.136198 198.312648c-4.003174 14.935154-19.354813 23.799032-34.288944 19.797905L81.556481 531.924795c-14.935154-4.003174-23.796986-19.354813-19.797905-34.288944l53.140291-198.316741c4.000104-14.935154 19.352767-23.796986 34.288944-19.795858l793.255709 212.551954C957.378673 496.077356 966.242552 511.431042 962.239378 526.366196zM512 176.038342c155.48012 0 286.266839 105.624642 324.580446 249.025657l20.653389 5.53404c-36.787858-156.61906-177.391153-273.223778-345.232812-273.223778-101.768825 0-193.520505 42.872436-258.192434 111.537306l20.632923 5.528923C335.237157 213.641775 419.22706 176.038342 512 176.038342zM597.648682 708.85546c-26.239618 11.432377-55.200206 17.786085-85.648682 17.786085-70.718645 0-133.443221-34.206056-172.548868-86.970794l-27.358091-7.330966c40.839127 67.694775 115.083062 112.965841 199.906959 112.965841 40.980343 0 79.484286-10.578939 112.953561-29.134551L597.648682 708.85546zM397.395846 747.608066l-14.860453-12.114922-4.578272 18.156522-16.633842 9.774621 16.633842 9.776667 4.578272 18.155499 14.860453-12.112875 19.463284 1.444908-7.450692-17.263176 7.450692-17.263176L397.395846 747.608066zM511.941672 805.096385l11.328 14.868639 8.904811-17.027815 18.451234-6.39464-13.617136-12.906961 0.078795-18.819624-17.318434 9.05012-18.407232-5.235235 2.911306 18.500353-11.450796 15.582907L511.941672 805.096385zM276.004101 687.780469l15.21861 12.281721 3.594875-18.472723 15.868409-9.981329-16.84669-9.897418-5.412266-18.448164-14.005992 12.354376-19.215644-1.420349 8.18952 17.533328-6.463202 17.569144L276.004101 687.780469zM512 847.961658c-155.479097 0-286.267862-105.625666-324.580446-249.02668l-20.653389-5.53404c36.786835 156.61906 177.391153 273.225825 345.233835 273.225825 101.768825 0 193.521528-42.872436 258.193457-111.537306l-20.6319-5.5279C688.763866 810.358225 604.773963 847.961658 512 847.961658zM646.923946 779.475867l15.312754 10.715039 3.302209-18.929118 15.635095-11.704576-16.898879-8.15268-5.65172-17.951861-13.746072 13.892405-19.125593 0.611937 8.401344 16.736173-6.166443 18.328437L646.923946 779.475867z" fill="#ff9900" /></svg>