<?xml version="1.0" encoding="UTF-8"?>
<svg width="15px" height="15px" viewBox="0 0 15 15" version="1.1" xmlns="http://www.w3.org/2000/svg" xmlns:xlink="http://www.w3.org/1999/xlink">
    <!-- Generator: Sketch 48 (47235) - http://www.bohemiancoding.com/sketch -->
    <title>iPhone 8</title>
    <desc>Created with Sketch.</desc>
    <defs></defs>
    <g id="Page-1" stroke="none" stroke-width="1" fill="none" fill-rule="evenodd" opacity="0.8">
        <g id="iPhone-8" fill="#6D6D6D" fill-rule="nonzero">
            <g id="提示">
                <path d="M12.4710393,5.52598311 C12.4710393,2.41464366 9.85322806,1.63183209 8.3905182,1.43729989 C8.48269356,1.2934376 8.53608705,1.12441886 8.53608705,0.942758866 C8.53608705,0.422158421 8.09662444,0 7.55433401,0 C7.01234981,0 6.57258098,0.422452397 6.57258098,0.942758866 C6.57258098,1.11853921 6.6226278,1.28260228 6.70959724,1.42323075 C5.26978904,1.59344643 2.52900439,2.33554146 2.52900439,5.52333728 C2.52900439,8.0478463 2.26899284,11.3589886 0,11.3589886 L0.285647422,12.3884723 C0.285647422,12.3884723 0.708617333,12.5285128 1.25731673,12.3638617 L3.59954241,12.3638617 C4.08570518,13.8902172 5.55786445,15 7.29856597,15 C9.03898314,15 10.5111643,13.8902172 10.9973052,12.3638617 L13.7231502,12.3638617 C14.2813208,12.5352324 14.7143307,12.3890602 14.7143307,12.3890602 L15,11.3589676 C12.8814975,11.3590096 12.4710393,8.28223408 12.4710393,5.52598311 Z M7.2985878,13.9007796 C6.14687685,13.9007796 5.39919326,13.2905356 5.07631696,12.3638827 L9.50042866,12.3638827 C9.179696,13.28264 8.43752458,13.9007796 7.2985878,13.9007796 Z M2.59617823,11.2649563 C3.21476378,10.3019757 3.71494752,8.57814815 3.71494752,5.5195365 C3.71494752,2.72051112 7.40727775,2.46065187 7.56441774,2.45067748 C7.56441774,2.45067748 11.2851399,2.61883529 11.2851399,5.51924252 C11.2851399,8.5757963 11.7822614,10.3007788 12.3975002,11.2649563 L2.59617823,11.2649563 Z" id="Shape"></path>
            </g>
        </g>
    </g>
</svg>