<?xml version="1.0" encoding="utf-8"?>
<!-- Generator: Adobe Illustrator 21.0.0, SVG Export Plug-In . SVG Version: 6.00 Build 0)  -->
<svg version="1.1" id="图层_1" xmlns="http://www.w3.org/2000/svg" xmlns:xlink="http://www.w3.org/1999/xlink" x="0px" y="0px"
	 viewBox="0 0 46.8 45.8" style="enable-background:new 0 0 46.8 45.8;" xml:space="preserve">
<style type="text/css">
	.st0{fill:none;stroke:#82ADE4;stroke-width:2;stroke-miterlimit:10;}
	.st1{fill:#82ADE4;}
</style>
<path class="st0" d="M44.7,11.9l-21-10.6c-0.3-0.1-0.6-0.1-0.9,0l-21,10.6c-0.8,0.4-0.8,1.5,0,1.8l21.1,10.6c0.3,0.1,0.6,0.1,0.9,0
	l20.9-10.6C45.5,13.4,45.5,12.4,44.7,11.9z"/>
<path class="st0" d="M23.8,44L39.2,36c0.4-0.2,0.7-0.7,0.5-1.2L35.8,22c-0.2-0.6-0.9-0.9-1.4-0.6l-10.7,5.4c-0.3,0.1-0.6,0.1-0.9,0
	l-10.6-5.4c-0.6-0.3-1.3,0-1.4,0.6l-4,12.7c-0.1,0.5,0.1,1,0.5,1.2l15.5,8.2C23.1,44.2,23.5,44.2,23.8,44z"/>
<path id="XMLID_1142_" class="st1" d="M43,14.4v13.2c0,0.8,0.8,1.3,1.5,0.9l0,0c0.4-0.2,0.6-0.6,0.6-1.1L43,14.4L43,14.4z"/>
</svg>
