<?xml version="1.0" encoding="utf-8"?>
<!-- Generator: Adobe Illustrator 21.0.0, SVG Export Plug-In . SVG Version: 6.00 Build 0)  -->
<svg version="1.1" id="图层_1" xmlns="http://www.w3.org/2000/svg" xmlns:xlink="http://www.w3.org/1999/xlink" x="0px" y="0px"
	 viewBox="0 0 44 44" style="enable-background:new 0 0 44 44;" xml:space="preserve">
<style type="text/css">
	.st0{fill:#FF6B6C;}
	.st1{fill:#FFFFFF;}
</style>
<path class="st0" d="M22.9,43.9c-6,0-15.2-1.9-20.8-12.6l-0.8-1.5h26.6v2.1H4.7c7.4,12.1,20.4,10,23,9.5l0.4,2
	C27.3,43.6,25.4,43.9,22.9,43.9z"/>
<path class="st0" d="M29.9,42.7V16.1H32v23.2c12.1-7.4,10-20.4,9.5-23l2-0.4c0.6,3,3,18.2-12.1,26.1L29.9,42.7z"/>
<polygon class="st0" points="27.9,39.2 16.1,39.2 16.1,37.1 27.9,37.1 27.9,39.2 "/>
<polygon class="st0" points="27.9,35.3 15.9,35.3 15.9,33.2 27.9,33.2 27.9,35.3 "/>
<rect x="33.3" y="16.1" class="st0" width="2.1" height="12"/>
<path class="st0" d="M0.5,28c-0.6-3-3-18.2,12.1-26.1l1.5-0.8v26.6H12V4.6C-0.1,12,2,25,2.5,27.6L0.5,28z"/>
<rect x="37.2" y="16.1" class="st0" width="2.1" height="11.8"/>
<polygon class="st0" points="28.1,27.9 16,27.9 16,16.2 28.1,16.2 28.1,27.9 "/>
<rect x="18.1" y="18.2" class="st1" width="7.9" height="7.6"/>
<rect x="8.6" y="15.7" class="st0" width="2.1" height="12"/>
<rect x="4.7" y="15.9" class="st0" width="2.1" height="11.8"/>
<path class="st0" d="M42.8,14.1H16.1v-2.1h23.2C31.9,0,18.9,2,16.3,2.6l-0.4-2C18.8,0,34-2.4,42,12.6L42.8,14.1z"/>
<polygon class="st0" points="28.1,10.7 16.1,10.7 16.1,8.7 28.1,8.7 28.1,10.7 "/>
<rect x="16.1" y="4.8" class="st0" width="11.8" height="2.1"/>
</svg>
