<svg xmlns="http://www.w3.org/2000/svg" viewBox="0 0 70.14 69.8">
  <defs>
    <style>
      .cls-1 {
        fill: #fff;
      }
    </style>
  </defs>
  <title>资源 1</title>
  <g id="图层_2" data-name="图层 2">
    <g id="图层_1-2" data-name="图层 1">
      <g id="图层_2-2" data-name="图层 2">
        <g id="图层_1-2-2" data-name="图层 1-2">
          <path class="cls-1" d="M37,34.85l32.8-32.5A1,1,0,0,0,69.88.94L69.82.87,69.34.33A1,1,0,0,0,67.92.27l-.07.07L35,32.83,2.45.32A1,1,0,0,0,1,.26L1,.33.43.86A1,1,0,0,0,.36,2.28l.07.07L33,34.84.33,67.24a1,1,0,0,0-.07,1.41l.07.07.53.54a1,1,0,0,0,1.41.07l.07-.07L35,36.85,67.75,69.47a1,1,0,0,0,1.41.07l.07-.07.54-.54a1,1,0,0,0,.07-1.41l-.07-.07Z"/>
        </g>
      </g>
    </g>
  </g>
</svg>
