<?xml version="1.0" encoding="UTF-8"?>
<svg width="739px" height="739px" viewBox="0 0 739 739" version="1.1" xmlns="http://www.w3.org/2000/svg" xmlns:xlink="http://www.w3.org/1999/xlink">
    <!-- Generator: Sketch 48.1 (47250) - http://www.bohemiancoding.com/sketch -->
    <title>删除-2</title>
    <desc>Created with Sketch.</desc>
    <defs></defs>
    <g id="Page-1" stroke="none" stroke-width="1" fill="none" fill-rule="evenodd">
        <g id="删除-2">
            <path d="M369.852,0.914 C166.141,0.914 0.916,166.106 0.916,369.85 C0.916,573.606 166.119,738.786 369.852,738.786 C573.608,738.786 738.788,573.643 738.788,369.85 C738.793,166.139 573.611,0.914 369.852,0.914 Z" id="Shape" fill="#D81E06" fill-rule="nonzero"></path>
            <path d="M521.109,472.241 C527.379,478.459 531.262,487.079 531.262,496.604 C531.262,496.629 531.262,496.654 531.262,496.68 C531.262,496.683 531.262,496.688 531.262,496.697 C531.262,515.783 515.79,531.255 496.704,531.255 C487.149,531.255 478.5,527.378 472.244,521.109 L369.854,418.778 L267.535,521.142 C261.28,527.414 252.63,531.295 243.073,531.295 C243.057,531.295 243.042,531.295 243.027,531.295 C223.966,531.295 208.469,515.832 208.469,496.697 C208.469,496.679 208.469,496.66 208.469,496.641 C208.469,487.124 212.335,478.512 218.584,472.287 L320.963,369.852 L218.608,267.503 C212.358,261.258 208.491,252.628 208.491,243.095 C208.491,243.074 208.491,243.053 208.491,243.032 C208.491,223.939 223.977,208.449 243.077,208.449 C243.087,208.449 243.1,208.449 243.113,208.449 C252.646,208.449 261.275,212.314 267.522,218.565 L369.841,320.943 L472.231,218.591 C478.487,212.341 487.127,208.475 496.669,208.475 C515.767,208.475 531.248,223.957 531.248,243.054 C531.248,243.057 531.248,243.061 531.248,243.061 C531.248,243.081 531.248,243.105 531.248,243.128 C531.248,252.665 527.366,261.296 521.098,267.526 L418.777,369.847 L521.107,472.243 L521.109,472.241 Z" id="Path" fill="#FFFFFF"></path>
        </g>
    </g>
</svg>